<?xml version="1.0" encoding="UTF-8" standalone="no"?>
<!-- Created with Inkscape (http://www.inkscape.org/) -->

<svg
   version="1.1"
   id="svg2"
   width="284.61618"
   height="283.50208"
   viewBox="0 0 284.61618 283.50208"
   sodipodi:docname="Grunge1.svg"
   inkscape:version="1.2.2 (b0a8486541, 2022-12-01)"
   xmlns:inkscape="http://www.inkscape.org/namespaces/inkscape"
   xmlns:sodipodi="http://sodipodi.sourceforge.net/DTD/sodipodi-0.dtd"
   xmlns="http://www.w3.org/2000/svg"
   xmlns:svg="http://www.w3.org/2000/svg">
  <defs
     id="defs6" />
  <sodipodi:namedview
     id="namedview4"
     pagecolor="#ffffff"
     bordercolor="#666666"
     borderopacity="1.0"
     inkscape:showpageshadow="2"
     inkscape:pageopacity="0.0"
     inkscape:pagecheckerboard="0"
     inkscape:deskcolor="#d1d1d1"
     showgrid="false"
     inkscape:zoom="1.9027592"
     inkscape:cx="-3.1533155"
     inkscape:cy="126.92095"
     inkscape:window-width="2560"
     inkscape:window-height="1371"
     inkscape:window-x="0"
     inkscape:window-y="0"
     inkscape:window-maximized="1"
     inkscape:current-layer="g8" />
  <g
     inkscape:groupmode="layer"
     inkscape:label="Image"
     id="g8"
     transform="translate(-18.050481,-17.333334)">
    <path
       style="fill:#ffffff;stroke-width:1.33333;fill-opacity:1"
       d="m 167.20576,299.4817 c -0.8693,-2.26537 0.29896,-4.81503 2.20627,-4.81503 1.68152,0 1.6088,4.95707 -0.0881,6.00583 -0.73852,0.45641 -1.69168,-0.0795 -2.11816,-1.1908 z m 19.46091,-15.403 c 0,-3.3616 2.28611,-4.72105 4.64581,-2.76267 2.42771,2.01482 1.10488,5.35064 -2.1218,5.35064 -1.60954,0 -2.52401,-0.93764 -2.52401,-2.58797 z m -12.78768,-12.57991 c -1.12961,-2.94374 0.37321,-4.44658 2.40991,-2.40989 1.20253,1.20253 1.20765,1.94789 0.0215,3.13407 -1.18616,1.18616 -1.7644,1.01393 -2.43138,-0.72418 z m 26.84463,-2.07332 c -0.42192,-0.68266 -0.15732,-1.61808 0.58797,-2.07869 0.74529,-0.46061 1.35508,0.0979 1.35508,1.2412 0,2.34204 -0.80008,2.68688 -1.94305,0.83749 z m -13.60112,-3.56012 c -2.88552,-4.40385 -1.03236,-7.86534 4.21084,-7.86534 4.91697,0 7.02448,3.35762 4.95645,7.89645 -2.02836,4.45176 -6.23937,4.43747 -9.16729,-0.0311 z m -27.78916,-11.19868 c -1.11606,-1.80581 0.3899,-4 2.74536,-4 1.05672,0 1.9213,1.2 1.9213,2.66667 0,2.76041 -3.21668,3.67947 -4.66666,1.33333 z m -16.2189,-3.42296 c -1.11128,-2.89595 1.70992,-5.61935 3.72927,-3.6 1.70672,1.70672 0.6494,5.68963 -1.51037,5.68963 -0.77936,0 -1.77787,-0.94034 -2.2189,-2.08963 z M 244,251.41203 c 0,-1.14328 0.6,-2.07869 1.33334,-2.07869 0.73333,0 1.33333,0.56458 1.33333,1.25464 0,0.69005 -0.6,1.62546 -1.33333,2.07869 C 244.6,253.1199 244,252.55534 244,251.41203 Z m 4.87332,-5.85035 c -3.30646,-3.6536 -2.91678,-13.30057 0.69243,-17.14241 1.59451,-1.69727 2.19451,-3.08593 1.33333,-3.08593 -0.86116,0 -1.56574,-0.9 -1.56574,-2 0,-2.32202 3.53542,-2.72704 4.28097,-0.49043 0.975,2.925 8.63468,-2.42119 9.47279,-6.61168 0.92823,-4.64116 5.20348,-6.28529 8.02605,-3.08659 1.06224,1.20378 2.29634,4.7387 2.74243,7.85536 0.44611,3.11667 1.16041,7.92304 1.58737,10.68084 1.02295,6.60746 -2.65245,11.34483 -11.01132,14.19298 -8.16328,2.7815 -12.84357,2.68761 -15.55831,-0.31214 z m -112.45349,-0.73253 c 0.38781,-1.01064 0.042,-2.50064 -0.76847,-3.31112 -0.81046,-0.81047 -1.06358,-1.88359 -0.56246,-2.38469 1.24486,-1.24488 1.86949,-0.42483 2.94726,3.8694 0.62522,2.49104 0.40083,3.66393 -0.70093,3.66393 -0.89129,0 -1.30323,-0.82689 -0.9154,-1.83752 z m 139.58018,-2.16248 c 0,-0.73333 0.63541,-1.33333 1.41202,-1.33333 0.77662,0 1.0412,0.6 0.58798,1.33333 C 277.54678,243.4 276.91137,244 276.58798,244 c -0.32339,0 -0.58797,-0.6 -0.58797,-1.33333 z m -123.76662,-5.62491 c -3.94443,-2.43546 -5.02844,-2.55898 -9.83067,-1.1202 -5.90632,1.76958 -7.43625,1.04102 -8.44065,-4.01944 -2.0441,-10.29881 14.50421,-19.93913 17.45285,-10.16725 0.48658,1.61249 2.24395,4.4318 3.9053,6.26513 5.87646,6.48483 7.28508,12.19218 2.93442,11.88954 -0.87338,-0.0608 -3.58294,-1.34224 -6.02125,-2.84778 z M 170,238.66667 c 0.45323,-0.73333 1.38864,-1.33333 2.0787,-1.33333 0.69005,0 1.25464,0.6 1.25464,1.33333 0,0.73333 -0.93542,1.33333 -2.0787,1.33333 -1.14328,0 -1.70786,-0.6 -1.25464,-1.33333 z m -60.66666,-1.33333 c 0,-0.73334 0.56458,-1.33334 1.25464,-1.33334 0.69005,0 1.62546,0.6 2.07869,1.33334 0.45322,0.73333 -0.11136,1.33333 -1.25465,1.33333 -1.14327,0 -2.07868,-0.6 -2.07868,-1.33333 z m 103.39028,0.0921 c -0.91078,-1.47364 1.19253,-3.06487 2.42374,-1.83367 1.26772,1.26772 1.03146,3.07487 -0.402,3.07487 -0.69005,0 -1.59984,-0.55855 -2.02174,-1.2412 z M 176.07074,224.7519 c -1.17956,-1.42128 -1.20955,-2.62402 -0.1164,-4.66667 1.74185,-3.25467 6.08596,-3.64059 7.23629,-0.64284 1.08324,2.82287 1.10431,2.73881 -1.28592,5.12904 -2.59323,2.59323 -3.80061,2.63057 -5.83403,0.18047 z m 50.59593,-2.49706 c 0,-3.24484 3.30093,-6.4394 5.70184,-5.51809 3.06037,1.17437 2.91729,4.17141 -0.28085,5.88301 -3.48739,1.86639 -5.42099,1.73623 -5.42099,-0.36492 z M 158.93334,218.4 c -2.31735,-2.31734 -1.9669,-3.73333 0.92401,-3.73333 2.53265,0 4.65431,3.04391 3.16189,4.53631 -1.19289,1.1929 -2.30946,0.97346 -4.0859,-0.80298 z m 77.32124,-1.70705 c -0.833,-1.82827 -2.27688,-3.01153 -3.22896,-2.64619 -2.25323,0.86464 -8.69732,-14.90838 -6.84686,-16.75885 0.82351,-0.82351 3.29416,-0.4948 6.88611,0.91615 4.67604,1.8368 5.6018,2.80237 5.6018,5.84269 0,2.50609 0.8218,3.85715 2.63455,4.33119 3.75894,0.98298 6.27646,6.9178 4.06489,9.58258 -2.6364,3.17666 -7.38777,2.51567 -9.11153,-1.26757 z m -42.92124,-3.26688 c 0,-0.78433 -0.9,-1.42607 -2,-1.42607 -1.1,0 -2,-0.6 -2,-1.33333 0,-0.73333 0.9,-1.33333 2,-1.33333 2.65345,0 2.64858,-7.39156 -0.008,-12.48575 -1.0957,-2.10049 -1.992,-5.12715 -1.992,-6.72591 0,-2.61372 0.73942,-2.92413 7.33333,-3.07852 6.34051,-0.14845 7.33333,0.1665 7.33333,2.32632 0,1.37391 -0.93482,3.02118 -2.0774,3.66059 -1.54954,0.86717 -2.14242,3.67897 -2.33333,11.06625 -0.23684,9.1647 -0.47979,9.93547 -3.25593,10.32975 -1.65,0.23433 -3,-0.21567 -3,-1 z m -22,-1.42607 c -0.45323,-0.73333 -0.18864,-1.33333 0.58797,-1.33333 0.77661,0 1.41203,0.6 1.41203,1.33333 0,0.73334 -0.26459,1.33334 -0.58798,1.33334 -0.32338,0 -0.9588,-0.6 -1.41202,-1.33334 z m -26.66667,-2.66666 C 145.1199,208.6 145.75531,208 146.0787,208 c 0.32338,0 0.58797,0.6 0.58797,1.33334 0,0.73333 -0.63541,1.33333 -1.41203,1.33333 -0.77661,0 -1.0412,-0.6 -0.58797,-1.33333 z m 38.85264,-4.92514 c -1.50157,-1.50158 -0.91452,-3.07486 1.14736,-3.07486 1.1,0 2,0.56458 2,1.25464 0,1.6813 -2.08212,2.88546 -3.14736,1.82022 z M 166.66667,202 c -0.92591,-1.11565 -1.07029,-2 -0.32652,-2 0.73333,0 2.08027,0.9 2.99319,2 0.9259,1.11566 1.07029,2 0.32652,2 -0.73334,0 -2.08027,-0.9 -2.99319,-2 z m 9.65613,-2.33333 c -0.80362,-1.65 -1.6974,-3.87715 -1.98616,-4.94923 -0.75162,-2.79058 -17.02421,-5.69789 -17.7907,-3.17853 -0.30027,0.98693 -0.84298,2.7358 -1.20603,3.88636 -0.44364,1.40593 -1.53673,1.81371 -3.33333,1.24348 -1.53571,-0.48741 -2.67324,-0.24284 -2.67324,0.57473 0,0.78276 -1.35,1.40323 -3,1.37883 l -3,-0.0444 3.13888,-2.61516 c 1.72638,-1.43833 3.6193,-2.31825 4.20648,-1.95536 0.58717,0.36289 2.71408,-2.14973 4.72646,-5.58361 4.65459,-7.94242 11.77236,-15.09044 15.02659,-15.09044 1.38635,0 5.60635,3.08572 9.37777,6.85714 7.17042,7.17042 8.54351,11.41678 4.71824,14.59147 -1.17638,0.97632 -2.66153,3.14979 -3.30032,4.82992 -1.46822,3.86172 -3.04192,3.87931 -4.90464,0.0548 z m 10.34387,-2.33333 C 186.66667,196.6 187.26667,196 188,196 c 0.73334,0 1.33334,0.6 1.33334,1.33334 0,0.73333 -0.6,1.33333 -1.33334,1.33333 -0.73333,0 -1.33333,-0.6 -1.33333,-1.33333 z M 240,194.66667 c 0,-0.73333 0.6,-1.33333 1.33334,-1.33333 0.73333,0 1.33333,0.6 1.33333,1.33333 0,0.73333 -0.6,1.33333 -1.33333,1.33333 C 240.6,196 240,195.4 240,194.66667 Z m -8,-8.04184 c 0,-6.16268 2.72395,-8.19293 6.45818,-4.81352 2.16008,1.95485 2.61477,1.95548 5.39602,0.008 2.27851,-1.59593 3.41796,-1.74656 4.56152,-0.603 2.52652,2.52652 -0.77217,6.10697 -5.70473,6.19199 -2.6096,0.0449 -4.8148,0.96721 -5.57932,2.33333 C 234.72566,194.04035 232,192.38519 232,186.62483 Z m 59.33334,2.70851 c -1.11605,-1.80582 0.38991,-4 2.74536,-4 1.05672,0 1.92131,1.2 1.92131,2.66666 0,2.76042 -3.21668,3.67947 -4.66667,1.33334 z m -246.000006,-3.4311 c 0,-4.37645 4.460467,-3.98694 5.092735,0.44472 0.323604,2.26819 -0.237532,2.98638 -2.333333,2.98638 -2.07544,0 -2.759402,-0.85046 -2.759402,-3.4311 z m 34.269134,2.58912 c -1.293266,-1.29326 1.584506,-5.82469 3.69909,-5.82469 2.772024,0 3.824256,2.50687 1.983304,4.72507 -1.687903,2.0338 -4.252022,2.53 -5.682394,1.09962 z m 201.730872,-1.15802 c 0,-1.1 0.6,-2 1.33333,-2 0.73334,0 1.33334,0.9 1.33334,2 0,1.1 -0.6,2 -1.33334,2 -0.73333,0 -1.33333,-0.9 -1.33333,-2 z m -146.39622,-1.00746 c -3.47634,-4.18873 -2.79221,-13.37512 0.82938,-11.13685 1.75832,1.08669 5.56684,8.62311 5.56684,11.01583 0,2.26436 -4.54602,2.35037 -6.39622,0.12106 z m 139.83482,-1.77032 c 0.064,-1.55326 0.37992,-1.8692 0.80555,-0.80556 0.38516,0.9625 0.3378,2.1125 -0.1052,2.55556 -0.44307,0.44306 -0.75819,-0.34445 -0.7003,-1.75 z M 192,182.66667 c 0,-0.73333 0.6,-1.33333 1.33334,-1.33333 0.73333,0 1.33333,0.6 1.33333,1.33333 0,0.73333 -0.6,1.33333 -1.33333,1.33333 C 192.6,184 192,183.4 192,182.66667 Z M 70.666668,181.33334 c 0,-0.73334 0.6,-1.33334 1.333333,-1.33334 0.733334,0 1.333334,0.6 1.333334,1.33334 0,0.73333 -0.6,1.33333 -1.333334,1.33333 -0.733333,0 -1.333333,-0.6 -1.333333,-1.33333 z m 134.442092,-3.96102 c -2.75544,-4.80108 -0.92578,-7.97717 4.84498,-8.41036 3.58606,-0.26918 4.00938,0.15091 4.78773,4.75108 0.92355,5.45844 0.87819,5.53303 -4.08273,6.71302 -2.7065,0.64376 -3.76087,0.0636 -5.54998,-3.05374 z M 228.26667,178.4 c -2.3886,-2.3886 -1.94127,-5.32724 0.73333,-4.81748 1.28334,0.2446 2.52507,1.78859 2.7594,3.43111 0.46832,3.28252 -1.00985,3.86925 -3.49273,1.38637 z M 18.866884,174.24126 c -1.22332,-1.47402 -1.100268,-2.27432 0.561771,-3.6537 2.449925,-2.03326 6.571346,-0.22002 6.571346,2.8911 0,2.53474 -5.200903,3.09077 -7.133117,0.7626 z m 97.218716,-2.57459 c -0.85417,-2.20565 -0.54708,-3.63895 1.15976,-5.41308 4.66761,-4.85165 13.62846,1.34377 9.36821,6.47707 -2.59097,3.12192 -9.16417,2.45761 -10.52797,-1.06399 z m 74.52554,0.93308 c -1.4184,-1.70907 -1.32291,-2.45931 0.55162,-4.33333 1.87706,-1.87656 2.46243,-1.95035 3.40306,-0.42892 0.62482,1.01061 1.80312,1.4252 2.61845,0.9213 2.18675,-1.35149 1.80295,0.16967 -0.81392,3.22596 -2.76103,3.22464 -3.52564,3.3063 -5.75921,0.61499 z m -8.36504,-0.92808 c -1.25248,-0.91941 -2.55619,-3.12763 -2.89712,-4.90712 -0.34094,-1.77951 -1.23394,-3.84951 -1.98443,-4.6 -1.75155,-1.75155 -1.77347,-8.42111 -0.0312,-9.49788 0.73333,-0.45323 1.33333,-1.98864 1.33333,-3.41203 0,-1.42338 0.6,-2.58797 1.33334,-2.58797 0.73333,0 1.33333,1.2 1.33333,2.66667 0,1.95556 0.88889,2.66666 3.33333,2.66666 2.07408,0 3.33334,0.75556 3.33334,2 0,1.1 -0.96419,2 -2.14266,2 -1.33601,0 -1.85989,0.73686 -1.39156,1.9573 0.4131,1.07652 0.1773,2.31193 -0.52401,2.74536 -0.70131,0.43344 -1.27511,0.0527 -1.27511,-0.84619 0,-0.89884 -0.37409,-1.26016 -0.8313,-0.80295 -0.45722,0.45723 0.47757,3.34244 2.0773,6.4116 3.06834,5.88672 2.21696,9.05734 -1.66657,6.20655 z M 282.00001,172 c -0.45323,-0.73333 0.11133,-1.33333 1.25464,-1.33333 1.14328,0 2.07869,0.6 2.07869,1.33333 0,0.73334 -0.56459,1.33334 -1.25464,1.33334 -0.69005,0 -1.62547,-0.6 -2.07869,-1.33334 z m -79.33334,-6.66666 C 202.66667,164.6 203.26667,164 204,164 c 0.73334,0 1.33334,0.6 1.33334,1.33334 0,0.73333 -0.6,1.33333 -1.33334,1.33333 -0.73333,0 -1.33333,-0.6 -1.33333,-1.33333 z m -60,-4 C 142.66667,160.6 143.26667,160 144,160 c 0.73334,0 1.33334,0.6 1.33334,1.33334 0,0.73333 -0.6,1.33333 -1.33334,1.33333 -0.73333,0 -1.33333,-0.6 -1.33333,-1.33333 z M 206,161.4572 c -6.88885,-0.81688 -7.23725,-1.30924 -5.3305,-7.53309 0.75828,-2.47511 0.37473,-2.68821 -3.933,-2.18532 -5.88804,0.6874 -8.7365,-1.49496 -8.7365,-6.69353 0,-2.818 0.75703,-4.15955 2.62251,-4.64738 1.44239,-0.37718 2.98281,-1.82101 3.42319,-3.2085 1.21105,-3.81572 3.69769,-3.04154 2.94121,0.91572 -0.43023,2.25056 0.012,3.69541 1.28129,4.18232 2.51011,0.96322 4.66352,-1.52675 7.7438,-8.95408 3.80363,-9.17149 5.50075,-10.63018 12.03679,-10.34572 5.43424,0.23651 5.73672,0.46909 6.45537,4.96359 1.33943,8.37693 -1.77956,15.05787 -8.17082,17.50214 -3.81051,1.45729 -3.86399,3.56739 -0.1044,4.12059 3.98033,0.58568 4.49462,3.166 1.19426,5.99186 -1.51606,1.2981 -2.75649,3.42683 -2.75649,4.73052 0,1.3037 -0.45,2.27608 -1,2.16088 -0.55,-0.1152 -4,-0.56521 -7.66667,-1 z M 148,160 c 0,-0.73333 0.93542,-1.33333 2.0787,-1.33333 1.14328,0 1.70786,0.6 1.25464,1.33333 -0.45323,0.73334 -1.38864,1.33334 -2.0787,1.33334 -0.69005,0 -1.25464,-0.6 -1.25464,-1.33334 z m 152.00001,-2.66666 c 0,-0.73334 0.6,-1.33334 1.33333,-1.33334 0.73333,0 1.33333,0.6 1.33333,1.33334 0,0.73333 -0.6,1.33333 -1.33333,1.33333 -0.73333,0 -1.33333,-0.6 -1.33333,-1.33333 z m -136.79067,-1.92579 c -2.07804,-1.51951 -2.20355,-2.29476 -0.85183,-5.26148 1.67748,-3.68167 5.37596,-4.54593 8.04249,-1.8794 2.42378,2.42377 1.93611,4.53975 -1.57676,6.84147 -2.68009,1.75606 -3.5578,1.80286 -5.6139,0.29941 z m -53.02336,-0.33268 C 108.6844,153.57328 109.27146,152 111.33334,152 c 1.1,0 2,0.56459 2,1.25464 0,1.68131 -2.08212,2.88547 -3.14736,1.82023 z m 137.29036,-0.17681 C 246.34232,153.06318 248.1947,148 250,148 c 2.31354,0 3.63146,5.65142 1.61654,6.93188 -2.10287,1.33635 -3.29943,1.32658 -4.1402,-0.0339 z M 95.208325,151.79774 c -1.052455,-1.70291 3.205257,-5.44487 4.960805,-4.35988 1.18503,0.7324 -1.510437,5.89548 -3.077835,5.89548 -0.513653,0 -1.360989,-0.69103 -1.88297,-1.5356 z m 36.053205,-3.91391 c -1.22148,-1.97641 0.60038,-3.43353 5.61154,-4.48808 5.09836,-1.07291 7.39579,1.46848 3.74247,4.13985 -2.95855,2.16335 -8.1136,2.35524 -9.35401,0.34823 z m -25.5532,-1.55049 c -0.70667,-0.91667 -0.90309,-3.16667 -0.43648,-5 0.65541,-2.57515 1.71075,-3.33334 4.63971,-3.33334 3.15276,0 3.8572,0.61786 4.18244,3.66834 0.54294,5.09242 -5.4752,8.44036 -8.38567,4.665 z m 14.49767,-0.2502 c 0.25337,-1.2232 1.06067,-2.1923 1.794,-2.15356 1.97905,0.10453 1.61548,3.08749 -0.46067,3.77953 -1.12149,0.37384 -1.62131,-0.23569 -1.33333,-1.62597 z m 105.46067,-0.29951 c -2.77337,-1.11908 -1.90629,-2.71217 3.07621,-5.65192 5.4237,-3.20007 10.26407,-3.60149 12.39958,-1.02837 1.14345,1.37777 0.32686,2.4119 -3.68495,4.66666 -5.01216,2.817 -8.37613,3.3915 -11.79084,2.01363 z m -76.75381,-2.28955 c -0.38819,-1.01158 0.50097,-3.33898 1.97589,-5.172 2.54337,-3.16088 2.88556,-3.23104 6.63517,-1.36049 5.36171,2.67477 4.60566,6.44329 -1.23888,6.17515 -2.35677,-0.10814 -4.28504,0.34188 -4.28504,1 0,1.87832 -2.3038,1.39873 -3.08714,-0.64266 z m 24.75381,-0.4664 c -5.11411,-0.62545 -5.1414,-0.73878 -1.56985,-6.51765 l 2.76346,-4.4714 -3.76346,-3.31051 c -4.77808,-4.203 -6.27043,-4.19932 -9.59224,0.0237 -1.6647,2.11632 -5.1298,4.03142 -9.09678,5.02762 -5.80533,1.45786 -6.3842,1.9513 -6.15678,5.2482 0.31693,4.59463 -1.28606,4.64368 -4.24363,0.12987 -1.26461,-1.93005 -2.68363,-2.98005 -3.15335,-2.33333 -0.46972,0.64672 -2.95404,1.23986 -5.5207,1.31809 -2.56667,0.0783 -6.61667,0.48453 -9,0.90291 -3.59715,0.63144 -4.33334,0.343 -4.33334,-1.6978 0,-1.35215 0.75,-2.7611 1.66667,-3.13098 0.91667,-0.36988 0.39013,-0.71988 -1.17007,-0.77777 -3.87892,-0.14395 -6.77642,-3.69212 -4.70589,-5.76265 1.17026,-1.17026 2.70668,-1.12406 6.34263,0.19071 3.24151,1.17214 5.23669,1.29664 6.14962,0.38371 1.975,-1.975 0.33214,-3.79402 -4.25521,-4.71149 -5.00668,-1.00134 -5.30775,-4.45157 -0.54642,-6.26182 1.91472,-0.72798 7.20976,-1.16394 11.76675,-0.9688 7.15347,0.30633 9.04594,-0.14848 13.85202,-3.32898 3.42772,-2.26837 5.56657,-4.70114 5.56657,-6.33154 0,-3.17144 2.9888,-3.47273 5.41767,-0.54613 1.43713,1.73164 1.4358,2.29222 -0.008,3.18426 -1.09606,0.67741 -1.32596,1.76229 -0.6142,2.89838 0.62564,0.99866 0.9648,2.86574 0.75366,4.14908 -0.52754,3.20673 2.03166,2.94051 3.81792,-0.39716 0.80372,-1.50177 2.9736,-3.30546 4.82195,-4.0082 4.19084,-1.59336 3.45375,-4.4547 -1.29227,-5.01654 -4.20269,-0.49753 -4.09514,-0.10339 -1.46618,-5.37325 2.63888,-5.28976 4.31906,-5.319785 6.13533,-0.10964 0.78804,2.26058 2.8476,4.63509 4.59731,5.30033 4.51216,1.71552 3.92197,3.49989 -1.49364,4.51586 -3.34911,0.6283 -5.24107,1.99204 -6.7133,4.83901 -2.34684,4.53828 -1.41804,5.38755 6.31751,5.77659 4.34,0.21827 6.58476,3.03939 3.79189,4.76548 -1.90526,1.17779 -4.27142,10.70752 -2.65816,10.70752 0.61967,0 1.74551,-1.05 2.50186,-2.33334 1.17261,-1.98959 1.56225,-2.04807 2.64494,-0.397 0.69836,1.06499 0.97394,2.41499 0.61238,3 -0.36156,0.58502 0.57802,1.06367 2.08797,1.06367 3.34795,0 3.63385,2.10019 0.41203,3.02656 C 183.05,142.06222 181.1,142.63267 180,142.9609 c -1.1,0.32821 -3.95,0.35826 -6.33333,0.0668 z m 89.0131,-3.67857 c -1.33715,-1.61116 -1.22566,-2.14581 0.59302,-2.84371 2.62702,-1.00808 5.42806,1.28194 4.13235,3.37843 -1.23039,1.99081 -2.77437,1.81609 -4.72537,-0.53472 z M 21.928199,133.21716 c -0.492715,-0.79723 -0.253555,-2.0918 0.531469,-2.87683 1.663868,-1.66386 5.992301,1.18302 4.780297,3.14409 -1.014848,1.64205 -4.231779,1.4802 -5.311766,-0.26726 z m 173.639661,-4.42014 c -0.75283,-1.96183 0.10904,-3.46368 1.9877,-3.46368 0.61111,0 1.11111,1.2 1.11111,2.66666 0,3.05723 -2.03103,3.57961 -3.09881,0.79702 z M 196,120 c 0,-0.73333 0.63542,-1.33333 1.41203,-1.33333 0.77661,0 1.0412,0.6 0.58797,1.33333 -0.45322,0.73334 -1.08864,1.33334 -1.41202,1.33334 -0.32339,0 -0.58798,-0.6 -0.58798,-1.33334 z m -76,-4.90446 c 0,-0.7419 1.35,-2.4919 3,-3.88889 l 3,-2.53998 L 123.34755,112 c -1.45886,1.83334 -2.80886,3.58334 -3,3.88889 C 120.1564,116.19445 120,115.83744 120,115.09554 Z m 66.09524,-2.52411 c -2.44488,-2.44488 -2.71982,-6.08017 -0.61877,-8.18123 0.81205,-0.81206 1.90104,-3.48206 2.41997,-5.933333 0.70858,-3.347156 1.5859,-4.388026 3.52354,-4.180393 3.23316,0.346463 13.82242,-3.419542 16.86369,-5.997472 2.66776,-2.26132 6.383,-1.273002 6.383,1.69799 0,1.848451 -8.37813,13.413038 -14.36256,19.825078 -4.52628,4.84969 -10.88852,6.08971 -14.20887,2.76936 z M 84.230511,109.78775 c 0.561933,-2.91788 4.436157,-3.33068 4.436157,-0.47267 0,1.08995 -1.104488,2.19444 -2.454417,2.45441 -1.781861,0.34316 -2.324895,-0.19988 -1.98174,-1.98174 z M 111.73334,110.4 c 1.24444,-1.24444 1.95555,-1.24444 3.2,0 1.24444,1.24445 0.88888,1.6 -1.6,1.6 -2.48889,0 -2.84445,-0.35555 -1.6,-1.6 z M 240,108.55556 c 0,-2.35457 2.87035,-1.94452 3.69444,0.52778 0.29028,0.87083 -0.42221,1.58333 -1.58333,1.58333 -1.16111,0 -2.11111,-0.95 -2.11111,-2.11111 z M 129.97497,105.361 c 2.91978,-3.22632 9.35837,-3.24536 9.35837,-0.0277 0,1.41596 -1.73911,2.12384 -5.95547,2.4241 l -5.95547,0.42411 z M 80.506671,104.73052 C 79.489236,102.07912 80.996487,100 83.936039,100 c 2.983132,0 4.408119,3.12251 2.359769,5.17086 -2.081756,2.08176 -4.903684,1.86711 -5.789137,-0.44034 z M 273.33334,98.163262 c 0,-3.243251 3.42425,-5.130231 5.27121,-2.904775 0.89376,1.076919 1.23796,2.584318 0.76488,3.349775 -1.2652,2.047148 -6.03609,1.695418 -6.03609,-0.445 z m -128,-15.496594 c 0,-0.733333 0.6,-1.333333 1.33333,-1.333333 0.73333,0 1.33333,0.6 1.33333,1.333333 0,0.733334 -0.6,1.333334 -1.33333,1.333334 -0.73333,0 -1.33333,-0.6 -1.33333,-1.333334 z M 133.9282,79.883826 c -0.49272,-0.797231 -0.2804,-2.064952 0.4718,-2.817158 1.68218,-1.682173 4.26667,-0.261496 4.26667,2.345356 0,2.244827 -3.43152,2.586496 -4.73847,0.471802 z M 57.600001,77.066668 c -2.438917,-2.438917 -1.910037,-5.066667 1.019755,-5.066667 2.678567,0 5.963737,4.305398 4.444445,5.82469 -1.322092,1.322092 -3.716211,0.989967 -5.4642,-0.758023 z M 187.42858,71.238096 c -2.78388,-2.783876 -2.64943,-6.323263 0.34308,-9.031444 5.90898,-5.347562 12.6128,-0.239373 9.51157,7.247653 -1.82628,4.40903 -6.40129,5.237152 -9.85465,1.783791 z m -39.88859,-3.009749 c -1.21367,-1.341076 -2.20665,-3.534068 -2.20665,-4.873316 0,-2.319179 -0.12214,-2.32448 -2.56747,-0.11148 -3.28636,2.974117 -6.93647,2.260162 -8.93455,-1.74758 -2.30209,-4.617559 0.74567,-11.35259 5.3938,-11.919349 2.9829,-0.363714 3.60368,0.199963 4.40522,4 0.51317,2.432856 0.75684,5.023375 0.5415,5.756708 -0.21534,0.733334 1.04658,-0.01667 2.80426,-1.666666 4.12297,-3.870392 8.33842,-3.806694 12.33145,0.18634 3.67881,3.678808 3.25995,7.798007 -1.10373,10.854448 -3.78914,2.654017 -7.99959,2.464849 -10.66383,-0.479109 z M 182,57.116128 c -6.48769,-3.52198 -7.97742,-10.246536 -3.03665,-13.707188 6.46567,-4.528733 14.36999,-1.357765 14.36999,5.764793 0,6.652061 -5.9846,10.846068 -11.33334,7.942395 z m -8.66666,-38.449461 c 0,-0.733333 0.86458,-1.333333 1.9213,-1.333333 1.05672,0 2.29214,0.6 2.74536,1.333333 C 178.45323,19.4 177.58864,20 176.0787,20 c -1.50995,0 -2.74536,-0.6 -2.74536,-1.333333 z"
       id="path245" />
  </g>
</svg>
