<?xml version="1.0" encoding="UTF-8" standalone="no"?>
<!-- Created using Krita: https://krita.org -->

<svg
   width="300.05203pt"
   height="90.505966pt"
   viewBox="0 0 300.05202 90.505969"
   version="1.1"
   id="svg6"
   sodipodi:docname="LogoBlockerSplatter.svg"
   inkscape:version="1.2.2 (b0a8486541, 2022-12-01)"
   xmlns:inkscape="http://www.inkscape.org/namespaces/inkscape"
   xmlns:sodipodi="http://sodipodi.sourceforge.net/DTD/sodipodi-0.dtd"
   xmlns="http://www.w3.org/2000/svg"
   xmlns:svg="http://www.w3.org/2000/svg">
  <sodipodi:namedview
     id="namedview8"
     pagecolor="#ffffff"
     bordercolor="#666666"
     borderopacity="1.0"
     inkscape:showpageshadow="2"
     inkscape:pageopacity="0.0"
     inkscape:pagecheckerboard="0"
     inkscape:deskcolor="#d1d1d1"
     inkscape:document-units="pt"
     showgrid="false"
     inkscape:zoom="1.7664983"
     inkscape:cx="347.0142"
     inkscape:cy="40.475556"
     inkscape:window-width="2560"
     inkscape:window-height="1371"
     inkscape:window-x="0"
     inkscape:window-y="0"
     inkscape:window-maximized="1"
     inkscape:current-layer="svg6" />
  <defs
     id="defs2" />
  <g
     id="g8"
     transform="matrix(0.41761148,0,0,0.41761148,-7.2385986,-5.764936)"
     fill="none">
    <path
       id="path239"
       transform="translate(17.333333,13.804544)"
       fill="#000000"
       stroke-opacity="0"
       stroke="#000000"
       stroke-width="0"
       stroke-linecap="square"
       stroke-linejoin="bevel"
       d="m 52,215.795 c 0,-0.88 -0.9,-1.6 -2,-1.6 -2.3291,0 -2.6608,-2.1 -0.5387,-3.412 0.8037,-0.497 2.428,0.064 3.6095,1.245 1.6779,1.678 1.7959,2.501 0.5387,3.758 C 52.363,217.032 52,217.035 52,215.796 Z m 8.608,-8.152 c 0.068,-3.954 3.4747,-5.228 5.9627,-2.23 2.078,2.504 1.0367,4.292 -2.943,5.053 -2.577,0.492 -3.0687,0.032 -3.0197,-2.823 z M 76,207.604 c 0,-0.691 1.3469,-2.201 2.9931,-3.354 3.7357,-2.616 5.2919,0.131 1.6022,2.829 C 77.7365,209.17 76,209.368 76,207.604 Z m -23.4685,-1.947 c -0.4307,-1.122 -0.512,-2.81 -0.1807,-3.751 0.3313,-0.941 -0.5501,-3.356 -1.9586,-5.368 -1.4084,-2.012 -2.1849,-4.266 -1.7253,-5.01 0.4595,-0.743 -0.0991,-1.71 -1.2414,-2.148 -1.1423,-0.439 -1.6651,-1.484 -1.1619,-2.324 0.5837,-0.974 0.1745,-0.928 -1.1303,0.128 -1.1249,0.91 -2.4901,1.21 -3.0338,0.667 -0.5436,-0.544 -1.5384,-1.064 -2.2106,-1.156 -0.6722,-0.091 -1.8222,-0.241 -2.5556,-0.333 -0.7333,-0.091 -1.1833,-0.917 -1,-1.833 0.1834,-0.917 -0.4166,-1.517 -1.3333,-1.334 -2.3602,0.473 -2.0761,-5.072 0.3511,-6.853 1.5896,-1.166 0.768,-1.481 -3.8726,-1.487 -5.125,-0.007 -5.7332,0.286 -4.6808,2.252 0.6652,1.243 0.7033,2.573 0.0846,2.955 -1.523,0.941 -7.2132,-6.919 -6.198,-8.562 0.4435,-0.717 0.1459,-1.305 -0.6614,-1.305 -3.0858,0 -6.9616,-5.042 -6.0598,-7.883 0.4858,-1.531 1.4428,-2.783 2.1267,-2.783 0.684,0 1.2435,-0.621 1.2435,-1.38 0,-0.91 -0.9641,-0.865 -2.8275,0.133 -1.9873,1.063 -2.5583,1.077 -1.9213,0.047 0.4984,-0.807 0.4151,-1.467 -0.1851,-1.467 -0.6002,0 -1.875,-1.255 -2.83299,-2.789 -1.48566,-2.379 -1.40998,-3.031 0.51479,-4.439 1.7872,-1.307 1.956,-2.211 0.8115,-4.349 -1.2171,-2.275 -0.92848,-2.977 1.8312,-4.454 3.6186,-1.936 4.2113,-5.959 1.42,-9.636 -0.9742,-1.283 -2.0551,-2.333 -2.402,-2.333 -1.5572,0 -0.4313,4.822 1.4495,6.207 1.7041,1.256 1.3804,1.405 -1.7483,0.807 -2.45952,-0.47 -3.53377,-0.239 -2.98895,0.642 0.47111,0.762 -0.18395,1.295 -1.4685,1.194 -1.27544,-0.101 -2.17618,0.545 -2.00165,1.435 0.18582,0.948 -0.52142,1.297 -1.7064,0.843 -2.330406,-0.895 -1.49225,-5.098 1.75342,-8.795 1.12692,-1.283 1.65595,-2.408 1.17563,-2.5 -0.48033,-0.091 -1.42332,-0.241 -2.09554,-0.333 -1.87161,-0.255 -3.421221,-2.167 -1.75652,-2.167 0.80614,0 1.84657,-1.2 2.31208,-2.666 1.03002,-3.246 4.06378,-3.494 5.23967,-0.43 0.80006,2.085 1.01316,2.082 3.14266,-0.048 2.0021,-2.003 2.0372,-2.442 0.2843,-3.55 -1.5764,-0.997 -1.3019,-1.269 1.2967,-1.285 l 3.2967,-0.021 -2.8902,-2.024 c -1.5896,-1.113 -3.579,-1.863 -4.4208,-1.667 -0.84178,0.197 -2.22469,-0.729 -3.07311,-2.059 -1.27675,-2 -0.99356,-2.867 1.64324,-5.031 2.00347,-1.643 4.16857,-2.302 5.83367,-1.773 1.6409,0.521 2.3276,0.322 1.8058,-0.522 -0.463,-0.749 -0.0882,-1.69 0.8331,-2.09 0.9212,-0.4 0.0181,-0.385 -2.0068,0.034 -3.0017,0.622 -3.5295,0.366 -2.8574,-1.386 0.5623,-1.465 0.0912,-2.1483 -1.4815,-2.1483 -1.82745,0 -1.98382,-0.388 -0.7536,-1.8703 1.1919,-1.4362 1.1524,-2.0307 -0.1701,-2.5614 -0.94729,-0.3801 -0.1078,-0.7384 1.8656,-0.7963 1.9734,-0.0579 3.9254,-0.6512 4.3377,-1.3183 1.3193,-2.1347 -0.7248,-5.2845 -3.705,-5.709 -2.0445,-0.2913 -2.8407,-1.2871 -2.7277,-3.4113 0.0903,-1.6963 -0.6158,-3 -1.62477,-3 -1.09655,0 -1.49511,-0.8995 -1.03387,-2.3334 0.59411,-1.8468 0.47222,-1.9417 -0.58465,-0.455 -0.73438,1.033 -1.13098,3.4922 -0.88133,5.4647 0.40064,3.1657 0.07321,3.5138 -2.79054,2.9663 C 0.597489,85.9987 0,85.0838 0,81.5366 0,76.9164 2.88888,73.3513 5.38343,74.893 6.33382,75.4804 6.72687,74.8946 6.45584,73.2948 6.22053,71.9059 7.3717,69.3271 9.014,67.5643 12.851,63.4458 12.9143,61.2397 9.09328,64.7995 6.36912,67.3375 6.03218,67.3678 3.72844,65.283 2.00768,63.7257 1.73096,62.7737 2.80597,62.1093 3.65059,61.5873 3.92936,60.4931 3.42546,59.6778 2.92157,58.8625 3.10929,58.1954 3.84262,58.1954 c 0.73333,0 1.70415,0.6 2.15738,1.3333 1.16025,1.8774 2.21254,1.6228 5.8652,-1.4188 3.0514,-2.5409 3.0863,-2.7456 0.7597,-4.4468 C 10.2924,51.9575 10.3128,51.8119 13.093,50.324 15.3508,49.1157 16,49.136 16,50.4152 c 0,1.2118 0.393,1.2539 1.4876,0.1592 1.0947,-1.0946 0.9575,-2.2446 -0.5192,-4.3529 -2.2662,-3.2354 -1.5826,-8.0261 1.1453,-8.0261 0.9914,0 1.4983,0.7931 1.1263,1.7625 -0.7451,1.9415 5.5187,5.4167 7.5266,4.1758 C 27.445,43.7144 28,44.0068 28,44.7834 c 0,0.7766 1.05,1.3938 2.3333,1.3715 2.2223,-0.0387 2.2223,-0.1053 0,-1.3996 -2.7429,-1.5976 -3.0873,-3.8932 -0.584,-3.8932 0.962,0 3.0923,-1.8167 4.7339,-4.0371 1.6417,-2.2204 3.5545,-3.685 4.2508,-3.2547 0.6963,0.4304 1.2873,-0.9029 1.3132,-2.9629 l 0.0473,-3.7453 1.8447,3.3333 c 1.0146,1.8333 2.3284,3.1383 2.9194,2.9 0.5911,-0.2383 1.2897,0.2117 1.5525,1 0.2628,0.7883 -0.1022,1.4333 -0.8111,1.4333 -0.709,0 -1.6152,1.2474 -2.0139,2.772 -0.5161,1.9737 -0.2017,2.5713 1.0917,2.0749 0.9991,-0.3834 2.108,0.0192 2.4641,0.8947 0.3562,0.8755 0.6949,0.5572 0.7528,-0.7073 C 47.9916,38.4466 56,32.9842 56,35.0345 c 0,0.4991 1.1859,-0.1656 2.6352,-1.4773 1.4494,-1.3117 2.2614,-3.0547 1.8044,-3.8733 -0.4569,-0.8187 -0.0228,-0.7385 0.9648,0.1782 2.4719,2.2943 4.3776,2.0923 3.4349,-0.3642 -0.6301,-1.6422 -0.2883,-1.7681 1.7862,-0.6579 2.0033,1.0721 2.8644,0.8598 3.9294,-0.9691 0.7502,-1.2882 1.3823,-1.6621 1.4046,-0.831 0.0223,0.8311 1.2405,1.825 2.7072,2.2085 3.2301,0.8447 3.3148,0.4523 0.5079,-2.3546 -1.1873,-1.1873 -1.8152,-2.5022 -1.3954,-2.922 1.264,-1.2641 7.7263,0.8664 6.8633,2.2627 -0.4399,0.7118 -0.1216,1.2942 0.7074,1.2942 1.7233,0 5.4432,-3.4081 5.3493,-4.9009 -0.0345,-0.5479 1.2941,-1.0927 2.9524,-1.2107 5.2758,-0.3753 6.9897,-1.1595 8.0134,-3.6667 1.0468,-2.5637 4.579,-2.318 4.002,0.2783 -0.184,0.825 0.566,1.5 1.666,1.5 1.1,0 2,0.8886 2,1.9746 0,2.166 5.677,4.1281 7.925,2.7389 0.775,-0.4789 1.399,-1.5854 1.388,-2.4588 -0.012,-0.9542 -0.536,-0.7897 -1.313,0.412 -1.077,1.6668 -1.296,1.5669 -1.313,-0.6 -0.015,-2.0222 -0.376,-2.2444 -1.62,-1 -1.786,1.7863 -3.847,2.1374 -3.522,0.6 0.117,-0.55 -0.281,-2.1368 -0.883,-3.5261 -0.784,-1.8089 -0.393,-3.0393 1.377,-4.3334 3.239,-2.3689 4.731,-2.2928 3.777,0.1928 -0.527,1.3718 0.08,2 1.931,2 1.484,0 2.949,-0.45 3.257,-1 0.308,-0.55 0.393,-0.2938 0.19,0.5692 -0.476,2.0244 2.968,4.9006 4.634,3.8706 0.703,-0.4343 1.506,-0.1042 1.786,0.7336 0.687,2.0618 5.751,-1.1196 7.6,-4.7749 1.19,-2.3511 1.293,-2.1744 0.743,1.2682 -0.352,2.2 -0.286,3.25 0.146,2.3333 1.09,-2.3117 3.231,-2.0908 3.231,0.3334 0,1.1 0.6,2 1.333,2 0.733,0 1.333,-0.5789 1.333,-1.2865 0,-0.7075 1.2,-1.9286 2.667,-2.7135 3.17,-1.6965 3.436,-0.9595 0.656,1.8197 -1.246,1.2463 -1.499,2.3258 -0.666,2.8406 0.739,0.4567 1.343,0.1215 1.343,-0.7449 0,-1.2085 0.44,-1.21 1.891,-0.0063 1.558,1.2928 1.825,0.9695 1.517,-1.8367 -0.25,-2.2767 0.275,-3.4058 1.585,-3.4058 1.308,0 1.666,0.7652 1.076,2.302 -0.679,1.7689 -0.149,1.6116 2.29,-0.6789 1.745,-1.6395 3.578,-2.5753 4.074,-2.0797 0.495,0.4956 0.901,0.1656 0.901,-0.7332 0,-0.8988 0.626,-1.2471 1.392,-0.774 0.765,0.4732 2.865,-0.1052 4.666,-1.2853 3.38,-2.2148 4.141,-1.5181 2.014,1.8439 -0.75,1.186 -0.706,2.8871 0.114,4.4194 1.094,2.0451 1.693,2.1927 3.342,0.8243 1.622,-1.3466 2.241,-1.2991 3.219,0.2472 0.992,1.567 1.215,1.4858 1.232,-0.4476 0.011,-1.2991 1.577,-3.0713 3.48,-3.9383 3.064,-1.3958 3.179,-1.6747 1.009,-2.436 -2.117,-0.7428 -1.901,-1.1438 1.588,-2.94824 3.817,-1.97394 4.039,-1.94845 4.039,0.46464 0,1.4042 -0.472,2.5531 -1.048,2.5531 -0.576,0 -1.047,0.6 -1.047,1.3334 0,0.7333 3.035,1.3333 6.745,1.3333 4.157,0 6.429,0.5116 5.921,1.3333 -0.453,0.7335 -2.288,1.3335 -4.078,1.3335 -2.004,0 -3.255,0.7684 -3.255,2 0,1.1 -0.9,2 -2,2 -2.379,0 -2.631,2.8354 -0.446,5.0202 1.182,1.1826 1.968,1.0075 3.291,-0.7333 0.955,-1.2578 1.756,-1.5798 1.779,-0.7155 0.024,0.8643 -1.001,2.6155 -2.277,3.8915 -2.205,2.2047 -2.132,2.2729 1.46,1.3712 4.788,-1.2017 7.273,0.8008 6.762,5.4504 -0.217,1.9786 0.148,4.5241 0.811,5.6565 0.952,1.6262 1.224,1.3583 1.293,-1.2744 l 0.088,-3.3333 1.774,3.2018 c 1.299,2.3427 1.973,2.7005 2.515,1.3334 0.538,-1.36 0.768,-1.2335 0.845,0.4648 0.058,1.2833 0.74,2.3333 1.517,2.3333 0.777,0 1.103,0.5 0.725,1.1111 -0.377,0.6111 0.246,1.1111 1.385,1.1111 1.139,0 2.687,-1.3525 3.44,-3.0055 0.879,-1.9287 2.105,-2.7234 3.423,-2.2179 1.315,0.5048 1.717,0.2455 1.119,-0.7218 -0.583,-0.9447 0.707,-1.9539 3.448,-2.6975 5.503,-1.4922 6.78,-0.8164 4.943,2.6156 -0.794,1.485 -1.233,2.9115 -0.974,3.17 1.126,1.1267 12.975,-3.7885 12.19,-5.0573 -0.501,-0.8113 -0.209,-0.9863 0.705,-0.4217 0.858,0.5307 1.241,1.4819 0.851,2.1139 -0.391,0.632 -0.101,1.526 0.644,1.9866 0.746,0.4606 1.403,0.0521 1.461,-0.9079 0.058,-0.9599 0.708,-0.0953 1.444,1.9213 1.292,3.5354 3.784,5.0725 3.784,2.3334 0,-0.7334 -0.6,-1.3334 -1.333,-1.3334 -0.734,0 -1.334,-0.4714 -1.334,-1.0476 0,-0.5762 1.2,-1.0476 2.667,-1.0476 1.506,0 2.669,0.8909 2.673,2.0476 0.004,1.426 1.509,2.1262 4.958,2.3065 3.265,0.1707 4.314,-0.1354 3.08,-0.8984 -3.592,-2.2195 0.725,-5.0757 6.639,-4.3927 4.775,0.5516 5.317,0.3154 5.317,-2.3195 0,-2.2788 0.52,-2.7146 2.333,-1.9522 3.841,1.6156 7.604,1.66 8.646,0.1019 0.604,-0.9022 0.988,-0.5686 1,0.8687 0.011,1.2833 0.621,2.3333 1.354,2.3333 0.733,0 1.183,-0.6696 1,-1.488 -0.183,-0.8184 1.767,-2.6815 4.333,-4.1401 2.567,-1.4587 4.222,-2.1942 3.679,-1.6347 -1.194,1.2286 1.377,4.6044 3.485,4.5757 0.826,-0.0112 0.603,-0.6632 -0.497,-1.449 -1.568,-1.1202 -1.281,-1.2636 1.333,-0.6644 1.834,0.4203 4.124,0.7723 5.09,0.7823 1.172,0.0121 1.463,0.9439 0.874,2.7993 -0.797,2.5112 -0.601,2.6301 2.024,1.2253 1.599,-0.8557 3.257,-1.2058 3.685,-0.7782 0.428,0.4277 1.951,-0.2737 3.386,-1.5586 2.544,-2.2791 2.585,-2.2302 1.669,1.9971 -0.817,3.7674 -0.588,4.3333 1.751,4.3333 2.079,0 2.633,-0.7957 2.439,-3.5023 -0.193,-2.6957 0.44,-3.6151 2.749,-3.9917 1.65,-0.2691 3,0.0882 3,0.7939 0,0.7057 0.9,0.9377 2,0.5156 1.1,-0.4221 2,-1.6033 2,-2.6248 0,-1.0215 0.67,-1.8573 1.489,-1.8573 0.851,0 1.178,1.187 0.764,2.7719 -0.523,1.9997 -0.207,2.5732 1.135,2.0583 2.81,-1.0783 3.585,1.3394 1.196,3.7289 -1.159,1.1591 -1.508,2.1075 -0.775,2.1075 0.734,0 2.268,-0.9343 3.41,-2.0762 1.879,-1.8793 1.825,-2.3456 -0.571,-4.9181 -1.457,-1.563 -2.648,-3.4622 -2.648,-4.2204 0,-0.7583 0.962,-0.0048 2.138,1.6743 1.176,1.6791 2.908,2.7578 3.847,2.3972 0.94,-0.3606 2.953,0.2155 4.473,1.2803 3.341,2.3401 2.366,6.3894 -1.307,5.4289 -1.365,-0.357 -2.739,-0.2326 -3.054,0.2763 -1.208,1.9549 6.472,1.3894 8.716,-0.6417 2.065,-1.8683 2.84,-1.906 6.109,-0.297 3.325,1.6363 4.006,1.5769 6.078,-0.5303 1.283,-1.3053 2.333,-2.9733 2.333,-3.7066 0,-2.7391 2.493,-1.2021 3.784,2.3333 1.275,3.4925 1.344,3.5174 1.444,0.524 0.076,-2.2718 0.679,-2.9226 2.175,-2.3486 1.186,0.4554 1.722,0.2318 1.255,-0.524 -1.404,-2.2713 3.812,-1.4282 8.375,1.3536 5.126,3.1254 6.164,3.3007 5.237,0.8839 -0.375,-0.9778 0.161,-1.7778 1.191,-1.7778 1.167,0 1.873,1.4226 1.873,3.7778 0,2.0778 0.593,3.7778 1.317,3.7778 0.725,0 1.175,-1.35 1,-3 -0.281,-2.6588 0.307,-3.015 5.172,-3.132 4.927,-0.1184 5.42,0.1544 4.818,2.6667 -0.548,2.289 -0.346,2.4951 1.111,1.132 2.658,-2.4869 3.732,-2.0256 3.105,1.3333 -0.309,1.65 0.251,0.9 1.243,-1.6667 0.993,-2.5666 2.351,-4.7185 3.019,-4.7818 1.193,-0.1131 5.549,-1.7543 7.581,-2.8562 0.568,-0.3081 0.947,-0.0656 0.842,0.5389 -0.481,2.7707 0.328,2.8961 2.792,0.4325 1.466,-1.4667 3.416,-2.6193 4.333,-2.5614 1.148,0.0725 1.192,0.2998 0.142,0.7305 -1.405,0.576 -0.977,5.8309 0.474,5.8309 1.223,0 9.054,-4.6735 9.495,-5.6667 1.092,-2.4577 2.889,-0.6409 2.889,2.9213 0,2.1567 0.664,4.3319 1.476,4.8336 0.984,0.6078 1.189,0.0075 0.616,-1.7983 -0.676,-2.1303 0.051,-3.1651 3.395,-4.8336 4.972,-2.48 5.629,-2.595 4.513,-0.7897 -0.453,0.7334 -0.339,1.3242 0.255,1.3129 1.536,-0.029 5.329,-2.6011 3.872,-2.6258 -0.664,-0.0112 -0.102,-1.2416 1.249,-2.7341 1.463,-1.6163 3.299,-2.373 4.54,-1.8712 1.146,0.4634 2.684,0.9578 3.417,1.0987 3.393,0.652 6.195,3.312 7.266,6.8991 l 1.172,3.9204 0.114,-3.8093 c 0.088,-2.9026 0.617,-3.6167 2.224,-3 1.16,0.4451 2.695,0.8093 3.412,0.8093 0.717,0 0.88,0.75 0.362,1.6667 -0.753,1.3333 -0.582,1.3333 0.855,0 0.987,-0.9167 3.025,-1.7047 4.529,-1.7512 2.578,-0.0797 2.563,-0.1527 -0.267,-1.2904 -3.773,-1.5166 -3.92,-2.6161 -0.221,-1.6486 1.529,0.3998 3.099,1.5589 3.49,2.5759 0.548,1.4306 1.133,1.497 2.584,0.2931 1.517,-1.2588 1.705,-1.1128 0.984,0.7646 -0.773,2.0158 -0.547,2.1061 1.724,0.6878 1.438,-0.898 2.575,-2.8887 2.527,-4.4237 -0.11,-3.4986 3.078,-4.16 6.579,-1.3645 1.86,1.4853 2.16,2.3195 0.991,2.7572 -0.921,0.3452 -1.37,1.1203 -0.998,1.7227 0.372,0.6023 -0.674,0.8065 -2.325,0.4538 -2.77,-0.5918 -2.823,-0.4949 -0.689,1.2562 1.272,1.0436 2.022,2.2881 1.667,2.7656 -0.356,0.4775 -0.252,0.5734 0.231,0.2131 0.482,-0.3603 1.709,0.0352 2.726,0.8789 1.439,1.1942 2.254,0.97 3.681,-1.0115 5.203,-7.2282 5.456,-7.412 8.986,-6.5261 2.126,0.5337 3.801,2.0829 4.269,3.9489 0.424,1.6889 1.743,3.4437 2.931,3.8996 1.514,0.581 1.94,0.2553 1.424,-1.0888 -0.405,-1.0547 0.244,-2.7115 1.441,-3.6818 1.851,-1.5006 2.004,-1.4653 1.025,0.2359 -0.686,1.1901 0.113,0.9202 1.973,-0.6667 1.719,-1.4667 2.686,-1.9167 2.15,-1 -1.529,2.6159 2.924,2.0121 5.95,-0.8067 2.67,-2.4881 9.233,-2.4817 9.233,0.0091 0,0.6736 1.247,0.5577 2.77,-0.2577 1.736,-0.929 2.472,-2.2615 1.97,-3.5688 -0.653,-1.7006 -0.44,-1.7869 1.151,-0.467 2.501,2.0759 1.246,5.4245 -2.033,5.4245 -1.389,0 -2.524,0.6114 -2.524,1.3587 0,0.7661 1.599,1.0479 3.666,0.6462 2.749,-0.5341 3.021,-0.4311 1.089,0.4112 -1.782,0.7765 -2.091,1.4253 -1,2.0992 0.868,0.5365 1.578,0.5665 1.578,0.0668 0,-0.4998 0.75,-0.3093 1.667,0.4232 0.949,0.7586 2.814,0.8692 4.333,0.2569 1.467,-0.5911 1.917,-1.117 1,-1.1685 -0.917,-0.0516 -1.662,-0.8437 -1.656,-1.7604 0.013,-2.1709 7.135,-5.5621 7.758,-3.6942 0.249,0.7485 1.304,1.3609 2.342,1.3609 1.039,0 1.889,0.669 1.889,1.4866 0,0.9028 1.325,0.6189 3.373,-0.7229 3.079,-2.0178 3.556,-2.026 5.488,-0.0938 2.524,2.5238 5.212,1.9096 4.956,-1.1324 -0.11,-1.3181 0.415,-1.8003 1.334,-1.2236 2.66,1.6701 7.516,1.832 7.516,0.2506 0,-0.8396 1.18,-0.1102 2.622,1.6211 2.284,2.7413 2.628,2.8341 2.667,0.7191 0.05,-2.7592 3.303,-6.5354 4.552,-5.2857 0.454,0.454 0.826,-0.4746 0.826,-2.0635 0,-1.8301 0.83,-2.8889 2.266,-2.8889 1.763,0 1.911,0.3556 0.667,1.6 -2.236,2.2355 -1.997,4.1711 0.4,3.2512 1.23,-0.472 2,0.0025 2,1.2325 0,2.7778 2.89,3.6057 7.056,2.0217 2.285,-0.8686 3.798,-0.8801 4.322,-0.0327 0.444,0.7173 1.425,0.922 2.18,0.4548 0.849,-0.5246 0.802,0.2201 -0.122,1.9483 -1.22,2.2793 -1.144,2.6617 0.413,2.0644 2.081,-0.7985 4.013,-6.6064 2.833,-8.5158 -0.417,-0.6748 1.117,-0.6557 3.557,0.0443 2.825,0.81 4.583,0.7592 5.144,-0.1488 0.543,-0.8794 1.447,-0.6627 2.493,0.598 2.033,2.4493 8.803,4.0476 11.091,2.6184 2.214,-1.3829 5.204,-1.8254 4.487,-0.6641 -0.308,0.4977 0.853,1.5716 2.58,2.3865 2.539,1.1981 3.291,1.0875 3.93,-0.5782 0.602,-1.5699 1.16,-1.6896 2.346,-0.5034 1.754,1.7533 3.771,2.0711 3.532,0.5563 -0.458,-2.9008 0.43,-4.1472 2.825,-3.9668 1.631,0.1229 2.666,1.1567 2.666,2.6625 0,1.6448 0.553,2.1105 1.667,1.4034 1.957,-1.2428 2.557,-1.3783 7.079,-1.5991 2.24,-0.1095 3.081,-0.7024 2.448,-1.7266 -0.654,-1.0584 -0.229,-1.2776 1.324,-0.682 1.359,0.5215 1.957,0.3429 1.473,-0.4401 -0.448,-0.7249 -1.679,-1.318 -2.736,-1.318 -1.057,0 -1.921,-0.6 -1.921,-1.3334 0,-1.9655 3.522,-1.6204 5.701,0.5585 1.04,1.0405 3.633,2.0905 5.762,2.3334 2.333,0.2662 3.884,1.2355 3.905,2.4415 0.047,2.6798 1.798,5.3333 3.52,5.3333 0.768,0 1.052,-0.9 0.629,-2 -1.065,-2.7773 -0.205,-2.5096 3.767,1.1716 1.986,1.8405 3.102,4.0068 2.659,5.1613 -0.442,1.1519 0.169,2.3476 1.452,2.8396 1.218,0.4675 1.921,1.6164 1.561,2.553 -0.388,1.011 0.369,1.7031 1.862,1.7031 1.525,0 2.515,-0.9367 2.515,-2.381 0,-1.4199 -0.987,-2.3809 -2.444,-2.3809 -3.146,0 -4.221,-1.1207 -3.322,-3.4637 0.395,-1.0283 2.09,-1.8697 3.766,-1.8697 1.676,0 3.367,-0.832 3.758,-1.849 0.513,-1.3389 -0.091,-1.6537 -2.191,-1.1408 -1.595,0.3896 -3.65,1.2951 -4.567,2.0124 -0.917,0.7172 -1.667,0.8466 -1.667,0.2877 0,-0.559 0.98,-1.7324 2.177,-2.6077 2.004,-1.4659 1.99,-1.8749 -0.181,-5.1886 -1.296,-1.9784 -1.943,-4.0111 -1.437,-4.5169 0.506,-0.5059 1.337,-0.2958 1.847,0.4668 0.51,0.7627 3.928,2.8427 7.594,4.6222 5.551,2.694 6.152,3.3095 3.59,3.6775 -5.082,0.7301 -2.508,3.3784 3.487,3.5874 6.749,0.2353 8.518,1.5313 3.73,2.733 -2.179,0.5469 -4.332,0.1966 -5.683,-0.9246 -1.927,-1.5992 -2.067,-1.4641 -1.226,1.1844 0.74,2.3328 0.416,3.0127 -1.475,3.0948 -1.332,0.0579 -1.706,0.3967 -0.831,0.7529 0.876,0.3561 1.258,1.5164 0.851,2.5783 -0.408,1.062 -0.041,2.7748 0.815,3.8063 1.216,1.4641 1.084,2.1402 -0.601,3.0831 -1.954,1.0932 -1.961,1.372 -0.074,2.9376 1.146,0.9514 2.084,2.6298 2.084,3.7298 0,1.3477 0.564,1.6206 1.729,0.8367 0.952,-0.6398 0.709,-0.2134 -0.539,0.9475 -2.745,2.5536 -2.864,9.8293 -0.123,7.5562 1.275,-1.0575 2.321,-0.8509 3.952,0.7809 1.845,1.8451 1.89,2.2454 0.267,2.3767 -1.074,0.0868 -2.403,0.0868 -2.953,0 -0.55,-0.0868 -1,0.7421 -1,1.8421 0,1.1 -0.621,2 -1.38,2 -0.933,0 -0.914,0.8712 0.057,2.6857 0.791,1.4771 0.962,2.6061 0.38,2.5088 -2.802,-0.4691 -4.972,0.2355 -3.57,1.1593 2.2,1.4494 3.672,6.9796 1.858,6.9796 -0.826,0 -1.157,-0.5586 -0.735,-1.2413 0.422,-0.6826 0.105,-1.6504 -0.704,-2.1505 -0.977,-0.6038 -1.331,0.4294 -1.054,3.0745 0.23,2.1911 -0.272,4.816 -1.117,5.8331 -0.844,1.017 -1.729,3.642 -1.968,5.833 -0.238,2.192 -1.033,4.425 -1.767,4.964 -0.733,0.539 0.317,0.989 2.334,1 4.32,0.024 4.856,2.831 1.231,6.456 -4.624,4.624 -4.831,9.335 -0.229,5.231 1.565,-1.396 1.61,-1.321 0.278,0.456 -0.875,1.168 -1.21,2.504 -0.745,2.969 0.466,0.465 -0.14,1.224 -1.345,1.686 -1.205,0.463 -2.19,2.242 -2.19,3.953 0,1.712 -0.61,3.489 -1.355,3.95 -0.746,0.46 -1.086,1.273 -0.757,1.806 0.765,1.237 -4.743,1.138 -6.695,-0.121 -0.962,-0.62 -1.425,0.365 -1.333,2.836 0.09,2.431 0.733,3.56 1.798,3.153 0.912,-0.348 2.207,0.78 2.877,2.506 0.916,2.357 0.688,3.555 -0.913,4.806 -3.196,2.498 -4.289,2.064 -5.813,-2.307 -1.19,-3.414 -1.649,-3.71 -3.26,-2.099 -1.031,1.031 -1.55,2.721 -1.153,3.755 0.842,2.197 -2.156,2.135 -7.817,-0.16 -4.853,-1.968 -5.388,-1.918 -3.306,0.311 0.942,1.008 2.412,1.565 3.266,1.237 0.854,-0.328 1.958,0.679 2.452,2.237 0.69,2.174 1.311,2.491 2.669,1.365 1.289,-1.07 2.018,-1.065 2.688,0.02 0.534,0.863 -0.256,1.795 -1.881,2.22 -3.085,0.807 -3.34,1.505 -1.571,4.298 0.718,1.135 0.625,3.113 -0.235,5 -2.102,4.615 -3.531,3.791 -2.368,-1.365 1.086,-4.817 -0.563,-9.454 -2.858,-8.036 -0.77,0.476 -1.924,0.039 -2.564,-0.972 -0.828,-1.306 -1.17,-0.778 -1.184,1.83 -0.015,2.561 0.683,3.706 2.313,3.799 1.505,0.086 1.15,0.481 -1,1.112 -2.376,0.699 -4.483,0.197 -7.334,-1.747 -2.769,-1.888 -3.467,-2.062 -2.268,-0.564 1.989,2.484 0.293,4.17 -2.945,2.928 -1.166,-0.448 -2.12,-0.15 -2.12,0.662 0,0.812 -0.674,1.476 -1.497,1.476 -1.039,0 -0.993,-0.606 0.151,-1.984 1.33,-1.604 1.246,-2.138 -0.44,-2.785 -1.148,-0.44 -2.808,-0.355 -3.69,0.19 -1.016,0.628 -1.254,0.427 -0.651,-0.548 0.523,-0.847 0.28,-1.54 -0.54,-1.54 -0.82,0 -1.071,-0.677 -0.559,-1.506 0.586,-0.949 0.246,-1.196 -0.922,-0.667 -1.019,0.461 -2.936,1.218 -4.261,1.681 -1.332,0.466 -2.096,1.658 -1.708,2.668 1.356,3.535 -4.202,1.836 -9.315,-2.848 -3.364,-3.081 -5.915,-4.413 -7.493,-3.912 -1.848,0.586 -2.191,0.235 -1.507,-1.547 0.654,-1.703 0.418,-2.017 -0.901,-1.202 -1.306,0.807 -1.558,0.507 -0.935,-1.114 0.468,-1.221 0.555,-2.219 0.193,-2.219 -0.362,0 -1.265,1.597 -2.008,3.55 -1.026,2.699 -1.722,3.179 -2.9,2 -2.301,-2.301 -5.451,-1.939 -4.508,0.519 0.455,1.187 0.232,1.722 -0.524,1.255 -0.725,-0.448 -1.318,-1.981 -1.318,-3.407 0,-2.41 -0.304,-2.463 -4.334,-0.764 -2.383,1.005 -4.168,2.552 -3.967,3.436 0.202,0.885 -0.273,1.214 -1.054,0.731 -0.781,-0.483 -1.056,-2.027 -0.61,-3.432 0.722,-2.275 0.06,-2.835 -2.886,-2.441 -0.468,0.063 -1.393,-0.687 -2.056,-1.667 -0.967,-1.429 -1.162,-1.386 -0.991,0.22 0.424,3.97 -0.136,5.236 -2,4.521 -1.073,-0.411 -2.514,0.424 -3.316,1.922 -0.955,1.785 -2.403,2.466 -4.436,2.088 -1.659,-0.308 -2.267,-0.204 -1.35,0.232 0.916,0.436 1.666,1.586 1.666,2.556 0,1.403 -0.679,1.448 -3.323,0.222 -1.827,-0.848 -3.327,-1.991 -3.333,-2.541 -0.005,-0.55 -0.827,-1 -1.825,-1 -1.238,0 -1.604,-1.107 -1.151,-3.478 0.612,-3.2 0.437,-3.357 -2.185,-1.954 -1.567,0.839 -2.849,1.84 -2.849,2.224 0,0.384 0.563,0.35 1.252,-0.076 0.689,-0.425 1.209,0.289 1.156,1.588 -0.054,1.3 0.317,3.335 0.824,4.524 0.583,1.368 0.159,2.453 -1.156,2.958 -1.505,0.578 -2.076,-0.039 -2.076,-2.24 0,-4.168 -3.231,-8.537 -4.634,-6.266 -0.605,0.979 -0.272,2.172 0.796,2.848 1.267,0.803 0.492,1.171 -2.496,1.185 -6.456,0.03 -6.378,0.086 -6.846,-4.98 -0.084,-0.917 -1.804,-1.639 -3.82,-1.606 l -3.667,0.06 4,1.831 c 2.748,1.258 3.245,1.866 1.588,1.94 -1.47,0.066 -2.04,0.71 -1.461,1.648 0.592,0.957 0.366,1.177 -0.598,0.581 -1.741,-1.076 -4.292,1.076 -6.775,5.717 -1.12,2.092 -2.109,2.674 -3.011,1.772 -0.902,-0.902 -0.423,-2.263 1.457,-4.143 4.139,-4.139 3.71,-8.144 -0.867,-8.091 -3.09,0.036 -3.352,0.298 -1.666,1.667 2.346,1.906 3.371,6.291 1.47,6.291 -0.722,0 -1.709,-0.641 -2.193,-1.424 -0.484,-0.784 -1.759,-1.088 -2.833,-0.676 -1.486,0.571 -1.751,0.035 -1.111,-2.242 0.59,-2.097 0.465,-2.448 -0.418,-1.174 -1.063,1.534 -1.383,1.534 -2.053,0 -0.437,-1 -0.66,-0.318 -0.495,1.516 0.165,1.833 1.123,3.667 2.129,4.075 1.481,0.6 1.402,1.17 -0.418,2.989 -1.237,1.237 -1.847,2.898 -1.357,3.691 0.49,0.793 -0.372,0.653 -1.915,-0.311 -1.544,-0.964 -2.806,-2.508 -2.806,-3.432 0,-2.14 -1.631,-2.145 -3.929,-0.012 -1.438,1.334 -1.607,1.333 -0.849,-0.009 0.547,-0.968 0.066,-2.013 -1.138,-2.476 -1.146,-0.44 -2.084,-2.236 -2.084,-3.991 0,-1.77 -0.792,-3.191 -1.778,-3.191 -3.043,0 -3.617,1.66 -1.202,3.471 2.148,1.61 2.055,1.976 -1.295,5.132 -4.333,4.079 -8.445,4.368 -10.392,0.731 -0.785,-1.467 -2.306,-2.667 -3.38,-2.667 -1.074,0 -1.953,-0.626 -1.953,-1.392 0,-0.765 -1.05,-1.215 -2.334,-1 -1.303,0.219 -2.186,-0.343 -2,-1.275 0.474,-2.37 -1.049,-2.061 -3.285,0.667 -1.052,1.283 -1.533,1.583 -1.068,0.667 0.916,-1.809 -0.545,-2.134 -3.863,-0.861 -1.156,0.444 -1.764,1.354 -1.351,2.022 0.414,0.669 1.31,0.87 1.993,0.449 0.682,-0.422 1.241,0.132 1.241,1.232 0,1.1 -0.693,2.429 -1.539,2.952 -1.001,0.618 -1.176,0.362 -0.5,-0.731 0.758,-1.227 0.303,-1.449 -1.682,-0.818 -1.621,0.514 -3.159,0.168 -3.805,-0.858 -0.742,-1.177 -1.327,-0.458 -1.853,2.279 -0.508,2.642 -1.423,3.815 -2.695,3.455 -1.059,-0.301 -3.156,-0.641 -4.66,-0.757 -1.504,-0.116 -3.556,-0.719 -4.56,-1.34 -1.343,-0.83 -1.605,-0.553 -0.991,1.048 0.459,1.197 0.26,2.531 -0.442,2.965 -1.724,1.066 -9.366,-7.451 -8.315,-9.266 0.459,-0.791 -0.469,-0.295 -2.062,1.102 -1.593,1.397 -2.896,2.074 -2.896,1.504 0,-0.571 -0.9,-0.29 -2,0.623 -1.1,0.913 -2,2.751 -2,4.084 0,3.632 -2.821,4.666 -4.915,1.802 -1.153,-1.577 -1.327,-2.694 -0.464,-2.982 0.758,-0.253 1.379,-1.276 1.379,-2.273 0,-0.997 1.333,-2.747 2.963,-3.889 2.935,-2.056 2.921,-2.076 -1.489,-2.076 -3.738,0 -4.344,0.412 -3.78,2.567 0.448,1.713 0.105,2.35 -1.031,1.914 -0.936,-0.359 -1.42,-1.731 -1.075,-3.049 0.381,-1.455 -0.275,-2.743 -1.669,-3.278 -2.015,-0.774 -2.069,-0.606 -0.441,1.366 1.441,1.746 1.483,2.373 0.189,2.808 -0.917,0.309 -1.667,1.411 -1.667,2.45 0,1.039 -0.9,1.889 -2,1.889 -1.1,0 -2,0.9 -2,2 0,1.1 -0.581,2 -1.292,2 -0.71,0 -0.906,-1.004 -0.435,-2.231 0.666,-1.736 0.323,-2.027 -1.544,-1.311 -1.542,0.592 -2.988,0.119 -4.043,-1.324 -1.815,-2.481 -7.353,-3.863 -7.353,-1.834 0,1.537 -4.228,0.156 -5.722,-1.869 -0.621,-0.842 -0.895,-0.367 -0.667,1.154 0.325,2.158 -0.49,2.625 -4.944,2.835 -2.933,0.138 -6.233,-0.504 -7.333,-1.427 -1.1,-0.923 -3.5,-2.043 -5.334,-2.49 -1.833,-0.446 -2.583,-0.467 -1.666,-0.046 1.904,0.874 2.303,8.543 0.444,8.543 -0.672,0 -1.445,-0.669 -1.717,-1.486 -0.765,-2.295 -7.727,-2.653 -7.727,-0.396 0,1.035 -0.587,1.882 -1.303,1.882 -2.102,0 -5.495,-6.107 -4.637,-8.344 1.22,-3.177 -1.1,-3.601 -4.045,-0.739 -2.217,2.155 -2.271,2.431 -0.333,1.687 1.341,-0.514 2.318,-0.267 2.318,0.587 0,0.812 -0.889,1.476 -1.975,1.476 -1.086,0 -2.328,1.409 -2.76,3.13 -0.618,2.463 -1.477,2.999 -4.026,2.512 -3.383,-0.647 -4.197,-2.226 -1.884,-3.656 0.745,-0.46 1.007,-1.4 0.582,-2.088 -0.425,-0.688 0.165,-1.61 1.311,-2.05 1.147,-0.44 2.085,-2.309 2.085,-4.154 0,-2.819 -0.317,-3.091 -1.985,-1.706 -1.092,0.906 -1.682,2.138 -1.312,2.737 0.371,0.6 0.064,1.467 -0.681,1.928 -0.746,0.461 -1.365,0.052 -1.376,-0.908 -0.015,-1.304 -0.33,-1.255 -1.245,0.191 -0.674,1.065 -0.991,2.315 -0.705,2.778 0.286,0.463 -0.251,0.841 -1.194,0.841 -1.05,0 -1.495,-1.143 -1.15,-2.951 0.43,-2.246 -0.415,-3.44 -3.535,-4.996 l -4.1,-2.046 1.975,3.82 c 1.086,2.1 1.956,5.498 1.933,7.552 l -0.043,3.732 -3.154,-3.581 c -1.734,-1.97 -3.515,-3.22 -3.958,-2.778 -0.442,0.442 -0.803,0.104 -0.803,-0.752 0,-0.855 -0.581,-1.555 -1.292,-1.555 -0.71,0 -0.946,0.9 -0.524,2 0.422,1.1 0.145,2 -0.616,2 -2.172,0 -2.465,-5.837 -0.375,-7.465 1.034,-0.805 1.435,-2.185 0.891,-3.066 -0.71,-1.149 -1.676,-0.81 -3.418,1.197 -1.526,1.76 -2.753,2.272 -3.306,1.378 -0.483,-0.782 -1.476,-1.052 -2.206,-0.6 -0.81,0.5 -0.509,1.725 0.77,3.138 1.916,2.118 1.877,2.518 -0.448,4.622 -1.812,1.64 -2.818,1.86 -3.494,0.766 -0.523,-0.845 -2.119,-1.23 -3.548,-0.857 -3.238,0.847 -4.768,-2.539 -2.667,-5.903 1.223,-1.959 1.069,-2.7 -0.79,-3.783 -1.271,-0.74 -1.596,-1.364 -0.723,-1.387 0.874,-0.022 1.959,0.56 2.412,1.293 1.058,1.711 4.667,1.74 4.667,0.038 0,-1.915 -8.563,-3.936 -9.097,-2.147 -0.237,0.793 -1.078,2.772 -1.868,4.397 -1.08,2.22 -1,3.481 0.321,5.073 1.487,1.792 1.313,2.563 -1.132,5.008 l -2.891,2.89 v -2.963 c 0,-1.629 -0.471,-2.963 -1.047,-2.963 -0.576,0 -1.048,-1.156 -1.048,-2.568 0,-1.413 0.43,-2.303 0.956,-1.979 0.525,0.325 1.332,-0.019 1.793,-0.764 0.46,-0.745 -0.098,-1.355 -1.242,-1.355 -1.143,0 -2.097,-0.75 -2.119,-1.667 -0.022,-0.925 -0.645,-0.628 -1.399,0.667 -1.566,2.688 -5.227,3.146 -5.227,0.654 0,-2.54 -4.976,-5.311 -6.144,-3.421 -0.514,0.832 -0.392,1.182 0.271,0.779 0.664,-0.403 1.98,0.105 2.926,1.128 0.992,1.073 1.133,1.86 0.333,1.86 -0.762,0 -1.386,0.879 -1.386,1.953 0,2.654 -4.33,4.824 -6.701,3.359 -1.572,-0.972 -1.504,-1.317 0.405,-2.05 2.513,-0.964 3.199,-5.929 0.82,-5.929 -0.812,0 -1.122,0.923 -0.689,2.051 0.469,1.223 -0.114,2.395 -1.444,2.906 -1.239,0.475 -2.466,0.153 -2.758,-0.725 -0.29,-0.87 -1.178,-1.18 -1.973,-0.688 -0.903,0.558 -1.145,0.107 -0.643,-1.199 0.708,-1.845 0.391,-1.88 -2.677,-0.288 -3.133,1.625 -3.725,1.523 -5.937,-1.028 l -2.457,-2.833 -1.599,4.236 c -1.915,5.074 -3.68,5.506 -3.68,0.901 0,-3.772 -1.557,-4.253 -4.439,-1.37 -1.65,1.649 -2.204,1.673 -3.47,0.148 -2.199,-2.65 -7.82,-3.377 -9.593,-1.241 -0.997,1.201 -2.046,1.392 -3.053,0.556 -1.765,-1.465 -4.036,-0.328 -5.14,2.574 -0.607,1.593 -0.783,1.525 -0.867,-0.333 -0.058,-1.284 -0.555,-2.41 -1.105,-2.504 -5.102,-0.868 -7,-0.57 -7,1.098 0,1.043 0.6,1.526 1.333,1.072 0.734,-0.453 1.334,0.076 1.334,1.176 0,2.54 -2.213,3.972 -3.334,2.158 -0.468,-0.758 -1.44,-1.013 -2.16,-0.568 -1.323,0.818 -8.048,-5.446 -6.987,-6.507 0.315,-0.315 -0.893,-0.293 -2.686,0.05 -1.792,0.342 -3.563,1.787 -3.935,3.21 -0.547,2.091 -1.402,2.414 -4.454,1.684 -2.078,-0.497 -4.558,-1.52 -5.512,-2.272 -1.293,-1.021 -1.933,-0.606 -2.518,1.629 -0.556,2.127 -1.089,2.507 -1.831,1.305 -0.843,-1.363 -1.456,-1.354 -3.148,0.051 -1.156,0.959 -2.177,1.371 -2.269,0.914 -0.091,-0.456 -0.316,-1.43 -0.5,-2.163 -0.183,-0.733 -0.408,-2.353 -0.5,-3.6 -0.116,-1.58 -0.589,-1.843 -1.563,-0.869 -0.974,0.974 -0.909,2.469 0.216,4.938 0.888,1.948 1.245,3.911 0.794,4.362 -0.954,0.954 -5.081,-2.841 -4.813,-4.426 0.497,-2.931 -0.329,-3.323 -2.091,-0.993 -1.077,1.423 -1.977,1.857 -2,0.963 -0.024,-0.893 -0.943,-1.279 -2.043,-0.857 -1.788,0.686 -2.635,-0.826 -2.158,-3.851 0.221,-1.397 -2.194,-1.254 -3.082,0.182 -0.401,0.65 0.163,1.924 1.255,2.83 2.195,1.821 2.775,5.967 0.652,4.654 -0.733,-0.453 -1.333,-0.147 -1.333,0.681 0,0.828 -1.35,1.302 -3,1.055 -1.7,-0.255 -3.981,0.625 -5.263,2.03 -2.584,2.832 -5.071,1.948 -5.071,-1.802 0,-1.849 -0.621,-2.308 -2.266,-1.677 -1.417,0.544 -1.667,1.069 -0.666,1.402 1.972,0.658 2.141,6.978 0.187,6.978 -0.777,0 -0.978,0.702 -0.448,1.56 0.677,1.095 0.203,1.257 -1.588,0.544 -3.904,-1.553 -8.552,-1.872 -8.552,-0.587 0,0.632 1.186,1.15 2.636,1.15 1.45,0 3.619,1.5 4.82,3.333 1.201,1.833 2.945,3.333 3.875,3.333 0.93,0 2.014,1.235 2.409,2.743 0.557,2.132 0.332,2.424 -1.009,1.311 -0.95,-0.788 -2.799,-1.021 -4.11,-0.518 -1.962,0.753 -2.245,0.386 -1.602,-2.072 0.716,-2.737 0.368,-2.957 -4.156,-2.63 -2.716,0.196 -5.629,-0.071 -6.475,-0.594 -0.845,-0.522 -1.971,-0.247 -2.502,0.611 -0.605,0.979 -0.387,1.204 0.584,0.604 2.552,-1.577 3.265,2.855 0.982,6.114 -1.165,1.663 -2.119,2.256 -2.119,1.316 0,-0.94 -0.6,-1.338 -1.333,-0.885 -0.733,0.454 -1.333,0.239 -1.333,-0.477 0,-0.715 0.75,-1.603 1.666,-1.973 1.277,-0.515 1.256,-0.697 -0.087,-0.778 -0.965,-0.058 -2.924,0.521 -4.353,1.285 -1.429,0.765 -2.439,0.915 -2.245,0.334 0.193,-0.582 -0.248,-1.057 -0.981,-1.057 -0.734,0 -1.334,1.2 -1.334,2.666 0,1.467 -0.45,2.817 -1,3 -2.862,0.955 -3.922,0.047 -3.363,-2.878 0.421,-2.203 0.088,-3.01 -1.062,-2.569 -0.921,0.354 -1.877,-0.408 -2.125,-1.693 -0.403,-2.091 -0.662,-2.123 -2.479,-0.307 -1.332,1.333 -2.934,1.675 -4.666,0.999 -3.661,-1.43 -4.926,-1.43 -4.042,0.001 0.415,0.67 0,1.525 -0.921,1.898 -1.269,0.514 -1.192,1.014 0.314,2.058 1.584,1.099 1.652,1.717 0.333,3.035 -1.318,1.319 -1.655,1.307 -1.655,-0.055 0,-0.941 -0.745,-1.463 -1.655,-1.16 -0.91,0.304 -2.459,-0.252 -3.441,-1.234 -1.906,-1.906 -4.801,-1.085 -3.514,0.997 0.694,1.123 -0.285,1.477 -3.057,1.108 -0.55,-0.073 -0.835,-0.718 -0.634,-1.433 0.202,-0.714 -0.35,-0.856 -1.226,-0.314 -1.062,0.656 -1.329,0.297 -0.802,-1.079 0.638,-1.662 -0.29,-2.055 -4.773,-2.024 -3.061,0.022 -4.424,0.313 -3.029,0.648 1.395,0.335 3.795,1.835 5.333,3.335 1.539,1.499 2.048,2.302 1.131,1.784 -1.105,-0.624 -1.667,0.011 -1.667,1.883 0,1.553 -0.593,2.457 -1.318,2.009 -0.736,-0.454 -0.99,0.04 -0.575,1.12 0.408,1.064 0.101,2.331 -0.682,2.815 -0.784,0.484 -1.425,-0.012 -1.425,-1.103 0,-3.326 -3.91,-6.357 -6.4021,-4.962 -1.307,0.731 -3.1005,0.744 -4.4322,0.031 -1.7755,-0.95 -2.1063,-0.698 -1.6037,1.224 0.6251,2.391 -0.5882,2.965 -5.895,2.789 -7.1583,-0.237 -10.9113,-0.723 -11.7034,-1.515 -0.4898,-0.49 -1.6713,-0.591 -2.6254,-0.225 -0.9541,0.366 -2.1489,-0.004 -2.655,-0.823 -0.5756,-0.932 -1.5001,-1.031 -2.4682,-0.265 -0.8514,0.673 -3.798,1.949 -6.548,2.835 -5.0556,1.628 -5.6545,2.842 -5.0688,10.276 0.2741,3.48 -2.3044,5.444 -3.3997,2.589 z m 2.1352,-12.795 c 0,-2.89 -3.2431,-3.637 -4.8067,-1.107 -0.6422,1.039 -0.2459,1.285 1.1867,0.735 1.5103,-0.58 1.93,-0.25 1.4094,1.107 -0.4078,1.062 -0.0772,1.932 0.7346,1.932 0.8118,0 1.476,-1.2 1.476,-2.667 z M 80,188.705 c 0,-0.734 -0.6,-0.963 -1.3333,-0.51 -0.7334,0.454 -1.3334,1.425 -1.3334,2.158 0,0.733 0.6,0.962 1.3334,0.509 C 79.4,190.409 80,189.438 80,188.705 Z m -15.2981,-0.919 c -0.4105,-0.41 -1.4863,-0.001 -2.3908,0.911 -1.307,1.317 -1.1539,1.47 0.7464,0.746 1.315,-0.501 2.055,-1.246 1.6444,-1.657 z m 3.7803,-6.257 c 0.4221,-1.1 0.2051,-2 -0.4822,-2 -0.6873,0 -0.8665,-0.999 -0.3982,-2.219 0.594,-1.548 0.3524,-1.91 -0.7994,-1.198 -0.908,0.561 -1.2896,1.961 -0.8481,3.112 0.4415,1.15 0.0324,2.58 -0.9091,3.178 -1.2833,0.814 -1.1634,1.091 0.4788,1.106 1.2049,0.011 2.5361,-0.879 2.9582,-1.979 z M 132,176.862 c 0,-0.733 -1.05,-1.342 -2.333,-1.354 -1.818,-0.015 -1.934,-0.273 -0.525,-1.166 1.167,-0.739 1.318,-1.45 0.426,-2.002 -2.552,-1.577 -3.35,2.23 -0.85,4.058 2.941,2.151 3.282,2.199 3.282,0.464 z m 23.157,-3.714 c 0.356,-0.576 -0.465,-1.048 -1.824,-1.048 -1.359,0 -2.179,0.472 -1.823,1.048 0.356,0.576 1.177,1.047 1.823,1.047 0.647,0 1.468,-0.471 1.824,-1.047 z M 29.1996,167.195 C 27.0261,163.018 27,163.013 27,166.807 c 0,2.027 0.7553,3.388 1.8802,3.388 1.5235,0 1.5841,-0.569 0.3194,-3 z M 476,161.89 c 0,-0.781 -0.847,-0.651 -2,0.305 -1.1,0.913 -2,1.868 -2,2.122 0,0.254 0.9,0.116 2,-0.306 1.1,-0.422 2,-1.377 2,-2.121 z m -9.602,-2.633 c 0.231,-1.188 -0.831,-2.371 -2.526,-2.815 -2.069,-0.541 -2.508,-0.349 -1.502,0.657 0.782,0.782 1.073,2.33 0.647,3.441 -0.514,1.338 -0.141,1.808 1.104,1.394 1.033,-0.345 2.058,-1.549 2.277,-2.677 z m 14.212,1.697 c 0.422,-0.682 0.157,-1.618 -0.588,-2.078 -0.746,-0.461 -1.355,0.097 -1.355,1.241 0,2.342 0.8,2.687 1.943,0.837 z M 408,158.862 c 0,-1.1 -0.581,-2 -1.292,-2 -0.71,0 -0.946,0.9 -0.524,2 0.423,1.1 1.004,2 1.292,2 0.288,0 0.524,-0.9 0.524,-2 z m 24.766,-0.506 c -0.998,-1.615 -6.099,-2.838 -6.099,-1.462 0,0.614 1.35,1.376 3,1.694 1.65,0.318 3.185,0.659 3.412,0.759 0.226,0.1 0.086,-0.346 -0.313,-0.991 z m -30.753,-2.805 c -0.383,-0.62 -0.078,-1.434 0.679,-1.808 0.756,-0.375 0.61,-0.526 -0.325,-0.337 -0.935,0.189 -1.908,1.415 -2.162,2.725 -0.287,1.481 0.099,2.034 1.022,1.464 0.816,-0.505 1.17,-1.424 0.786,-2.044 z m 74.654,1.311 c 0.453,-0.733 0.188,-1.333 -0.588,-1.333 -0.777,0 -1.412,0.6 -1.412,1.333 0,0.733 0.264,1.333 0.588,1.333 0.323,0 0.958,-0.6 1.412,-1.333 z M 336,156.274 c 0,-0.323 -0.6,-0.959 -1.333,-1.412 -0.734,-0.453 -1.334,-0.189 -1.334,0.588 0,0.777 0.6,1.412 1.334,1.412 0.733,0 1.333,-0.264 1.333,-0.588 z m 82.667,-0.745 c 0,-0.734 -0.265,-1.334 -0.588,-1.334 -0.324,0 -0.959,0.6 -1.412,1.334 -0.454,0.733 -0.189,1.333 0.588,1.333 0.776,0 1.412,-0.6 1.412,-1.333 z M 528,154.862 c 0,-1.1 -0.5,-2 -1.111,-2 -0.611,0 -1.111,0.9 -1.111,2 0,1.1 0.5,2 1.111,2 0.611,0 1.111,-0.9 1.111,-2 z m -146.306,-2.173 c -0.804,-0.803 -2.224,-0.99 -3.156,-0.414 -1.252,0.773 -1.021,1.292 0.884,1.983 3.157,1.146 4.239,0.399 2.272,-1.569 z m 125.639,1.506 c 0.454,-0.733 0.189,-1.333 -0.588,-1.333 -0.776,0 -1.412,0.6 -1.412,1.333 0,0.734 0.265,1.334 0.588,1.334 0.324,0 0.959,-0.6 1.412,-1.334 z m 74.482,-0.666 c 0.423,-1.1 0.187,-2 -0.524,-2 -0.71,0 -1.291,0.9 -1.291,2 0,1.1 0.236,2 0.524,2 0.288,0 0.869,-0.9 1.291,-2 z m -243.571,-3.584 c -0.425,-1.063 -0.741,-0.747 -0.805,0.806 -0.058,1.406 0.257,2.193 0.7,1.75 0.443,-0.443 0.49,-1.593 0.105,-2.556 z m 251.089,0.25 c 0,-2.76 -3.216,-3.679 -4.666,-1.333 -0.454,0.733 0.146,1.333 1.333,1.333 1.187,0 1.787,0.6 1.333,1.334 -0.453,0.733 -0.188,1.333 0.588,1.333 0.777,0 1.412,-1.2 1.412,-2.667 z m 46.132,1.647 c 1.578,-1.056 2.007,-5.647 0.527,-5.647 -0.494,0 -1.581,1.5 -2.416,3.334 -1.521,3.337 -0.858,4.149 1.889,2.313 z m 14.57,-1.389 c -0.41,-0.411 -1.486,-0.001 -2.391,0.91 -1.307,1.317 -1.153,1.47 0.747,0.747 1.315,-0.501 2.055,-1.247 1.644,-1.657 z m -633.3841,-3.28 c -1.2013,-0.672 -2.5392,-0.867 -2.9731,-0.433 -0.4339,0.434 -0.1077,0.789 0.7248,0.789 0.8859,0 1.151,0.968 0.6392,2.333 -0.7771,2.074 -0.6147,2.122 1.4595,0.434 2.1425,-1.744 2.1548,-2 0.1496,-3.123 z M 302,150.195 c 2.571,-1.104 2.562,-1.149 -0.255,-1.239 -1.606,-0.052 -3.292,0.506 -3.745,1.239 -0.975,1.577 0.33,1.577 4,0 z m -10,-1.333 c 0,-0.733 -0.265,-1.333 -0.588,-1.333 -0.323,0 -0.959,0.6 -1.412,1.333 -0.453,0.733 -0.189,1.333 0.588,1.333 0.777,0 1.412,-0.6 1.412,-1.333 z m 206,0 c 0.453,-0.733 -0.147,-1.333 -1.333,-1.333 -1.187,0 -1.787,0.6 -1.334,1.333 0.454,0.733 1.054,1.333 1.334,1.333 0.28,0 0.88,-0.6 1.333,-1.333 z m 83.333,0 c 0,-0.733 -0.264,-1.333 -0.588,-1.333 -0.323,0 -0.958,0.6 -1.412,1.333 -0.453,0.733 -0.188,1.333 0.588,1.333 0.777,0 1.412,-0.6 1.412,-1.333 z m 110.244,-2.917 c -0.425,-1.063 -0.741,-0.747 -0.805,0.806 -0.058,1.406 0.257,2.193 0.7,1.75 0.443,-0.443 0.491,-1.593 0.105,-2.556 z M 200,144.862 c 0,-0.733 -0.635,-1.333 -1.412,-1.333 -0.777,0 -1.041,0.6 -0.588,1.333 0.453,0.733 1.089,1.333 1.412,1.333 0.323,0 0.588,-0.6 0.588,-1.333 z m 491.744,-16.1 c -0.262,-0.788 -1.047,-1.433 -1.744,-1.433 -0.697,0 -1.482,0.645 -1.744,1.433 -0.263,0.788 0.522,1.433 1.744,1.433 1.222,0 2.007,-0.645 1.744,-1.433 z m 3.383,-1.957 c -0.435,-1.132 -1.076,-1.772 -1.425,-1.422 -0.35,0.349 -0.24,1.275 0.243,2.057 1.315,2.127 2.083,1.714 1.182,-0.635 z m -1.794,-6.531 c 0,-0.323 -0.6,-0.959 -1.333,-1.412 -0.733,-0.453 -1.333,-0.189 -1.333,0.588 0,0.777 0.6,1.412 1.333,1.412 0.733,0 1.333,-0.264 1.333,-0.588 z M 22.3056,100.057 c -0.4431,-0.4435 -1.5931,-0.4909 -2.5556,-0.1057 -1.0636,0.4257 -0.7477,0.7417 0.8056,0.8057 1.4055,0.058 2.193,-0.257 1.75,-0.7 z M 18.8321,87.1732 c -1.3168,-1.307 -1.47,-1.1538 -0.7464,0.7464 0.5007,1.315 1.2463,2.055 1.6568,1.6445 0.4105,-0.4105 8e-4,-1.4864 -0.9104,-2.3909 z M 18,79.5288 c 0.4532,-0.7333 0.2326,-1.3333 -0.4902,-1.3333 -0.7229,0 -1.5887,-1.05 -1.924,-2.3334 -0.3752,-1.4355 -0.6693,-0.9225 -0.7645,1.3334 -0.1531,3.6296 1.5878,4.9075 3.1787,2.3333 z m 686.234,-1.9884 c 0.36,0.3603 0.655,-0.2125 0.655,-1.2729 0,-1.4564 -0.598,-1.608 -2.445,-0.6198 -1.344,0.7195 -2.444,1.9606 -2.444,2.7579 0,1.0265 0.522,1.0162 1.789,-0.0353 0.984,-0.8168 2.084,-1.1903 2.445,-0.83 z M 6.66667,64.2741 c 0,-0.3233 -0.6,-0.9588 -1.33334,-1.412 C 4.6,62.4089 4,62.6735 4,63.4501 c 0,0.7766 0.6,1.412 1.33333,1.412 0.73334,0 1.33334,-0.2646 1.33334,-0.588 z M 702.035,53.1196 c -0.41,-0.4105 -1.486,-8e-4 -2.391,0.9104 -1.307,1.3168 -1.153,1.47 0.747,0.7464 1.315,-0.5007 2.055,-1.2463 1.644,-1.6568 z M 411.053,44.8621 c -0.384,-1.4666 -0.927,-2.6666 -1.209,-2.6666 -0.281,0 -0.511,1.2 -0.511,2.6666 0,1.4667 0.544,2.6667 1.209,2.6667 0.665,0 0.895,-1.2 0.511,-2.6667 z m 145.505,-1.8015 c -0.46,-1.2007 -1.404,-1.8332 -2.096,-1.4055 -0.75,0.4637 -0.617,1.5504 0.33,2.6913 1.95,2.3502 2.897,1.6611 1.766,-1.2858 z m -299.225,1.2135 c 0,-0.3233 -0.6,-0.9588 -1.333,-1.412 -0.733,-0.4532 -1.333,-0.1886 -1.333,0.588 0,0.7766 0.6,1.412 1.333,1.412 0.733,0 1.333,-0.2646 1.333,-0.588 z m 12,0 c 0,-1.4073 -2.558,-1.9985 -3.32,-0.7671 -0.46,0.7453 0.098,1.3551 1.242,1.3551 1.143,0 2.078,-0.2646 2.078,-0.588 z m 321.519,-1.9794 c 1.49,0.7976 3.01,1.1501 3.376,0.7835 0.367,-0.3667 -0.623,-1.3569 -2.199,-2.2006 -2.03,-1.0861 -3.364,-1.121 -4.57,-0.1196 -0.938,0.7779 -2.099,1.0195 -2.582,0.537 -0.482,-0.4825 -0.877,-0.2773 -0.877,0.456 0,2.4916 1.848,3.194 2.997,1.1396 0.898,-1.6046 1.73,-1.7332 3.855,-0.5959 z M 468.667,42.1955 c -0.454,-0.7334 -1.839,-1.3242 -3.079,-1.313 -1.943,0.0176 -1.978,0.1991 -0.255,1.313 2.611,1.6874 4.377,1.6874 3.334,0 z M 664,40.6399 c 0,-1.5889 -0.417,-2.4715 -0.928,-1.9614 -1.441,1.4411 -1.643,4.8503 -0.287,4.8503 0.668,0 1.215,-1.3 1.215,-2.8889 z m -398.057,0.3144 c 0.422,-0.6827 0.157,-1.6181 -0.588,-2.0787 -0.745,-0.4607 -1.355,0.0979 -1.355,1.2412 0,2.342 0.8,2.6868 1.943,0.8375 z m 263.39,-0.0922 c 0,-0.7333 -0.264,-1.3333 -0.588,-1.3333 -0.323,0 -0.958,0.6 -1.412,1.3333 -0.453,0.7334 -0.188,1.3334 0.588,1.3334 0.777,0 1.412,-0.6 1.412,-1.3334 z m 124,-0.6666 c 0,-1.1 -0.236,-2 -0.524,-2 -0.288,0 -0.869,0.9 -1.291,2 -0.422,1.1 -0.186,2 0.524,2 0.71,0 1.291,-0.9 1.291,-2 z M 36.6667,39.5288 c -0.4533,-0.7333 -0.1533,-1.3333 0.6666,-1.3333 0.8199,0 1.0803,-0.6641 0.5787,-1.4757 -0.6404,-1.0363 -1.2332,-0.956 -1.9907,0.2696 -1.0289,1.6649 -0.5142,3.8727 0.9027,3.8727 0.3667,0 0.2959,-0.6 -0.1573,-1.3333 z m 602.0003,0.7453 c 0,-1.4073 -2.559,-1.9985 -3.32,-0.7671 -0.461,0.7453 0.098,1.3551 1.241,1.3551 1.143,0 2.079,-0.2646 2.079,-0.588 z M 455.24,38.347 c 0.401,-0.6499 -0.363,-1.4676 -1.699,-1.817 -1.473,-0.3851 -2.43,0.0803 -2.43,1.1817 0,2.0215 2.988,2.4812 4.129,0.6353 z m 173.427,-1.4849 c 0.453,-0.7333 0.188,-1.3333 -0.588,-1.3333 -0.777,0 -1.412,0.6 -1.412,1.3333 0,0.7334 0.264,1.3334 0.588,1.3334 0.323,0 0.958,-0.6 1.412,-1.3334 z m -446,-3.1907 c 0,-0.2882 -0.932,-0.8813 -2.07,-1.318 -1.186,-0.4553 -1.721,-0.2318 -1.254,0.524 0.783,1.2669 3.324,1.8739 3.324,0.794 z M 87.3732,29.1242 c -1.0265,-1.0264 -6.0525,1.3055 -5.3307,2.4733 0.4252,0.688 1.8454,0.5245 3.292,-0.3789 1.3993,-0.8739 2.3167,-1.8164 2.0387,-2.0944 z m 15.4588,-5.951 c -1.317,-1.307 -1.47,-1.1538 -0.746,0.7464 0.5,1.315 1.246,2.055 1.656,1.6445 0.411,-0.4105 10e-4,-1.4864 -0.91,-2.3909 z M 87.6474,206.732 c -0.4383,-0.439 -0.4741,-1.639 -0.0796,-2.667 0.4412,-1.149 -0.1505,-1.87 -1.5363,-1.87 -2.8753,0 -1.9685,-2.99 1.0408,-3.432 1.3213,-0.194 2.3048,0.589 2.3663,1.884 0.0664,1.398 0.3543,1.597 0.7805,0.54 0.3714,-0.921 1.1674,-1.371 1.7689,-0.999 0.6015,0.372 0.4002,2.171 -0.4472,3.998 -1.5682,3.381 -2.469,3.97 -3.8934,2.546 z M 100,202.783 c 0,-1.143 0.61,-1.701 1.355,-1.241 0.745,0.461 1.01,1.396 0.588,2.079 C 100.8,205.47 100,205.125 100,202.783 Z m -4.4082,-0.107 c -1.0652,-1.065 0.1389,-3.147 1.8202,-3.147 0.6901,0 1.2547,0.9 1.2547,2 0,2.062 -1.5733,2.649 -3.0749,1.147 z m -20.2086,-1.733 c -0.4258,-0.689 0.3972,-1.165 1.8289,-1.057 1.4318,0.108 2.3093,0.672 1.9502,1.253 -0.8861,1.433 -2.8343,1.332 -3.7791,-0.196 z m 31.8368,-0.264 c -0.523,-0.846 0.473,-2.599 2.255,-3.968 3.341,-2.567 6.094,-2.575 5.525,-0.016 -0.183,0.825 0.417,1.504 1.333,1.509 0.917,0.004 -0.052,0.904 -2.152,2 -4.583,2.39 -5.729,2.468 -6.961,0.475 z m -41.5533,-1.23 c -1.65,-0.642 -3,-2.265 -3,-3.606 0,-1.977 1.1394,-2.471 6.0178,-2.611 3.8562,-0.111 5.7106,0.324 5.1625,1.211 -0.4704,0.761 -0.0284,1.949 0.9822,2.64 1.3907,0.95 1.1891,1.146 -0.8292,0.802 -1.4667,-0.249 -3.2667,0.263 -4,1.14 -0.8877,1.06 -2.3361,1.202 -4.3333,0.424 z m 35.6663,-3.332 c 0,-1.144 0.61,-1.702 1.355,-1.241 0.746,0.46 1.01,1.396 0.588,2.078 -1.143,1.85 -1.943,1.505 -1.943,-0.837 z m -10.6663,0.221 c 0,-0.288 0.9311,-0.881 2.0692,-1.318 1.1866,-0.455 1.7218,-0.232 1.2547,0.524 -0.7831,1.267 -3.3239,1.874 -3.3239,0.794 z m 48.0003,-7.476 c 0,-0.733 0.635,-1.333 1.412,-1.333 0.776,0 1.041,0.6 0.588,1.333 -0.454,0.733 -1.089,1.333 -1.412,1.333 -0.324,0 -0.588,-0.6 -0.588,-1.333 z m -3.248,-3.609 c -0.724,-1.9 -0.57,-2.053 0.746,-0.746 0.912,0.904 1.321,1.98 0.911,2.39 -0.411,0.411 -1.156,-0.329 -1.657,-1.644 z M 469.84,174.926 c -1.022,-2.664 0.411,-4.596 3.251,-4.382 3.536,0.266 3.714,6.318 0.186,6.318 -1.482,0 -3.028,-0.871 -3.437,-1.936 z m 196.039,-2.497 c -1.062,-1.217 -0.967,-2.12 0.35,-3.351 2.261,-2.112 4.438,-0.871 4.438,2.529 0,2.907 -2.581,3.349 -4.788,0.822 z m -256.907,-1.023 c -1.299,-0.756 -1.991,-1.975 -1.537,-2.708 0.963,-1.559 6.893,-4.215 10.18,-4.56 1.938,-0.204 2.046,0.184 0.717,2.575 -0.861,1.549 -1.423,3.31 -1.249,3.915 0.174,0.604 -0.257,0.745 -0.958,0.311 -0.701,-0.433 -1.651,-0.177 -2.112,0.568 -1.035,1.676 -2.023,1.656 -5.041,-0.101 z m 8.361,-4.465 c 0,-0.324 -0.6,-0.959 -1.333,-1.412 -0.733,-0.453 -1.333,-0.189 -1.333,0.588 0,0.776 0.6,1.412 1.333,1.412 0.733,0 1.333,-0.265 1.333,-0.588 z m 241.334,4.666 c 0,-0.69 0.593,-1.621 1.318,-2.069 0.756,-0.467 0.979,0.068 0.524,1.255 -0.887,2.31 -1.842,2.732 -1.842,0.814 z m -329.334,-4.124 c -1.739,-1.164 -1.679,-1.584 0.463,-3.221 3.056,-2.336 6.204,-1.283 6.204,2.076 0,2.765 -3.378,3.346 -6.667,1.145 z m 93.084,-2.198 c 0.962,-0.386 2.112,-0.338 2.555,0.105 0.443,0.443 -0.344,0.758 -1.75,0.7 -1.553,-0.064 -1.869,-0.38 -0.805,-0.805 z M 310.709,163.96 c 0.08,-2.063 3.288,-5.097 5.862,-5.544 2.404,-0.418 2.437,-0.244 0.507,2.666 -2.019,3.047 -6.453,5.05 -6.369,2.878 z m -83.376,-1.765 c -0.453,-0.733 -0.188,-1.333 0.588,-1.333 0.777,0 1.412,0.6 1.412,1.333 0,0.734 -0.264,1.334 -0.588,1.334 -0.323,0 -0.958,-0.6 -1.412,-1.334 z m 268.667,0 c 0,-0.733 0.635,-1.333 1.412,-1.333 0.777,0 1.041,0.6 0.588,1.333 -0.453,0.734 -1.089,1.334 -1.412,1.334 -0.323,0 -0.588,-0.6 -0.588,-1.334 z m 60,-0.745 c 0,-1.143 0.61,-1.702 1.355,-1.241 0.745,0.461 1.01,1.396 0.588,2.079 C 556.8,164.137 556,163.792 556,161.45 Z m 31.419,-0.197 c -0.724,-1.9 -0.57,-2.053 0.746,-0.746 0.912,0.904 1.321,1.98 0.911,2.39 -0.411,0.411 -1.156,-0.329 -1.657,-1.644 z m -37.161,0.09 c -1.244,-1.245 0.26,-3.148 2.487,-3.148 1.057,0 1.922,0.9 1.922,2 0,2.009 -2.815,2.741 -4.409,1.148 z M 252,160.289 c 0,-0.366 1.2,-1.309 2.667,-2.094 1.466,-0.784 2.666,-1.127 2.666,-0.76 0,0.367 -1.2,1.309 -2.666,2.094 -1.467,0.785 -2.667,1.127 -2.667,0.76 z m 431.318,-2.117 c -1.224,-1.981 -0.025,-3.008 4.013,-3.439 2.226,-0.237 3.336,0.306 3.336,1.632 0,1.093 -0.627,1.601 -1.392,1.128 -0.766,-0.473 -2.212,-0.18 -3.215,0.652 -1.336,1.11 -2.068,1.117 -2.742,0.027 z m -77.074,-1.822 c -0.437,-1.138 -0.262,-2.398 0.389,-2.8 1.701,-1.051 2.714,1.132 1.465,3.154 -0.828,1.34 -1.234,1.262 -1.854,-0.354 z m -374.911,-0.821 c 0.454,-0.734 1.424,-1.334 2.158,-1.334 0.733,0 0.962,0.6 0.509,1.334 -0.453,0.733 -1.424,1.333 -2.157,1.333 -0.734,0 -0.963,-0.6 -0.51,-1.333 z M 1.75423,151.416 C -0.721206,148.941 1.2687,144.887 4.81506,145.18 6.56678,145.325 8,145.574 8,145.733 c 0,0.159 -0.58515,1.828 -1.30033,3.709 -1.41069,3.71 -2.69621,4.224 -4.94544,1.974 z M 698.344,140.176 c 0.803,-4.198 2.547,-5.341 5.02,-3.289 2.476,2.055 0.248,6.642 -3.226,6.642 -1.882,0 -2.289,-0.762 -1.794,-3.353 z m 5.212,-33.536 c -1.596,-1.596 -0.947,-2.657 2.616,-4.28 4.686,-2.135 5.656,-0.818 1.838,2.494 -3.522,3.054 -3.283,2.958 -4.454,1.786 z m 10.57,-14.9072 c -1.015,-1.6423 -0.481,-8.204 0.668,-8.204 1.755,0 4.082,3.9272 3.649,6.1588 -0.513,2.6469 -3.168,3.9046 -4.317,2.0452 z m -5.459,-22.8707 c 0.453,-0.7333 1.424,-1.3333 2.157,-1.3333 0.733,0 0.963,0.6 0.509,1.3333 -0.453,0.7334 -1.424,1.3334 -2.157,1.3334 -0.733,0 -0.963,-0.6 -0.509,-1.3334 z m 3.364,-14.6474 c -1.508,-0.9323 -1.573,-1.8332 -0.329,-4.5641 1.734,-3.8063 5.631,-3.4435 5.631,0.5242 0,3.2292 -2.962,5.4861 -5.302,4.0399 z M 203.518,42.8621 c -0.422,-1.1 -0.186,-2 0.524,-2 0.71,0 1.291,0.9 1.291,2 0,1.1 -0.235,2 -0.524,2 -0.288,0 -0.869,-0.9 -1.291,-2 z M 25.3159,43.5288 c -0.7901,-2.5716 -0.6908,-6.6667 0.1616,-6.6667 1.7771,0 2.2306,1.8961 1.116,4.6667 -0.59,1.4667 -1.1649,2.3667 -1.2776,2 z M 346,42.1955 c -0.453,-0.7334 -0.189,-1.3334 0.588,-1.3334 0.777,0 1.412,0.6 1.412,1.3334 0,0.7333 -0.265,1.3333 -0.588,1.3333 -0.323,0 -0.959,-0.6 -1.412,-1.3333 z m -99.333,-1.3334 c 0,-0.7333 0.9,-1.3333 2,-1.3333 1.1,0 2,0.6 2,1.3333 0,0.7334 -0.9,1.3334 -2,1.3334 -1.1,0 -2,-0.6 -2,-1.3334 z m 110.877,-8 c 0,-1.8333 0.302,-2.5833 0.672,-1.6666 0.37,0.9166 0.37,2.4166 0,3.3333 -0.37,0.9167 -0.672,0.1667 -0.672,-1.6667 z m 133.938,0.1648 c -1.277,-1.4117 -1.833,-2.8558 -1.236,-3.2092 1.824,-1.0782 7.346,1.6026 6.782,3.2928 -0.884,2.653 -3.099,2.6197 -5.546,-0.0836 z M 47.6667,33.4262 c -0.55,-0.5547 -1,-2.2285 -1,-3.7196 0,-1.9624 0.4027,-2.3084 1.4583,-1.2528 0.8021,0.8021 1.2521,2.476 1,3.7196 -0.2521,1.2437 -0.9083,1.8075 -1.4583,1.2528 z m 3.6666,-0.5641 c -0.9614,-1.5556 -0.9299,-1.5764 3.0127,-1.9887 2.4075,-0.2518 2.7095,0.0502 1.5034,1.5035 -1.7872,2.1535 -3.3793,2.3245 -4.5161,0.4852 z M 196.592,31.4074 c -1.303,-2.1084 -2.187,-10.2964 -0.912,-8.448 0.543,0.7868 2.079,1.8341 3.414,2.3273 1.551,0.5732 2.272,1.9439 2,3.7984 -0.492,3.3419 -3.055,4.664 -4.502,2.3223 z m 265.519,-0.7361 c -0.462,-1.205 -0.541,-2.4905 -0.175,-2.8567 0.852,-0.8511 4.731,2.3286 4.731,3.8774 0,2.0708 -3.686,1.2448 -4.556,-1.0207 z m 63.222,-3.2212 c 0,-0.7766 0.6,-1.0412 1.334,-0.588 0.733,0.4532 1.333,1.0887 1.333,1.412 0,0.3234 -0.6,0.588 -1.333,0.588 -0.734,0 -1.334,-0.6354 -1.334,-1.412 z M 54.6667,26.1955 c -1.7236,-1.1139 -1.6884,-1.2954 0.2546,-1.313 1.2401,-0.0112 2.6255,0.5796 3.0787,1.313 1.0429,1.6874 -0.7222,1.6874 -3.3333,0 z M 88,16.8621 c 0,-1.4666 0.6,-2.6666 1.3333,-2.6666 0.7334,0 1.3334,1.2 1.3334,2.6666 0,1.4667 -0.6,2.6667 -1.3334,2.6667 C 88.6,19.5288 88,18.3288 88,16.8621 Z m 34.667,-0.0787 c 0,-0.7766 -0.6,-1.0412 -1.334,-0.5879 C 120.6,16.6487 120,16.3199 120,15.4648 c 0,-0.8698 0.929,-1.1982 2.109,-0.7453 1.16,0.4451 2.695,0.8093 3.412,0.8093 0.717,0 0.932,0.6 0.479,1.3333 -1.089,1.7626 -3.333,1.7096 -3.333,-0.0787 z M 92,14.8621 c 0,-1.2222 0.645,-2.0072 1.4333,-1.7444 0.7884,0.2628 1.4334,1.0478 1.4334,1.7444 0,0.6967 -0.645,1.4817 -1.4334,1.7445 C 92.645,16.8693 92,16.0843 92,14.8621 Z m 45.333,-1.7778 c 0,-0.6111 0.874,-1.1111 1.942,-1.1111 1.067,0 1.632,0.5 1.254,1.1111 -0.377,0.6112 -1.251,1.1112 -1.941,1.1112 -0.69,0 -1.255,-0.5 -1.255,-1.1112 z m 7.379,-3.12646 c 1.227,-3.98763 1.333,-4.08206 3.967,-3.54691 1.823,0.37023 1.581,1.00667 -1.349,3.54691 l -3.57,3.09576 z m -15.045,0.68786 c -1.908,-0.76955 -2.266,-3.11691 -0.476,-3.11691 0.655,0 1.536,0.9 1.958,2 0.422,1.10001 0.636,1.95261 0.476,1.89471 -0.16,-0.0579 -1.042,-0.4079 -1.958,-0.7778 z m 38.815,-1.11691 c -0.422,-1.1 -1.753,-2.01825 -2.958,-2.04055 -1.904,-0.03523 -1.876,-0.2238 0.212,-1.43865 2.713,-1.57829 6.264,0.48656 6.264,3.64246 0,2.46385 -2.555,2.34525 -3.518,-0.16326 z m -33.489,-1 c 0.302,-0.91667 2.002,-1.87416 3.778,-2.12776 1.776,-0.2536 3.932,-1.03789 4.791,-1.74287 1.125,-0.92377 1.37,-0.55011 0.876,1.33782 -0.636,2.4321 -3.988,4.13792 -8.216,4.18122 -0.978,0.01 -1.531,-0.73174 -1.229,-1.64841 z M 96,7.6843 C 96,7.03649 97.1551,6.2044 98.5669,5.83521 100.368,5.36431 100.922,5.71586 100.424,7.01304 99.6491,9.03314 96,9.58679 96,7.6843 Z m 60.191,-0.03157 c -1.341,-0.83335 -1.405,-1.37392 -0.245,-2.09079 1.83,-1.13076 3.203,-0.12976 2.526,1.84079 -0.277,0.80701 -1.218,0.91017 -2.281,0.25 z M 118.12,3.66116 c -1.502,-1.65897 -1.803,-2.83746 -0.874,-3.412025 0.782,-0.482749 1.421,-0.24231437 1.421,0.534298 0,0.776607 0.9,1.412027 2,1.412027 1.1,0 2,0.9 2,2 0,2.72277 -1.79,2.51248 -4.547,-0.5343 z M 128,4.08435 c 0,-1.16111 0.712,-1.87361 1.583,-1.58334 2.473,0.8241 2.883,3.69445 0.528,3.69445 -1.161,0 -2.111,-0.95 -2.111,-2.11111 z M 152.795,3.7371 c -0.461,-0.74656 -0.189,-1.75892 0.605,-2.24969 2.05,-1.266958 3.373,0.46847 1.662,2.17978 -0.958,0.95757 -1.704,0.98058 -2.267,0.06991 z"
       sodipodi:nodetypes="ccccccccccccccccccccccccccccccccccccccccccccccccccccccccccccccccccccccccccccccccccccccccccccccccccccccccccccccccccccccccccccccccccccccccccccccccccccccccccccccccccccccccccccccccccccccccccccccccccccccccccccccccccccccccccccccccccccccccccccccccccccccccccccccccccccccccccccccccccccccccccccccccccccccccccccccccccccccccccccccccccccccccccccccccccccccccccccccccccccccccccccccccccccccccccccccccccccccccccccccccccccccccccccccccccccccccccccccccccccccccccccccccccccccccccccccccccccccccccccccccccccccccccccccccccccccccccccccccccccccccccccccccccccccccccccccccccccccccccccccccccccccccccccccccccccccccccccccccccccccccccccccccccccccccccccccccccccccccccccccccccccccccccccccccccccccccccccccccccccccccccccccccccccccccccccccccccccccccccccccccccccccccccccccccccccccccccccccccccccccccccccccccccccccccccccccccccccccccccccccccccccccccccccccccccccccccccccccccccccccccccccccccccccccccccccccccccccccccccccccccccccccccccccccccccccccccccccccccccccccccccccccccccccccccccccccccccccccccccccccccccccccccccccccccccccccccccccccccccccccccccccccccccccccccccccccccccccccccccccccccccccccccccccccccccccccccccccccccccccccccccccccccccccccccccccccccccccccccccccccccccccccccccccccccccccccccccccccccccccccccccccccccccccccccccccccccccccccccccccccccccccccccccccccccccccccccccccccccccccccccccccccccccccccccccccccccccccccccccccccccccccccccccccccccccccccccccccccccccccccccccccccccccccccccccccccc"
       style="fill:#ffffff;fill-opacity:1" />
  </g>
</svg>
