<?xml version="1.0" standalone="no"?>
<!DOCTYPE svg PUBLIC "-//W3C//DTD SVG 20010904//EN"
 "http://www.w3.org/TR/2001/REC-SVG-20010904/DTD/svg10.dtd">
<svg version="1.0" xmlns="http://www.w3.org/2000/svg"
 width="512.000000pt" height="512.000000pt" viewBox="0 0 512.000000 512.000000"
 preserveAspectRatio="xMidYMid meet">

<g transform="translate(0.000000,512.000000) scale(0.100000,-0.100000)"
fill="#000000" stroke="none">
<path d="M2765 4259 c-1039 -66 -2030 -562 -2485 -1242 -368 -550 -324 -1150
116 -1579 96 -94 134 -124 249 -200 181 -120 422 -223 680 -288 729 -186 1606
-97 2362 240 588 262 1049 666 1263 1105 244 501 161 1009 -226 1387 -96 94
-134 124 -249 200 -317 211 -762 344 -1260 378 -169 11 -262 11 -450 -1z m670
-219 c64 -11 142 -27 173 -36 66 -18 192 -74 192 -84 0 -12 -129 -180 -214
-279 -97 -112 -209 -211 -330 -293 -107 -71 -185 -111 -427 -218 -100 -45
-204 -92 -231 -106 -27 -14 -52 -23 -54 -21 -3 2 49 63 114 135 66 72 135 155
155 184 78 119 151 286 253 582 l58 169 97 -7 c53 -3 149 -15 214 -26z m-1929
-447 c159 -174 330 -341 409 -401 39 -29 122 -77 185 -108 63 -30 147 -70 185
-89 l70 -34 -175 0 c-245 0 -519 15 -620 34 -185 36 -370 109 -588 231 -151
86 -148 78 -62 163 57 57 140 122 225 177 68 44 247 144 257 144 3 0 55 -53
114 -117z m1319 -892 c257 -194 485 -334 756 -465 207 -100 347 -156 569 -226
91 -29 169 -56 173 -60 24 -22 -339 -286 -534 -389 l-96 -51 -413 445 c-227
244 -427 466 -445 492 -18 27 -68 116 -113 200 -44 84 -95 174 -113 200 l-33
48 59 -48 c33 -27 119 -92 190 -146z m-466 87 c-4 -27 -16 -133 -24 -238 -9
-104 -22 -213 -29 -240 -7 -28 -103 -303 -212 -611 l-199 -560 -85 6 c-118 9
-270 30 -386 55 -123 25 -296 78 -292 89 2 4 55 52 118 107 445 382 790 823
1086 1388 16 30 29 54 30 53 1 -1 -2 -23 -7 -49z"/>
</g>
</svg>
