<?xml version="1.0" encoding="UTF-8" standalone="no"?>
<!-- Created with Inkscape (http://www.inkscape.org/) -->

<svg
   version="1.1"
   id="svg2"
   width="285"
   height="285"
   viewBox="0 0 285 285"
   sodipodi:docname="Grunge2.svg"
   inkscape:version="1.2.2 (b0a8486541, 2022-12-01)"
   xmlns:inkscape="http://www.inkscape.org/namespaces/inkscape"
   xmlns:sodipodi="http://sodipodi.sourceforge.net/DTD/sodipodi-0.dtd"
   xmlns="http://www.w3.org/2000/svg"
   xmlns:svg="http://www.w3.org/2000/svg">
  <defs
     id="defs6" />
  <sodipodi:namedview
     id="namedview4"
     pagecolor="#ffffff"
     bordercolor="#666666"
     borderopacity="1.0"
     inkscape:showpageshadow="2"
     inkscape:pageopacity="0.0"
     inkscape:pagecheckerboard="0"
     inkscape:deskcolor="#d1d1d1"
     showgrid="false"
     inkscape:zoom="3.008789"
     inkscape:cx="137.26453"
     inkscape:cy="140.7543"
     inkscape:window-width="2560"
     inkscape:window-height="1371"
     inkscape:window-x="0"
     inkscape:window-y="0"
     inkscape:window-maximized="1"
     inkscape:current-layer="g8" />
  <g
     inkscape:groupmode="layer"
     inkscape:label="Image"
     id="g8"
     transform="translate(-33.574079,-30.666667)">
    <path
       style="fill:#000000;stroke-width:1.33333"
       d="m 168.79703,315.01925 c -1.34879,-1.34878 -0.88164,-6.80958 0.66425,-7.76499 2.08422,-1.28812 5.46015,2.53043 4.48463,5.0726 -0.90681,2.36309 -3.90855,3.93272 -5.14888,2.69239 z m -40.56652,-10.56483 c 0.56194,-2.91788 4.43616,-3.33068 4.43616,-0.47268 0,1.08996 -1.10449,2.19445 -2.45442,2.45443 -1.78186,0.34314 -2.32489,-0.19988 -1.98174,-1.98175 z m 55.96377,-15.55365 c -1.21142,-1.45968 -1.11322,-2.25148 0.43896,-3.5397 2.60955,-2.16573 6.35551,-0.68488 5.78332,2.28626 -0.57137,2.9669 -4.1945,3.69676 -6.22228,1.25344 z M 74.666668,264.04691 c 0,-3.53002 5.052018,-6.33144 6.16895,-3.42076 0.92761,2.41732 -1.670923,6.04052 -4.33221,6.04052 -1.010207,0 -1.83674,-1.17889 -1.83674,-2.61976 z m 108.000002,-1.38024 c 0,-0.73333 0.56459,-1.33333 1.25464,-1.33333 0.69005,0 1.62547,0.6 2.07869,1.33333 0.45323,0.73334 -0.11133,1.33334 -1.25464,1.33334 -1.14328,0 -2.07869,-0.6 -2.07869,-1.33334 z m 6.22223,-7.55556 c -1.56575,-1.56573 -0.95014,-5.77777 0.84444,-5.77777 2.56078,0 4.82784,2.72348 4.01982,4.82914 -0.74342,1.93733 -3.36442,2.44847 -4.86426,0.94863 z m -83.06997,-11.76885 c -0.46183,-1.2035 -0.20034,-2.82751 0.58107,-3.60892 2.03148,-2.03148 5.88055,-0.17479 5.3499,2.58065 -0.59107,3.06917 -4.86356,3.80991 -5.93097,1.02827 z M 113.33334,240 c 0,-3.03178 3.34384,-3.6331 4.43214,-0.79702 0.83677,2.18058 -0.14653,3.46369 -2.65437,3.46369 -0.97777,0 -1.77777,-1.2 -1.77777,-2.66667 z m 41.33333,-6.66666 c 0,-1.46667 0.52653,-2.66667 1.17008,-2.66667 1.74845,0 4.27217,3.44664 3.2628,4.45601 -1.82539,1.82539 -4.43288,0.77287 -4.43288,-1.78934 z M 244,229.92131 c 0,-1.14328 0.60979,-1.70181 1.35508,-1.2412 0.7453,0.46061 1.0099,1.39603 0.58798,2.07869 C 244.80008,232.60819 244,232.26335 244,229.92131 Z m -94.19689,-4.62693 c -3.84951,-1.48882 -4.88381,-3.46319 -3.88955,-7.42468 0.54591,-2.17504 1.39004,-2.9615 2.45887,-2.29084 0.89516,0.56169 2.65753,0.85192 3.91636,0.64493 1.52032,-0.24996 2.58563,0.80636 3.17287,3.14613 1.14194,4.54984 -1.65126,7.4743 -5.65855,5.92446 z M 160,220.66667 c 0,-1.22223 0.645,-2.00723 1.43334,-1.74444 0.78833,0.26277 1.43333,1.04777 1.43333,1.74444 0,0.69667 -0.645,1.48167 -1.43333,1.74444 C 160.645,222.6739 160,221.8889 160,220.66667 Z m 14.9373,-3.59604 c -2.69346,-2.69345 -1.8443,-7.51835 1.73605,-9.86428 2.69156,-1.76359 3.72699,-1.86728 5.33333,-0.53415 2.10854,1.74994 2.61344,6.32451 0.97291,8.81476 -1.57664,2.39326 -6.30217,3.32379 -8.04229,1.58367 z m -56.27063,-3.81599 c 0,-1.50994 0.6,-2.37453 1.33333,-1.9213 0.73334,0.45322 1.33334,1.68864 1.33334,2.74536 0,1.05672 -0.6,1.9213 -1.33334,1.9213 -0.73333,0 -1.33333,-1.23541 -1.33333,-2.74536 z m 17.72933,-0.81253 c -0.4695,-1.22351 0.15191,-3.97663 1.38091,-6.11804 1.22901,-2.14141 1.89657,-4.44037 1.48347,-5.10877 -1.11734,-1.8079 -4.58723,-1.47006 -4.63611,0.45137 -0.0821,3.22649 -3.54462,6.40812 -5.96365,5.47985 -2.08772,-0.80114 -2.24822,-2.17996 -1.4636,-12.57368 0.7754,-10.27153 0.54877,-12.31177 -1.88657,-16.98406 -1.5223,-2.92062 -3.93991,-5.61671 -5.37247,-5.99132 -3.3569,-0.87786 -3.32875,-3.11611 0.062,-4.93079 1.46667,-0.78493 2.66667,-0.88787 2.66667,-0.22873 0,0.65913 2.4,1.19842 5.33333,1.19842 5.26017,0 7.13191,-1.69654 3.43632,-3.11468 -1.04336,-0.40037 -2.88857,-2.81748 -4.10047,-5.37136 -1.74815,-3.68397 -2.57956,-4.33126 -4.02372,-3.13272 -1.00116,0.83088 -1.51504,2.30615 -1.14197,3.27835 1.06381,2.77227 -2.36674,4.06252 -4.18609,1.57443 -0.88626,-1.21204 -2.25983,-2.20371 -3.05237,-2.20371 -2.39604,0 -3.39937,-2.88499 -1.43585,-4.12865 1.01062,-0.64012 3.20234,-1.17304 4.87049,-1.18427 1.99767,-0.0135 3.46561,-1.15825 4.30033,-3.35375 1.8397,-4.83878 3.53751,-4.0942 4.50837,1.9772 0.57861,3.61846 1.92067,6.0126 4.21202,7.51395 4.09577,2.68365 4.63682,2.22269 5.57164,-4.74687 0.90484,-6.74614 2.46309,-7.86774 5.86202,-4.21941 1.43908,1.54465 3.44406,2.80847 4.45551,2.80847 1.01145,0 2.93808,0.40173 4.28139,0.89276 2.32244,0.8489 2.31888,0.75204 -0.0724,-1.97222 -2.46422,-2.80729 -2.46422,-2.88397 0,-3.81012 1.38316,-0.51984 3.22197,-1.88234 4.08626,-3.0278 1.40934,-1.86778 1.66455,-1.84244 2.47407,0.24572 0.49645,1.28059 0.83931,3.83059 0.76189,5.66667 -0.0773,1.83608 -0.2042,4.83832 -0.28178,6.67165 -0.0776,1.83334 -0.88996,3.33334 -1.8053,3.33334 -0.91534,0 -3.28278,-1.5 -5.26098,-3.33334 -3.9473,-3.65822 -6.126,-4.24649 -6.126,-1.65406 0,0.9236 -1.2,2.42869 -2.66667,3.34464 -3.57701,2.23388 -3.35921,5.12826 0.66667,8.85932 2.21797,2.05554 3.33333,4.51737 3.33333,7.35732 0,6.06014 2.05321,9.33689 5.31588,8.48368 3.79687,-0.99291 3.33613,1.47621 -0.67616,3.62352 -2.11864,1.13386 -2.89295,2.26569 -2.09556,3.06308 0.7974,0.7974 0.71288,2.14834 -0.22873,3.65612 -1.09275,1.74976 -1.1007,3.67109 -0.0296,7.1609 0.87712,2.85794 0.97088,5.07418 0.23393,5.52964 -0.67644,0.41806 -0.88893,1.31178 -0.47221,1.98603 1.05465,1.70647 -3.81658,-0.21176 -5.0271,-1.9796 -0.56533,-0.82561 -0.98821,-0.27469 -1,1.30275 -0.0375,5.01562 -4.7284,7.78106 -6.29108,3.70877 z m 16.93734,-3.88655 c 0,-2.35457 2.87034,-1.94452 3.69444,0.52778 0.29028,0.87082 -0.42222,1.58333 -1.58334,1.58333 -1.1611,0 -2.1111,-0.95 -2.1111,-2.11111 z m -31.86594,-3.38549 c -1.5404,-1.65343 -2.80073,-3.58071 -2.80073,-4.28284 0,-0.70215 1.53323,0.37776 3.40718,2.39979 1.87395,2.02202 3.13428,3.9493 2.80073,4.28285 -0.33354,0.33355 -1.86677,-0.74636 -3.40718,-2.3998 z m 111.97652,-1.23764 c -2.38433,-2.01283 -3.2515,-4.13344 -3.33333,-8.15135 -0.11227,-5.51436 0.0499,-5.71734 7.22275,-9.04057 1.83333,-0.8494 5.43333,-2.68467 8,-4.07839 5.73142,-3.11221 6.54916,-3.18644 7.51028,-0.68181 0.41989,1.09425 -0.82628,3.86539 -2.78518,6.1934 -3.00176,3.56739 -3.48225,5.25629 -3.13509,11.01969 L 247.33334,206 242,206.32652 c -3.77533,0.23114 -6.27477,-0.46824 -8.55608,-2.39409 z m 15.88942,1.30995 c 0,-0.68331 1.9,-1.24238 4.22222,-1.24238 4.81383,0 4.15077,1.59204 -0.88676,2.12914 -1.8345,0.19558 -3.33546,-0.20346 -3.33546,-0.88676 z m -62.59592,-4.49046 c -1.05379,-1.26974 -0.89068,-2.18481 0.61169,-3.43168 1.12677,-0.93513 2.43548,-1.31342 2.90824,-0.84066 0.47277,0.47277 1.97695,-0.15163 3.34263,-1.38755 2.18114,-1.97391 2.7206,-2.00955 4.43701,-0.29313 1.7064,1.7064 1.70975,2.30268 0.0264,4.70604 -2.21159,3.15748 -9.11001,3.917 -11.32593,1.24698 z m -32.07075,-5.9088 c 0,-5.7131 1.08844,-7.30922 3.82924,-5.61532 2.56861,1.5875 1.37563,9.98174 -1.49591,10.52571 -1.90812,0.36148 -2.33333,-0.53335 -2.33333,-4.91039 z m 103.56786,3.28724 c -0.88714,-2.31184 0.16984,-3.46369 3.17838,-3.46369 2.35796,0 4.37046,3.10553 2.93967,4.53631 -1.4898,1.4898 -5.39767,0.80466 -6.11805,-1.07262 z m -141.80656,-1.44885 c -2.84205,-3.07283 -2.73887,-10.01484 0.14885,-10.01484 2.51222,0 3.6241,3.79129 2.40206,8.1906 -0.77669,2.79607 -1.30358,3.17285 -2.55091,1.82424 z M 220,191.92131 c 0,-0.77661 0.6,-1.0412 1.33334,-0.58797 0.73333,0.45322 1.33333,1.08864 1.33333,1.41202 0,0.32339 -0.6,0.58798 -1.33333,0.58798 C 220.6,193.33334 220,192.69792 220,191.92131 Z m -13.34808,-2.61553 c -0.79305,-1.48182 -1.08032,-3.27927 -0.6384,-3.99432 0.44194,-0.71507 -0.7535,-2.00954 -2.65652,-2.87662 -1.98505,-0.90444 -3.17172,-2.32784 -2.78369,-3.339 0.44496,-1.15956 -0.41893,-1.7625 -2.52531,-1.7625 -1.95528,0 -3.50938,-0.96964 -3.99218,-2.49083 -0.43482,-1.36995 -1.97524,-3.56293 -3.42319,-4.87331 -3.97179,-3.59442 -3.31801,-7.98497 1.70071,-11.42148 2.38333,-1.63194 5.70761,-4.37281 7.38729,-6.09078 4.05159,-4.14399 7.77796,-3.94147 12.07776,0.65636 1.94423,2.07897 4.43495,4.13329 5.53495,4.56516 1.77777,0.69794 1.77777,0.94864 0,2.25621 -1.1,0.80907 -3.70158,1.84005 -5.78127,2.29109 -2.07969,0.45104 -3.97167,1.48476 -4.20437,2.29716 -0.23271,0.8124 -1.30652,4.35026 -2.38626,7.86192 l -1.96314,6.38484 3.83418,1.98274 c 3.8948,2.01408 5.14668,4.58092 2.23419,4.58092 -1.24444,0 -1.24444,0.35556 0,1.6 1.91909,1.91909 2.11389,5.06666 0.31357,5.06666 -0.70753,0 -1.93528,-1.2124 -2.72832,-2.69422 z M 172,188.66667 c 0,-1.1 0.6,-2 1.33334,-2 0.73333,0 1.33333,0.9 1.33333,2 0,1.1 -0.6,2 -1.33333,2 -0.73334,0 -1.33334,-0.9 -1.33334,-2 z m -83.769489,-1.54559 c 0.561933,-2.91788 4.436157,-3.33068 4.436157,-0.47268 0,1.08996 -1.104488,2.19446 -2.454417,2.45443 -1.781861,0.34315 -2.324895,-0.19988 -1.98174,-1.98175 z M 64.333335,185.76744 C 58.752786,181.87464 61.831617,176 69.452329,176 c 2.784087,0 2.82915,-0.14566 0.754323,-2.43832 -2.780724,-3.07266 -2.796371,-6.08881 -0.05331,-10.27525 2.514219,-3.83719 8.498791,-4.44381 11.751415,-1.19119 C 86.396055,166.58654 83.236742,176 77.238094,176 c -2.733375,0 -3.461155,1.95942 -1.238095,3.33334 3.592148,2.22006 -0.762446,8.71709 -5.761906,8.59673 -1.597616,-0.0385 -4.254758,-1.01165 -5.904758,-2.16263 z m 201.098275,-1.96206 c -2.72318,-2.53702 -2.82603,-2.99852 -0.90752,-4.07216 3.00468,-1.68151 4.81829,-0.2033 4.49804,3.6662 -0.14872,1.79698 -0.3264,3.26725 -0.39486,3.26725 -0.0684,0 -1.50649,-1.28759 -3.19566,-2.86129 z m -94.13966,0.12773 c -1.26695,-2.04997 0.46847,-3.37263 2.17979,-1.66131 0.95757,0.95758 0.98057,1.70336 0.0699,2.26619 -0.74656,0.4614 -1.75892,0.1892 -2.24969,-0.60488 z m -20.17156,-4.68028 c -2.22625,-2.06323 -3.13812,-3.77768 -2.30477,-4.33333 0.75838,-0.5057 1.7663,-1.96943 2.2398,-3.25276 0.47349,-1.28334 2.15822,-2.33334 3.74386,-2.33334 2.5473,0 2.79526,0.54052 2.12964,4.64224 -0.41433,2.55323 -0.18305,4.99468 0.51396,5.42547 1.42739,0.88217 0.367,3.26563 -1.45288,3.26563 -0.65226,0 -2.8436,-1.53627 -4.86961,-3.41391 z M 309.33334,180 c 0,-2.0082 0.6962,-2.72812 2.33333,-2.41284 1.28334,0.24715 2.33334,1.33292 2.33334,2.41284 0,1.07992 -1.05,2.1657 -2.33334,2.41284 -1.63713,0.31528 -2.33333,-0.40464 -2.33333,-2.41284 z m -81.10578,-0.8636 c 0.25835,-1.3415 1.56734,-2.65049 2.90884,-2.90884 1.76144,-0.33922 2.3086,0.20794 1.96938,1.96938 -0.25835,1.3415 -1.56734,2.65049 -2.90884,2.90884 -1.76144,0.33922 -2.3086,-0.20794 -1.96938,-1.96938 z M 94.000002,177.33334 C 93.546776,176.6 93.811367,176 94.587979,176 c 0.776612,0 1.412023,0.6 1.412023,1.33334 0,0.73333 -0.264589,1.33333 -0.587977,1.33333 -0.323388,0 -0.958798,-0.6 -1.412023,-1.33333 z M 213.33334,172.194 c 0,-1.84249 3.71748,-4.5104 5.47057,-3.92602 0.85813,0.28604 -0.0217,1.5566 -1.95517,2.82345 -1.93347,1.26685 -3.5154,1.76301 -3.5154,1.10257 z m 70.65552,-0.24952 c -1.76292,-1.13265 -1.76292,-1.42297 0,-2.55562 1.26829,-0.81486 2.45181,-0.81486 3.26667,0 1.95309,1.95309 -0.82351,4.12532 -3.26667,2.55562 z m -31.21159,-1.09886 c -0.57436,-0.92934 -0.68421,-2.04978 -0.24412,-2.48988 1.19329,-1.19328 2.49436,0.56173 1.84985,2.49526 -0.45162,1.3549 -0.76569,1.35384 -1.60573,-0.005 z m -89.1106,-1.61908 c -2.90891,-1.69428 -3.05907,-7.32942 -0.22428,-8.41722 3.36727,-1.29214 4.12487,-1.00169 6.38513,2.44791 1.93186,2.94839 1.93736,3.45408 0.0581,5.33333 -2.40886,2.40886 -3.06067,2.47551 -6.21896,0.63598 z m 61.66667,-2.55987 c 0,-0.73333 0.63541,-1.33333 1.41202,-1.33333 0.77662,0 1.0412,0.6 0.58798,1.33333 C 226.88011,167.4 226.2447,168 225.92131,168 c -0.32339,0 -0.58797,-0.6 -0.58797,-1.33333 z m 8.7619,-3.42857 c -2.59814,-2.59815 -2.63086,-3.80038 -0.15922,-5.85166 4.46237,-3.70345 9.8974,2.24682 5.79732,6.3469 -2.10862,2.10861 -3.12339,2.01946 -5.6381,-0.49524 z m 63.60895,-3.40058 c -2.03862,-2.03862 -0.62884,-5.17085 2.32736,-5.17085 2.5926,0 3.95558,2.30019 2.96272,5 -0.76141,2.07051 -3.30816,2.15277 -5.29008,0.17085 z m -23.52413,-3.18242 c -0.42455,-1.10638 -0.2036,-3.50638 0.49101,-5.33334 1.47686,-3.88441 6.60692,-4.51996 9.90036,-1.22652 2.47879,2.47879 2.50006,2.657 0.715,5.99242 -1.7137,3.20208 -9.9342,3.62206 -11.10637,0.56744 z M 171,156.39236 c -1.65,-0.31781 -3,-1.06612 -3,-1.66292 0,-0.5968 -1.35,-1.53124 -3,-2.07653 l -3,-0.99144 2.87462,-0.57371 c 1.67146,-0.33358 3.21674,-1.93689 3.69206,-3.83073 1.0717,-4.26996 2.86791,-4.12461 5.06244,0.40964 1.35151,2.79243 2.561,3.55971 5.07275,3.21805 1.81397,-0.24673 3.86813,-0.99673 4.5648,-1.66666 1.65264,-1.58922 6.06667,-1.57463 6.06667,0.02 0,2.53412 -4.31636,5.42861 -8.09524,5.42861 -2.14762,0 -3.90476,0.6 -3.90476,1.33333 0,1.35715 -1.002,1.41922 -6.33334,0.39236 z m 46.87899,-2.2269 c -1.12961,-2.94375 0.37321,-4.44659 2.40991,-2.4099 1.20253,1.20254 1.20765,1.9479 0.0215,3.13407 -1.18616,1.18616 -1.7644,1.01393 -2.43138,-0.72417 z m -42.54565,-4.83212 C 174.88011,148.6 175.1447,148 175.92131,148 c 0.77661,0 1.41203,0.6 1.41203,1.33334 0,0.73333 -0.26459,1.33333 -0.58798,1.33333 -0.32338,0 -0.9588,-0.6 -1.41202,-1.33333 z m 37.33333,0 C 212.21344,148.6 212.81344,148 214,148 c 1.18656,0 1.78656,0.6 1.33334,1.33334 -0.45323,0.73333 -1.05323,1.33333 -1.33334,1.33333 -0.2801,0 -0.8801,-0.6 -1.33333,-1.33333 z M 226.49323,150 c -0.128,-0.73333 -0.29872,-2.23333 -0.37936,-3.33333 -0.16164,-2.20461 -3.37485,-2.33365 -15.32447,-0.61547 -7.15938,1.02943 -7.20449,1.01399 -6.35153,-2.17386 0.47248,-1.76587 0.86725,-5.16067 0.87727,-7.544 0.0211,-5.02405 1.55989,-5.45831 5.4735,-1.5447 2.0145,2.0145 5.25328,3.0324 11.66667,3.66667 7.53223,0.74493 8.92852,1.28227 9.21116,3.54469 0.33373,2.6714 -4.73512,10.50998 -5.17324,8 z m 58.17344,-6 c -0.45322,-0.73333 0.11134,-1.33333 1.25464,-1.33333 1.14328,0 2.0787,0.6 2.0787,1.33333 0,0.73334 -0.56459,1.33334 -1.25464,1.33334 -0.69006,0 -1.62547,-0.6 -2.0787,-1.33334 z M 60.761907,141.90476 c -2.221701,-2.22169 -2.787891,-9.41541 -0.966935,-12.28533 1.657977,-2.61306 9.804359,-3.32646 12.624023,-1.10552 1.384688,1.09066 2.47178,3.76193 2.542449,6.24744 0.212976,7.49065 -9.1447,12.19825 -14.199537,7.14341 z m 97.979843,0.30366 c -0.77463,-0.77463 -1.40841,-2.11523 -1.40841,-2.97912 0,-0.86388 -1.35,-2.54635 -3,-3.7388 -2.97766,-2.15195 -2.96554,-2.16558 1.62706,-1.8293 7.35036,0.5382 6.9844,-3.44511 -0.73232,-7.97104 -11.15878,-6.54472 -13.1123,-8.70257 -11.88524,-13.12832 0.59398,-2.14234 1.13483,-4.78186 1.2019,-5.86559 0.0923,-1.49131 1.55426,-1.86784 6.01249,-1.54855 9.14035,0.65463 11.96519,2.2837 14.7468,8.5044 2.2566,5.04659 2.63821,5.35641 3.41623,2.77347 0.48172,-1.59927 1.69937,-3.22378 2.70588,-3.61002 1.88596,-0.72371 5.9072,2.41654 5.9072,4.61302 0,0.68096 1.2,1.2381 2.66666,1.2381 2.81211,0 3.58806,1.93984 1.33334,3.33333 C 180.6,122.45323 180,125.25858 180,128.23413 c 0,4.91435 -0.27489,5.35046 -3,4.75944 -1.65,-0.35786 -4.05,-1.092 -5.33333,-1.63142 -1.99947,-0.84045 -2.33333,-0.20851 -2.33333,4.41651 0,2.96852 -0.63428,5.7893 -1.40951,6.26842 -2.46996,1.52652 -7.72457,1.61884 -9.18208,0.16134 z m 26.02241,-0.43515 c -0.46996,-1.22471 -0.32412,-2.57471 0.3241,-3 0.64821,-0.42529 1.44584,-1.6052 1.7725,-2.622 0.41115,-1.27973 1.31048,-0.75517 2.92202,1.70432 1.28042,1.95419 1.9677,4.13612 1.52728,4.84875 -1.29667,2.09805 -5.61946,1.48318 -6.5459,-0.93107 z M 33.63889,141.08334 c 0.824099,-2.4723 3.694444,-2.88235 3.694444,-0.52778 0,1.16111 -0.95,2.11111 -2.111111,2.11111 -1.161112,0 -1.873612,-0.71249 -1.583333,-1.58333 z m 86.54673,-1.1277 c -1.73124,-1.44226 -4.24583,-2.6223 -5.58797,-2.6223 -3.0153,0 -4.10059,-1.5682 -2.67813,-3.86979 1.0358,-1.67595 0.52532,-3.97597 -3.40717,-15.35146 -1.2431,-3.59592 -1.38099,-5.7321 -0.44297,-6.86235 1.91836,-2.31148 5.96566,-0.92131 7.91342,2.71813 0.9056,1.69212 3.93609,4.79158 6.73443,6.88769 10.46006,7.83516 12.62701,21.91731 3.34944,21.76675 -1.50333,-0.0244 -4.1498,-1.2244 -5.88105,-2.66667 z m 79.14772,1.3777 C 199.78656,140.6 200.42198,140 200.74536,140 c 0.32339,0 0.58798,0.6 0.58798,1.33334 0,0.73333 -0.63542,1.33333 -1.41203,1.33333 -0.77661,0 -1.0412,-0.6 -0.58797,-1.33333 z m -46,-1.33334 c 0,-0.73333 0.63541,-1.33333 1.41202,-1.33333 0.77662,0 1.0412,0.6 0.58798,1.33333 -0.45323,0.73334 -1.08864,1.33334 -1.41203,1.33334 -0.32339,0 -0.58797,-0.6 -0.58797,-1.33334 z m -71.666672,-4.13224 c -2.330209,-0.86618 -3,-2.16098 -3,-5.79939 0,-3.88815 0.568144,-4.82682 3.343047,-5.52328 3.693485,-0.92701 9.990287,2.36993 9.990287,5.23081 0,4.5583 -5.591318,7.85458 -10.333334,6.09186 z m 63.130362,-2.18185 c -1.43071,-1.4307 -0.83917,-3.01924 1.12428,-3.01924 1.05672,0 2.25328,0.53713 2.65901,1.19362 0.84828,1.37255 -2.58138,3.02754 -3.78329,1.82562 z m -8.11692,-3.04099 c 0.46061,-0.74529 1.39603,-1.00989 2.07869,-0.58798 1.84939,1.14299 1.50455,1.94306 -0.83749,1.94306 -1.14328,0 -1.70181,-0.60978 -1.2412,-1.35508 z m 46.76383,0.2007 c -0.57436,-0.92933 -0.68422,-2.04978 -0.24412,-2.48988 1.19329,-1.19328 2.49436,0.56174 1.84985,2.49526 -0.45163,1.3549 -0.76569,1.35385 -1.60573,-0.005 z m 6.98012,-1.14651 c -3.37748,-3.90159 -3.84511,-8.225 -1.05138,-9.72016 1.63607,-0.8756 2.74447,-0.86809 3.29479,0.0223 0.45611,0.73801 2.29252,0.97459 4.08092,0.52573 2.9816,-0.74833 3.25161,-0.42949 3.25161,3.8396 0,3.23157 -0.71373,4.90746 -2.33333,5.47873 -1.28333,0.45267 -2.97713,1.13725 -3.76399,1.52129 -0.78686,0.38403 -2.35225,-0.36635 -3.47862,-1.66753 z M 254.66667,128 c 0,-0.73333 0.93541,-1.33333 2.0787,-1.33333 1.14328,0 1.70786,0.6 1.25464,1.33333 -0.45323,0.73334 -1.38864,1.33334 -2.0787,1.33334 -0.69005,0 -1.25464,-0.6 -1.25464,-1.33334 z m -20,-2.66666 c 0,-0.73334 0.63541,-1.33334 1.41203,-1.33334 0.77661,0 1.0412,0.6 0.58797,1.33334 -0.45323,0.73333 -1.08864,1.33333 -1.41203,1.33333 -0.32338,0 -0.58797,-0.6 -0.58797,-1.33333 z m 3.94447,-14.06692 c -1.41946,-1.71033 -1.31854,-2.45793 0.58489,-4.33334 2.16583,-2.13394 2.41243,-2.11513 4.2188,0.32176 1.05517,1.4235 1.91851,3.3735 1.91851,4.33334 0,2.41507 -4.63496,2.19322 -6.7222,-0.32176 z m -20.66306,-0.68377 c -0.48178,-0.77954 0.0828,-2.47679 1.25464,-3.77165 1.17184,-1.29487 2.13062,-3.35706 2.13062,-4.58265 0,-2.26966 1.13645,-2.694689 6.15885,-2.30338 1.82105,0.14188 3.07452,-0.732057 3.52596,-2.458361 0.74236,-2.838763 6.29069,-4.939623 9.64553,-3.65225 C 245.02634,95.488465 242.14432,104 237.21482,104 c -1.23852,0 -2.16852,0.94242 -2.06667,2.09425 0.33013,3.73351 -15.16724,7.77758 -17.20007,4.4884 z m -22.85088,-3.38388 c -0.829,-2.16032 1.51459,-4.47426 4.56947,-4.51168 2.11883,-0.026 2.1582,2.95471 0.0667,5.04625 -2.17948,2.17948 -3.66018,2.00875 -4.63614,-0.53457 z m -31.93069,-1.5321 c -0.41239,-1.28333 -1.34276,-3.92637 -2.06748,-5.873408 -1.91233,-5.137692 -0.91355,-9.690479 2.23431,-10.184648 2.20005,-0.345378 2.3167,-0.176355 0.66666,0.965962 -1.74186,1.205888 -1.71568,1.387227 0.2029,1.405008 3.2246,0.02989 5.32757,7.056991 3.59732,12.020416 -1.56164,4.47972 -3.50512,5.17876 -4.63371,1.66667 z m 39.39581,-3.79241 c -1.50614,-1.81478 -1.28621,-2.486895 1.5034,-4.594673 2.61564,-1.976324 2.93507,-2.802545 1.60095,-4.140929 -3.71229,-3.724147 -1.09011,-8.197043 3.19592,-5.451572 1.87681,1.202218 2.73883,5.780353 1.46891,7.801387 -0.5144,0.818658 0.25057,2.561652 1.69994,3.873317 1.44938,1.31167 2.63523,2.89185 2.63523,3.51153 0,2.06464 -10.26484,1.21742 -12.10435,-0.99906 z m 70.1613,-3.115461 c -0.91077,-1.473641 1.19253,-3.064869 2.42375,-1.83366 1.26772,1.267715 1.03145,3.074861 -0.402,3.074861 -0.69006,0 -1.59984,-0.558539 -2.02175,-1.241201 z M 216,96.000002 c 0,-0.733333 0.6,-1.333333 1.33334,-1.333333 0.73333,0 1.33333,0.6 1.33333,1.333333 0,0.733333 -0.6,1.333333 -1.33333,1.333333 -0.73334,0 -1.33334,-0.6 -1.33334,-1.333333 z m 37.31238,-2.972366 c -1.84302,-1.717026 -4.48322,-2.802957 -6.25142,-2.571245 -3.581,0.469267 -4.06981,-1.759297 -0.78865,-3.595532 1.89504,-1.060512 2.01884,-1.827973 0.74565,-4.622311 -0.83966,-1.842862 -3.20486,-4.155002 -5.256,-5.138088 -4.05085,-1.941519 -5.56144,-5.834319 -3.18582,-8.209921 0.82108,-0.821082 4.02734,-1.603275 7.12504,-1.738207 3.09768,-0.134932 7.21937,-0.657351 9.1593,-1.160929 6.1485,-1.596066 12.62749,2.574844 15.05177,9.689726 2.82536,8.291979 2.68852,15.36189 -0.35056,18.112222 -3.62632,3.281772 -12.34588,2.870882 -16.24931,-0.765715 z M 130.66667,86.078691 c 0,-2.001552 2.39378,-4.129353 3.45343,-3.069708 0.92997,0.929971 -0.91117,4.991019 -2.26275,4.991019 -0.65487,0 -1.19068,-0.86459 -1.19068,-1.921311 z m 43,-1.628397 c -2.70296,-1.09067 -1.90744,-4.076311 1.31033,-4.917779 3.54764,-0.927728 5.68886,0.809123 4.57523,3.711197 -0.79989,2.084483 -2.72952,2.480071 -5.88556,1.206582 z m -11.9028,-17.251526 c -1.04707,-2.728612 2.2364,-4.858397 4.54119,-2.945592 1.3014,1.080067 1.35441,1.883907 0.2148,3.257064 -2.00718,2.418489 -3.75227,2.304204 -4.75599,-0.311472 z m 106.23614,-1.944123 c 0,-0.776612 0.6,-1.041202 1.33333,-0.587977 0.73333,0.453225 1.33333,1.088635 1.33333,1.412023 0,0.323388 -0.6,0.587977 -1.33333,0.587977 -0.73333,0 -1.33333,-0.635411 -1.33333,-1.412023 z M 213.33334,54.745357 c 0,-0.690055 0.6,-1.625464 1.33333,-2.078689 C 215.4,52.213442 216,52.778028 216,53.921312 c 0,1.143278 -0.6,2.078689 -1.33333,2.078689 -0.73333,0 -1.33333,-0.564589 -1.33333,-1.254644 z m -91.20928,-3.569523 c -0.48298,-1.258628 -0.29881,-2.867752 0.40928,-3.575833 1.92673,-1.926731 5.72929,0.0516 5.21656,2.713989 -0.60087,3.12009 -4.52839,3.721759 -5.62584,0.861844 z m 75.51484,0.574167 c 0.82409,-2.472297 3.69444,-2.882347 3.69444,-0.527777 0,1.16111 -0.95,2.11111 -2.11111,2.11111 -1.16112,0 -1.87361,-0.7125 -1.58333,-1.583333 z m 16.97509,-7.146811 c -1.24687,-1.502374 -1.14007,-2.074164 0.50533,-2.705563 2.24918,-0.86309 4.88068,0.235955 4.88068,2.038411 0,2.09989 -3.80572,2.571294 -5.38601,0.667152 z M 186,32.000001 c 0.45323,-0.733334 1.38864,-1.333334 2.0787,-1.333334 0.69005,0 1.25464,0.6 1.25464,1.333334 0,0.733333 -0.93542,1.333333 -2.0787,1.333333 -1.14328,0 -1.70786,-0.6 -1.25464,-1.333333 z"
       id="path239" />
  </g>
</svg>
