<?xml version="1.0" standalone="no"?>
<!DOCTYPE svg PUBLIC "-//W3C//DTD SVG 20010904//EN" "http://www.w3.org/TR/2001/REC-SVG-20010904/DTD/svg10.dtd">
<!-- Created using Krita: https://krita.org -->
<svg xmlns="http://www.w3.org/2000/svg" 
    xmlns:xlink="http://www.w3.org/1999/xlink"
    xmlns:krita="http://krita.org/namespaces/svg/krita"
    xmlns:sodipodi="http://sodipodi.sourceforge.net/DTD/sodipodi-0.dtd"
    width="512pt"
    height="512pt"
    viewBox="0 0 512 512">
<defs/>
<path id="shape0" fill="#000000" fill-rule="evenodd" stroke-opacity="0" stroke="#000000" stroke-width="0" stroke-linecap="square" stroke-linejoin="bevel" d="M353.697 297.824L374.302 301.875L375.681 302.193L377.018 302.593L378.311 303.074L379.559 303.631L380.759 304.261L381.909 304.962L383.006 305.728L384.049 306.558L385.035 307.448L385.961 308.395L386.827 309.394L387.629 310.444L388.365 311.54L389.033 312.68L389.63 313.859L390.156 315.075L390.606 316.324L390.98 317.604L391.274 318.91L391.487 320.239L391.616 321.588L391.659 322.954L391.614 324.333L391.479 325.722L391.251 327.118L385.465 356.555L385.147 357.933L384.747 359.27L384.266 360.564L383.709 361.812L383.078 363.012L382.378 364.161L381.612 365.259L380.782 366.301L379.892 367.287L378.945 368.214L377.946 369.079L376.896 369.881L375.8 370.617L374.66 371.285L373.481 371.883L372.265 372.408L371.015 372.859L369.736 373.232L368.43 373.527L367.101 373.739L365.752 373.869L364.386 373.912L363.007 373.867L361.617 373.732L360.715 373.585L340.384 477.008L343.73 476.349L347.776 475.407L351.787 474.327L355.762 473.11L359.699 471.76L363.598 470.276L367.456 468.662L371.273 466.919L375.048 465.049L378.778 463.053L382.463 460.934L386.101 458.694L389.692 456.334L393.233 453.856L396.723 451.262L400.161 448.554L403.545 445.733L406.876 442.802L410.15 439.763L413.366 436.616L416.524 433.364L419.622 430.009L422.659 426.553L425.633 422.997L428.543 419.344L431.388 415.595L434.166 411.752L436.877 407.816L439.517 403.79L442.088 399.676L444.586 395.475L447.011 391.189L449.362 386.821L451.636 382.371L453.834 377.841L455.953 373.235L457.992 368.552L459.949 363.796L461.824 358.968L463.615 354.07L465.321 349.103L466.941 344.07L468.473 338.972L469.915 333.812L471.267 328.59L472.527 323.31L473.694 317.972L474.766 312.579L475.743 307.132L476.622 301.633L477.403 296.085L478.084 290.488L478.664 284.845L479.141 279.157L479.515 273.427L479.784 267.657L479.946 261.847L480 256L479.946 250.153L479.784 244.343L479.515 238.573L479.141 232.843L478.664 227.155L478.084 221.512L477.403 215.915L476.622 210.367L475.743 204.868L474.766 199.421L473.694 194.028L472.527 188.69L471.267 183.41L469.915 178.188L468.473 173.028L466.941 167.93L465.321 162.897L463.615 157.93L461.824 153.032L459.949 148.204L457.992 143.448L455.953 138.765L453.834 134.159L451.636 129.629L449.362 125.179L447.011 120.811L444.586 116.525L442.088 112.324L439.517 108.21L436.877 104.184L434.166 100.248L431.388 96.4052L428.543 92.6559L425.633 89.0025L422.659 85.4468L419.622 81.9906L416.524 78.6357L413.366 75.3841L410.15 72.2374L406.876 69.1977L403.545 66.2666L400.161 63.446L396.723 60.7379L393.233 58.1439L389.692 55.666L386.101 53.3059L382.463 51.0656L378.778 48.9468L375.048 46.9514L371.273 45.0813L367.456 43.3382L363.598 41.724L359.699 40.2405L355.762 38.8896L351.787 37.6731L347.776 36.5928L343.73 35.6506L339.651 34.8484L335.54 34.1879L331.398 33.6709L327.226 33.2994L323.026 33.0752L318.8 33L314.574 33.0752L310.374 33.2994L306.202 33.6709L302.06 34.1879L297.949 34.8484L293.87 35.6506L289.824 36.5928L285.813 37.6731L281.838 38.8896L277.901 40.2405L274.002 41.724L270.144 43.3382L266.327 45.0813L262.552 46.9514L258.822 48.9468L255.137 51.0656L251.499 53.3059L247.908 55.666L244.367 58.1439L240.877 60.7379L237.439 63.446L234.055 66.2666L230.724 69.1977L227.45 72.2374L224.234 75.3841L221.076 78.6357L217.978 81.9906L214.941 85.4468L211.967 89.0025L209.057 92.6559L206.212 96.4052L203.434 100.248L200.723 104.184L198.083 108.21L195.512 112.324L193.014 116.525L190.589 120.811L188.238 125.179L185.964 129.629L183.766 134.159L181.647 138.765L179.608 143.448L177.651 148.204L175.776 153.032L173.985 157.93L172.279 162.897L170.659 167.93L169.127 173.028L167.685 178.188L166.333 183.41L165.073 188.69L163.906 194.028L162.834 199.421L161.857 204.868L160.978 210.367L160.197 215.915L159.516 221.512L158.936 227.155L158.459 232.843L158.085 238.573L157.816 244.343L157.654 250.153L157.6 256L157.654 261.847L157.816 267.657L158.085 273.427L158.459 279.157L158.936 284.845L159.516 290.488L160.197 296.085L160.978 301.633L161.857 307.132L162.834 312.579L163.906 317.972L165.073 323.31L166.333 328.59L167.685 333.812L169.127 338.972L170.659 344.07L172.279 349.103L173.985 354.07L175.776 358.968L177.651 363.796L179.608 368.552L181.647 373.235L183.766 377.841L185.964 382.371L188.238 386.821L190.589 391.189L193.014 395.475L195.512 399.676L198.083 403.79L200.723 407.816L203.434 411.752L206.212 415.595L209.057 419.344L211.967 422.997L214.941 426.553L217.978 430.009L221.076 433.364L224.234 436.616L227.45 439.763L230.724 442.802L234.055 445.733L237.439 448.554L240.877 451.262L244.367 453.856L247.908 456.334L251.499 458.694L255.137 460.934L258.822 463.053L262.552 465.049L266.327 466.919L270.144 468.662L274.002 470.276L277.901 471.76L281.838 473.11L285.813 474.327L289.824 475.407L293.87 476.349L297.949 477.152L302.06 477.812L306.202 478.329L310.374 478.701L314.574 478.925L317.576 478.978L339.128 369.341L338.238 369.136L336.901 368.735L335.607 368.255L334.359 367.698L333.159 367.067L332.009 366.367L330.912 365.6L329.869 364.77L328.884 363.88L327.957 362.934L327.091 361.934L326.29 360.885L325.554 359.788L324.886 358.649L324.288 357.47L323.763 356.253L323.312 355.004L322.939 353.725L322.644 352.419L322.431 351.09L322.302 349.74L322.259 348.375L322.304 346.995L322.439 345.606L322.667 344.21L328.453 314.774L328.771 313.395L329.172 312.058L329.652 310.765L330.209 309.517L330.84 308.317L331.54 307.167L332.307 306.07L333.137 305.027L334.026 304.041L334.973 303.115L335.973 302.249L337.022 301.447L338.118 300.711L339.258 300.043L340.437 299.446L341.653 298.92L342.903 298.47L344.182 298.096L345.488 297.802L346.817 297.589L348.166 297.46L349.532 297.417L350.911 297.461L352.301 297.597L353.697 297.824M512 256L511.935 249.288L511.74 242.619L511.416 235.994L510.967 229.416L510.392 222.887L509.694 216.409L508.874 209.984L507.935 203.614L506.876 197.302L505.701 191.049L504.411 184.857L503.006 178.729L501.49 172.667L499.863 166.673L498.127 160.749L496.284 154.897L494.335 149.119L492.282 143.418L490.126 137.795L487.869 132.252L485.513 126.792L483.06 121.417L480.51 116.128L477.865 110.929L475.128 105.82L472.299 100.805L469.38 95.8851L466.374 91.0625L463.28 86.3393L460.102 81.7178L456.84 77.2L453.497 72.788L450.073 68.4839L446.571 64.2899L442.992 60.208L439.337 56.2403L435.609 52.389L431.808 48.6562L427.937 45.0439L423.997 41.5543L419.989 38.1894L415.916 34.9515L411.778 31.8426L407.578 28.8647L403.316 26.0201L398.996 23.3108L394.617 20.739L390.182 18.3067L385.693 16.016L381.15 13.8691L376.557 11.868L371.913 10.015L367.221 8.31196L362.482 6.76114L357.699 5.36462L352.872 4.1245L348.003 3.04289L343.094 2.1219L338.146 1.36364L333.161 0.770209L328.141 0.34372L323.086 0.0862814L319 0.0169633L319 0L196 0L196 0.0303702L194.21 0L189.123 0.0862814L184.069 0.34372L179.049 0.770209L174.064 1.36364L169.116 2.1219L164.207 3.04289L159.338 4.1245L154.511 5.36462L149.727 6.76114L144.989 8.31196L140.297 10.015L135.653 11.868L131.059 13.8691L126.517 16.016L122.027 18.3067L117.593 20.739L113.214 23.3108L108.893 26.0201L104.632 28.8647L100.432 31.8426L96.2941 34.9515L92.2207 38.1894L90.2887 39.8116L202.342 39.8116L204.022 39.8595L205.664 40.0006L207.263 40.2314L208.814 40.5481L210.313 40.9469L211.752 41.4241L213.128 41.9761L214.435 42.599L215.668 43.2892L216.821 44.043L217.89 44.8566L218.868 45.7264L219.751 46.6485L220.533 47.6194L221.209 48.6352L221.775 49.6922L222.223 50.7868L222.551 51.9153L222.751 53.0738L222.819 54.2586L222.819 54.2924L222.751 55.4773L222.551 56.6358L222.223 57.7642L221.775 58.8588L221.209 59.9159L220.533 60.9317L219.751 61.9025L218.868 62.8247L217.89 63.6944L216.821 64.5081L215.668 65.2618L214.435 65.9521L213.128 66.575L211.752 67.127L210.313 67.6042L208.814 68.003L207.263 68.3196L205.664 68.5504L204.022 68.6916L202.342 68.7395L61.9331 68.7395L58.7128 72.788L55.3693 77.2L52.1076 81.7178L48.9293 86.3393L45.836 91.0625L42.8293 95.8851L39.9107 100.805L37.0819 105.82L34.3444 110.929L31.7 116.128L29.1501 121.417L26.6963 126.792L24.3403 132.252L22.0837 137.795L19.928 143.418L17.8749 149.119L15.9259 154.897L14.137 160.577L131.448 160.577L133.127 160.645L134.769 160.845L136.369 161.172L137.92 161.621L139.418 162.186L140.858 162.862L142.234 163.644L143.541 164.527L144.774 165.506L145.927 166.574L146.995 167.727L147.974 168.96L148.856 170.267L149.639 171.643L150.315 173.083L150.88 174.581L151.329 176.132L151.656 177.731L151.856 179.373L151.924 181.053L151.924 181.101L151.856 182.78L151.656 184.422L151.329 186.021L150.88 187.573L150.315 189.071L149.639 190.511L148.856 191.887L147.974 193.193L146.995 194.426L145.927 195.579L144.774 196.648L143.541 197.626L142.234 198.509L140.858 199.291L139.418 199.968L137.92 200.533L136.369 200.982L134.769 201.309L133.127 201.509L131.448 201.577L4.61657 201.577L4.275 203.614L3.33523 209.984L2.51558 216.409L1.81765 222.887L1.24301 229.416L0.793309 235.994L0.47011 242.619L0.27502 249.288L0.209635 256L0.27502 262.712L0.47011 269.381L0.793309 276.006L1.24301 282.584L1.81765 289.113L2.51558 295.591L3.33523 302.016L4.275 308.386L5.33331 314.698L6.37485 320.24L137.031 320.24L138.711 320.308L140.353 320.508L141.952 320.835L143.503 321.284L145.001 321.849L146.441 322.526L147.817 323.308L149.124 324.191L150.357 325.169L151.51 326.237L152.578 327.391L153.557 328.623L154.44 329.93L155.222 331.306L155.898 332.746L156.463 334.244L156.912 335.796L157.239 337.395L157.439 339.037L157.507 340.716L157.507 340.764L157.439 342.443L157.239 344.085L156.912 345.685L156.463 347.236L155.898 348.734L155.222 350.174L154.44 351.55L153.557 352.857L152.578 354.09L151.51 355.243L150.357 356.311L149.124 357.289L147.817 358.172L146.441 358.955L145.001 359.631L143.503 360.196L141.952 360.645L140.353 360.972L138.711 361.172L137.031 361.24L17.3215 361.24L17.8749 362.881L19.928 368.582L22.0837 374.205L24.3403 379.748L26.6963 385.208L29.1501 390.583L31.7 395.872L34.3444 401.071L37.0819 406.18L39.9107 411.195L42.8293 416.115L45.836 420.938L48.9293 425.661L52.1076 430.282L55.3693 434.8L58.7128 439.212L62.1364 443.516L65.6387 447.71L66.2165 448.369L209.937 448.369L211.616 448.417L213.258 448.558L214.858 448.789L216.409 449.106L217.907 449.504L219.347 449.982L220.723 450.534L222.03 451.157L223.263 451.847L224.416 452.601L225.484 453.414L226.462 454.284L227.345 455.206L228.128 456.177L228.804 457.193L229.369 458.25L229.818 459.344L230.145 460.473L230.345 461.631L230.413 462.816L230.413 462.85L230.345 464.035L230.145 465.193L229.818 466.322L229.369 467.416L228.804 468.473L228.128 469.489L227.345 470.46L226.462 471.382L225.484 472.252L224.416 473.066L223.263 473.819L222.03 474.51L220.723 475.133L219.347 475.685L217.907 476.162L216.409 476.561L214.858 476.877L213.258 477.108L211.616 477.249L209.937 477.297L96.6249 477.297L100.432 480.157L104.632 483.135L108.893 485.98L113.214 488.689L117.593 491.261L122.027 493.693L126.517 495.984L131.059 498.131L135.653 500.132L140.297 501.985L144.989 503.688L149.727 505.239L154.511 506.635L159.338 507.875L164.207 508.957L169.116 509.878L174.064 510.636L179.049 511.23L184.069 511.656L189.123 511.914L194.21 512L196 511.97L196 512L319 512L319 511.983L323.086 511.914L328.141 511.656L333.161 511.23L338.146 510.636L343.094 509.878L348.003 508.957L352.872 507.875L357.699 506.635L362.482 505.239L367.221 503.688L371.913 501.985L376.557 500.132L381.15 498.131L385.693 495.984L390.182 493.693L394.617 491.261L398.996 488.689L403.316 485.98L407.578 483.135L411.778 480.157L415.916 477.048L419.989 473.811L423.997 470.446L427.937 466.956L431.808 463.344L435.609 459.611L439.337 455.76L442.992 451.792L446.571 447.71L450.073 443.516L453.497 439.212L456.84 434.8L460.102 430.282L463.28 425.661L466.374 420.938L469.38 416.115L472.299 411.195L475.128 406.18L477.865 401.071L480.51 395.872L483.06 390.583L485.513 385.208L487.869 379.748L490.126 374.205L492.282 368.582L494.335 362.881L496.284 357.103L498.127 351.251L499.863 345.327L501.49 339.333L503.006 333.271L504.411 327.143L505.701 320.951L506.876 314.698L507.935 308.386L508.874 302.016L509.694 295.591L510.392 289.113L510.967 282.584L511.416 276.006L511.74 269.381L511.935 262.712L512 256" sodipodi:nodetypes="cccccccccccccccccccccccccccccccccccccccccccccccccccccccccccccccccccccccccccccccccccccccccccccccccccccccccccccccccccccccccccccccccccccccccccccccccccccccccccccccccccccccccccccccccccccccccccccccccccccccccccccccccccccccccccccccccccccccccccccccccccccccccccccccccccccccccccccccccccccccccccccccccccccccccccccccccccccccccccccccccccccccccccccccccccccccccccccccccccccccccccccccccccccccccccccccccccccccccccccccccccccccccccccccccccccccccccccccccccccccccccccccccccccccccccccccccccccccccccccccccccccccccccccccccccccccccccccccccccccccccccccccccccccccccccccccccccccccccccccccccccccccccccccccccccccccccccccccccccccccccccccccccccccccccccccccccccccccccccccccccccccccccccccccccccccccccccccccccccccccccccccccccccccccccccccccccccccccccccccccccccccccccccccccccccccccccccccccccccccccc"/>
</svg>
