<?xml version="1.0" standalone="no"?>
<!DOCTYPE svg PUBLIC "-//W3C//DTD SVG 20010904//EN" "http://www.w3.org/TR/2001/REC-SVG-20010904/DTD/svg10.dtd">
<!-- Created using Krita: https://krita.org -->
<svg xmlns="http://www.w3.org/2000/svg" 
    xmlns:xlink="http://www.w3.org/1999/xlink"
    xmlns:krita="http://krita.org/namespaces/svg/krita"
    xmlns:sodipodi="http://sodipodi.sourceforge.net/DTD/sodipodi-0.dtd"
    width="512pt"
    height="512pt"
    viewBox="0 0 512 512">
<defs/>
<path id="shape0" fill="#000000" fill-rule="evenodd" d="M512 128L511.914 124.644L511.656 121.309L511.23 117.997L510.636 114.708L509.878 111.443L508.957 108.204L507.875 104.992L506.635 101.807L505.239 98.6508L503.688 95.5243L501.985 92.4286L500.132 89.3647L498.131 86.3337L495.984 83.3367L493.693 80.3746L491.261 77.4486L488.689 74.5596L485.98 71.7088L483.135 68.8973L480.157 66.126L477.048 63.3959L473.811 60.7083L470.446 58.0641L466.956 55.4644L463.344 52.9101L459.611 50.4025L455.76 47.9425L451.792 45.5312L447.71 43.1697L443.516 40.8589L439.212 38.6L434.8 36.394L430.282 34.242L425.661 32.145L420.938 30.104L416.115 28.1202L411.195 26.1945L406.18 24.3281L401.071 22.5219L395.872 20.7771L390.583 19.0947L385.208 17.4758L379.748 15.9213L374.205 14.4324L368.582 13.0101L362.881 11.6554L357.103 10.3695L351.251 9.15334L345.327 8.008L339.333 6.93455L333.271 5.93402L327.143 5.00748L320.951 4.15598L314.698 3.38057L308.386 2.68231L302.016 2.06225L295.591 1.52145L289.113 1.06095L282.584 0.68182L276.006 0.385105L269.381 0.17186L262.712 0.0431407L256 0L249.288 0.0431407L242.619 0.17186L235.994 0.385105L229.416 0.68182L222.887 1.06095L216.409 1.52145L209.984 2.06225L203.614 2.68231L197.302 3.38057L191.049 4.15598L184.857 5.00748L178.729 5.93402L172.667 6.93455L166.673 8.008L160.749 9.15334L154.897 10.3695L149.119 11.6554L143.418 13.0101L137.795 14.4324L132.252 15.9213L126.792 17.4758L121.417 19.0947L116.128 20.7771L110.929 22.5219L105.82 24.3281L100.805 26.1945L95.8851 28.1202L91.0625 30.104L86.3393 32.145L81.7178 34.242L77.2 36.394L72.788 38.6L68.4839 40.8589L64.2899 43.1697L60.208 45.5312L56.2403 47.9425L52.389 50.4025L48.6562 52.9101L45.0439 55.4644L41.5543 58.0641L38.1894 60.7083L34.9515 63.3959L31.8426 66.126L28.8647 68.8973L26.0201 71.7088L23.3108 74.5596L20.739 77.4486L18.3067 80.3746L16.016 83.3367L13.8691 86.3337L11.868 89.3647L10.015 92.4286L8.31196 95.5243L6.76114 98.6508L5.36462 101.807L4.1245 104.992L3.04289 108.204L2.1219 111.443L1.36364 114.708L0.770209 117.997L0.34372 121.309L0.0862814 124.644L0 128L0.0360073 129.401L0 129.401L0 248.433L0.00647604 248.433L0.0862814 251.537L0.34372 254.872L0.770209 258.184L1.36364 261.473L2.1219 264.737L3.04289 267.976L4.1245 271.189L5.36462 274.374L6.76114 277.53L8.31196 280.657L10.015 283.752L11.868 286.816L13.8691 289.847L16.016 292.844L18.3067 295.806L20.739 298.732L23.3108 301.621L26.0201 304.472L28.8647 307.284L31.8426 310.055L34.9515 312.785L38.1894 315.472L41.5543 318.117L45.0439 320.716L48.6562 323.271L52.389 325.778L56.2403 328.238L60.208 330.65L64.2899 333.011L68.4839 335.322L72.788 337.581L77.2 339.787L81.7178 341.939L86.3393 344.036L91.0625 346.077L95.8851 348.061L100.805 349.986L105.82 351.853L110.929 353.659L116.128 355.404L121.417 357.086L126.792 358.705L132.252 360.26L137.795 361.748L143.418 363.171L149.119 364.525L154.897 365.811L160.749 367.027L166.673 368.173L172.667 369.246L178.729 370.247L184.857 371.173L191.049 372.025L197.302 372.8L203.614 373.498L209.984 374.119L216.409 374.659L222.887 375.12L229.416 375.499L235.994 375.796L242.619 376.009L249.288 376.138L256 376.181L262.712 376.138L269.381 376.009L276.006 375.796L282.584 375.499L289.113 375.12L295.591 374.659L302.016 374.119L308.386 373.498L314.698 372.8L320.951 372.025L327.143 371.173L333.271 370.247L339.333 369.246L345.327 368.173L351.251 367.027L357.103 365.811L362.881 364.525L368.582 363.171L374.205 361.748L379.748 360.26L385.208 358.705L390.583 357.086L395.872 355.404L401.071 353.659L406.18 351.853L411.195 349.986L416.115 348.061L420.938 346.077L425.661 344.036L430.282 341.939L434.8 339.787L439.212 337.581L443.516 335.322L447.71 333.011L451.792 330.65L455.76 328.238L459.611 325.778L463.344 323.271L466.956 320.716L470.446 318.117L473.811 315.472L477.048 312.785L480.157 310.055L483.135 307.284L485.98 304.472L488.689 301.621L491.261 298.732L493.693 295.806L495.984 292.844L498.131 289.847L500.132 286.816L501.985 283.752L503.688 280.657L505.239 277.53L506.635 274.374L507.875 271.189L508.957 267.976L509.878 264.737L510.636 261.473L511.23 258.184L511.656 254.872L511.914 251.537L511.994 248.433L512 248.433L512 129.401L511.964 129.401L512 128M480.126 128L480.05 125.274L479.825 122.566L479.451 119.876L478.932 117.204L478.268 114.553L477.462 111.922L476.515 109.313L475.429 106.727L474.206 104.163L472.848 101.624L471.358 99.1098L469.735 96.6214L467.983 94.1597L466.104 91.7256L464.098 89.3198L461.969 86.9434L459.717 84.5971L457.345 82.2817L454.855 79.9983L452.248 77.7475L449.526 75.5302L446.691 73.3474L443.745 71.1998L440.69 69.0884L437.528 67.0139L434.259 64.9773L430.888 62.9793L427.414 61.0209L423.84 59.1029L420.168 57.2262L416.4 55.3916L412.538 53.5999L408.582 51.8521L404.536 50.1489L400.401 48.4913L396.179 46.8801L391.872 45.3161L387.481 43.8003L383.009 42.3334L378.456 40.9163L373.826 39.5499L369.12 38.235L364.34 36.9725L359.488 35.7632L354.565 34.6081L349.573 33.5079L344.515 32.4635L339.391 31.4757L334.205 30.5455L328.957 29.6737L323.65 28.8611L318.285 28.1086L312.864 27.417L307.39 26.7872L301.863 26.2201L296.287 25.7165L290.662 25.2773L284.99 24.9033L279.274 24.5954L273.515 24.3544L267.715 24.1812L261.876 24.0767L256 24.0416L250.124 24.0767L244.285 24.1812L238.485 24.3544L232.726 24.5954L227.01 24.9033L221.338 25.2773L215.713 25.7165L210.137 26.2201L204.61 26.7872L199.136 27.417L193.715 28.1086L188.35 28.8611L183.043 29.6737L177.795 30.5455L172.609 31.4757L167.485 32.4635L162.427 33.5079L157.435 34.6081L152.512 35.7632L147.66 36.9725L142.88 38.235L138.174 39.5499L133.544 40.9163L128.991 42.3334L124.519 43.8003L120.128 45.3161L115.821 46.8801L111.599 48.4913L107.464 50.1489L103.418 51.8521L99.4623 53.5999L95.5997 55.3916L91.8315 57.2262L88.1597 59.1029L84.586 61.0209L81.1123 62.9793L77.7405 64.9773L74.4725 67.0139L71.3099 69.0884L68.2548 71.1998L65.309 73.3474L62.4742 75.5302L59.7523 77.7475L57.1453 79.9983L54.6549 82.2817L52.2829 84.5971L50.0313 86.9434L47.9018 89.3198L45.8963 91.7256L44.0167 94.1597L42.2648 96.6214L40.6425 99.1098L39.1515 101.624L37.7938 104.163L36.5711 106.727L35.4854 109.313L34.5385 111.922L33.7322 114.553L33.0683 117.204L32.5488 119.876L32.1754 122.566L31.95 125.274L31.8745 128L31.95 130.726L32.1754 133.434L32.5488 136.124L33.0683 138.796L33.7322 141.447L34.5385 144.078L35.4854 146.687L36.5711 149.273L37.7938 151.837L39.1515 154.376L40.6425 156.89L42.2648 159.379L44.0167 161.84L45.8963 164.274L47.9018 166.68L50.0313 169.057L52.2829 171.403L54.6549 173.718L57.1453 176.002L59.7523 178.253L62.4742 180.47L65.309 182.653L68.2548 184.8L71.3099 186.912L74.4725 188.986L77.7405 191.023L81.1123 193.021L84.586 194.979L88.1597 196.897L91.8315 198.774L95.5997 200.608L99.4623 202.4L103.418 204.148L107.464 205.851L111.599 207.509L115.821 209.12L120.128 210.684L124.519 212.2L128.991 213.667L133.544 215.084L138.174 216.45L142.88 217.765L147.66 219.028L152.512 220.237L157.435 221.392L162.427 222.492L167.485 223.537L172.609 224.524L177.795 225.454L183.043 226.326L188.35 227.139L193.715 227.891L199.136 228.583L204.61 229.213L210.137 229.78L215.713 230.283L221.338 230.723L227.01 231.097L232.726 231.405L238.485 231.646L244.285 231.819L250.124 231.923L256 231.958L261.876 231.923L267.715 231.819L273.515 231.646L279.274 231.405L284.99 231.097L290.662 230.723L296.287 230.283L301.863 229.78L307.39 229.213L312.864 228.583L318.285 227.891L323.65 227.139L328.957 226.326L334.205 225.454L339.391 224.524L344.515 223.537L349.573 222.492L354.565 221.392L359.488 220.237L364.34 219.028L369.12 217.765L373.826 216.45L378.456 215.084L383.009 213.667L387.481 212.2L391.872 210.684L396.179 209.12L400.401 207.509L404.536 205.851L408.582 204.148L412.538 202.4L416.4 200.608L420.168 198.774L423.84 196.897L427.414 194.979L430.888 193.021L434.259 191.023L437.528 188.986L440.69 186.912L443.745 184.8L446.691 182.653L449.526 180.47L452.248 178.253L454.855 176.002L457.345 173.718L459.717 171.403L461.969 169.057L464.098 166.68L466.104 164.274L467.983 161.84L469.735 159.379L471.358 156.89L472.848 154.376L474.206 151.837L475.429 149.273L476.515 146.687L477.462 144.078L478.268 141.447L478.932 138.796L479.451 136.124L479.825 133.434L480.05 130.726L480.126 128" sodipodi:nodetypes="cccccccccccccccccccccccccccccccccccccccccccccccccccccccccccccccccccccccccccccccccccccccccccccccccccccccccccccccccccccccccccccccccccccccccccccccccccccccccccccccccccccccccccccccccccccccccccccccccccccccccccccccccccccccccccccccccccccccccccccccccccccccccccccccccccccccccccccccccccccccccccccccccccccccccccccccccccccccccccccccccccccccccccccccccccccccccccccccccccccccccccccccccccccccccccccccccccccccccccccccccccccccccccccccccccccccccccccccccccccccccccccccccccccccccccccccccccccccccccccccccccccccccccccccccccccccccccccccccc"/>
</svg>
