<?xml version="1.0" standalone="no"?>
<!DOCTYPE svg PUBLIC "-//W3C//DTD SVG 20010904//EN" "http://www.w3.org/TR/2001/REC-SVG-20010904/DTD/svg10.dtd">
<!-- Created using Krita: https://krita.org -->
<svg xmlns="http://www.w3.org/2000/svg" 
    xmlns:xlink="http://www.w3.org/1999/xlink"
    xmlns:krita="http://krita.org/namespaces/svg/krita"
    xmlns:sodipodi="http://sodipodi.sourceforge.net/DTD/sodipodi-0.dtd"
    width="512pt"
    height="512pt"
    viewBox="0 0 512 512">
<defs/>
<path id="shape0" fill="#000000" fill-rule="evenodd" d="M512 128L511.914 124.644L511.656 121.309L511.23 117.997L510.636 114.708L509.878 111.443L508.957 108.204L507.875 104.992L506.635 101.807L505.239 98.6508L503.688 95.5243L501.985 92.4286L500.132 89.3647L498.131 86.3337L495.984 83.3367L493.693 80.3746L491.261 77.4486L488.689 74.5596L485.98 71.7088L483.135 68.8973L480.157 66.126L477.048 63.3959L473.811 60.7083L470.446 58.0641L466.956 55.4644L463.344 52.9101L459.611 50.4025L455.76 47.9425L451.792 45.5312L447.71 43.1697L443.516 40.8589L439.212 38.6L434.8 36.394L430.282 34.242L425.661 32.145L420.938 30.104L416.115 28.1202L411.195 26.1945L406.18 24.3281L401.071 22.5219L395.872 20.7771L390.583 19.0947L385.208 17.4758L379.748 15.9213L374.205 14.4324L368.582 13.0101L362.881 11.6554L357.103 10.3695L351.251 9.15334L345.327 8.008L339.333 6.93455L333.271 5.93402L327.143 5.00748L320.951 4.15598L314.698 3.38057L308.386 2.68231L302.016 2.06225L295.591 1.52145L289.113 1.06095L282.584 0.68182L276.006 0.385105L269.381 0.17186L262.712 0.0431407L256 0L249.288 0.0431407L242.619 0.17186L235.994 0.385105L229.416 0.68182L222.887 1.06095L216.409 1.52145L209.984 2.06225L203.614 2.68231L197.302 3.38057L191.049 4.15598L184.857 5.00748L178.729 5.93402L172.667 6.93455L166.673 8.008L160.749 9.15334L154.897 10.3695L149.119 11.6554L143.418 13.0101L137.795 14.4324L132.252 15.9213L126.792 17.4758L121.417 19.0947L116.128 20.7771L110.929 22.5219L105.82 24.3281L100.805 26.1945L95.8851 28.1202L91.0625 30.104L86.3393 32.145L81.7178 34.242L77.2 36.394L72.788 38.6L68.4839 40.8589L64.2899 43.1697L60.208 45.5312L56.2403 47.9425L52.389 50.4025L48.6562 52.9101L45.0439 55.4644L41.5543 58.0641L38.1894 60.7083L34.9515 63.3959L31.8426 66.126L28.8647 68.8973L26.0201 71.7088L23.3108 74.5596L20.739 77.4486L18.3067 80.3746L16.016 83.3367L13.8691 86.3337L11.868 89.3647L10.015 92.4286L8.31196 95.5243L6.76114 98.6508L5.36462 101.807L4.1245 104.992L3.04289 108.204L2.1219 111.443L1.36364 114.708L0.770209 117.997L0.34372 121.309L0.0862814 124.644L0 128L0.0360073 129.401L0 129.401L0 383.252L0.00647604 383.252L0.0862814 386.356L0.34372 389.691L0.770209 393.003L1.36364 396.292L2.1219 399.557L3.04289 402.796L4.1245 406.008L5.36462 409.193L6.76114 412.349L8.31196 415.476L10.015 418.571L11.868 421.635L13.8691 424.666L16.016 427.663L18.3067 430.625L20.739 433.551L23.3108 436.44L26.0201 439.291L28.8647 442.103L31.8426 444.874L34.9515 447.604L38.1894 450.292L41.5543 452.936L45.0439 455.536L48.6562 458.09L52.389 460.597L56.2403 463.057L60.208 465.469L64.2899 467.83L68.4839 470.141L72.788 472.4L77.2 474.606L81.7178 476.758L86.3393 478.855L91.0625 480.896L95.8851 482.88L100.805 484.805L105.82 486.672L110.929 488.478L116.128 490.223L121.417 491.905L126.792 493.524L132.252 495.079L137.795 496.568L143.418 497.99L149.119 499.345L154.897 500.631L160.749 501.847L166.673 502.992L172.667 504.065L178.729 505.066L184.857 505.993L191.049 506.844L197.302 507.619L203.614 508.318L209.984 508.938L216.409 509.479L222.887 509.939L229.416 510.318L235.994 510.615L242.619 510.828L249.288 510.957L256 511L262.712 510.957L269.381 510.828L276.006 510.615L282.584 510.318L289.113 509.939L295.591 509.479L302.016 508.938L308.386 508.318L314.698 507.619L320.951 506.844L327.143 505.993L333.271 505.066L339.333 504.065L345.327 502.992L351.251 501.847L357.103 500.631L362.881 499.345L368.582 497.99L374.205 496.568L379.748 495.079L385.208 493.524L390.583 491.905L395.872 490.223L401.071 488.478L406.18 486.672L411.195 484.805L416.115 482.88L420.938 480.896L425.661 478.855L430.282 476.758L434.8 474.606L439.212 472.4L443.516 470.141L447.71 467.83L451.792 465.469L455.76 463.057L459.611 460.597L463.344 458.09L466.956 455.536L470.446 452.936L473.811 450.292L477.048 447.604L480.157 444.874L483.135 442.103L485.98 439.291L488.689 436.44L491.261 433.551L493.693 430.625L495.984 427.663L498.131 424.666L500.132 421.635L501.985 418.571L503.688 415.476L505.239 412.349L506.635 409.193L507.875 406.008L508.957 402.796L509.878 399.557L510.636 396.292L511.23 393.003L511.656 389.691L511.914 386.356L511.994 383.252L512 383.252L512 129.401L511.964 129.401L512 128M480.126 128L480.05 125.274L479.825 122.566L479.451 119.876L478.932 117.204L478.268 114.553L477.462 111.922L476.515 109.313L475.429 106.727L474.206 104.163L472.848 101.624L471.358 99.1098L469.735 96.6214L467.983 94.1597L466.104 91.7256L464.098 89.3198L461.969 86.9434L459.717 84.5971L457.345 82.2817L454.855 79.9983L452.248 77.7475L449.526 75.5302L446.691 73.3474L443.745 71.1998L440.69 69.0884L437.528 67.0139L434.259 64.9773L430.888 62.9793L427.414 61.0209L423.84 59.1029L420.168 57.2262L416.4 55.3916L412.538 53.5999L408.582 51.8521L404.536 50.1489L400.401 48.4913L396.179 46.8801L391.872 45.3161L387.481 43.8003L383.009 42.3334L378.456 40.9163L373.826 39.5499L369.12 38.235L364.34 36.9725L359.488 35.7632L354.565 34.6081L349.573 33.5079L344.515 32.4635L339.391 31.4757L334.205 30.5455L328.957 29.6737L323.65 28.8611L318.285 28.1086L312.864 27.417L307.39 26.7872L301.863 26.2201L296.287 25.7165L290.662 25.2773L284.99 24.9033L279.274 24.5954L273.515 24.3544L267.715 24.1812L261.876 24.0767L256 24.0416L250.124 24.0767L244.285 24.1812L238.485 24.3544L232.726 24.5954L227.01 24.9033L221.338 25.2773L215.713 25.7165L210.137 26.2201L204.61 26.7872L199.136 27.417L193.715 28.1086L188.35 28.8611L183.043 29.6737L177.795 30.5455L172.609 31.4757L167.485 32.4635L162.427 33.5079L157.435 34.6081L152.512 35.7632L147.66 36.9725L142.88 38.235L138.174 39.5499L133.544 40.9163L128.991 42.3334L124.519 43.8003L120.128 45.3161L115.821 46.8801L111.599 48.4913L107.464 50.1489L103.418 51.8521L99.4623 53.5999L95.5997 55.3916L91.8315 57.2262L88.1597 59.1029L84.586 61.0209L81.1123 62.9793L77.7405 64.9773L74.4725 67.0139L71.3099 69.0884L68.2548 71.1998L65.309 73.3474L62.4742 75.5302L59.7523 77.7475L57.1453 79.9983L54.6549 82.2817L52.2829 84.5971L50.0313 86.9434L47.9018 89.3198L45.8963 91.7256L44.0167 94.1597L42.2648 96.6214L40.6425 99.1098L39.1515 101.624L37.7938 104.163L36.5711 106.727L35.4854 109.313L34.5385 111.922L33.7322 114.553L33.0683 117.204L32.5488 119.876L32.1754 122.566L31.95 125.274L31.8745 128L31.95 130.726L32.1754 133.434L32.5488 136.124L33.0683 138.796L33.7322 141.447L34.5385 144.078L35.4854 146.687L36.5711 149.273L37.7938 151.837L39.1515 154.376L40.6425 156.89L42.2648 159.379L44.0167 161.84L45.8963 164.274L47.9018 166.68L50.0313 169.057L52.2829 171.403L54.6549 173.718L57.1453 176.002L59.7523 178.253L62.4742 180.47L65.309 182.653L68.2548 184.8L71.3099 186.912L74.4725 188.986L77.7405 191.023L81.1123 193.021L84.586 194.979L88.1597 196.897L91.8315 198.774L95.5997 200.608L99.4623 202.4L103.418 204.148L107.464 205.851L111.599 207.509L115.821 209.12L120.128 210.684L124.519 212.2L128.991 213.667L133.544 215.084L138.174 216.45L142.88 217.765L147.66 219.028L152.512 220.237L157.435 221.392L162.427 222.492L167.485 223.537L172.609 224.524L177.795 225.454L183.043 226.326L188.35 227.139L193.715 227.891L199.136 228.583L204.61 229.213L210.137 229.78L215.713 230.283L221.338 230.723L227.01 231.097L232.726 231.405L238.485 231.646L244.285 231.819L250.124 231.923L256 231.958L261.876 231.923L267.715 231.819L273.515 231.646L279.274 231.405L284.99 231.097L290.662 230.723L296.287 230.283L301.863 229.78L307.39 229.213L312.864 228.583L318.285 227.891L323.65 227.139L328.957 226.326L334.205 225.454L339.391 224.524L344.515 223.537L349.573 222.492L354.565 221.392L359.488 220.237L364.34 219.028L369.12 217.765L373.826 216.45L378.456 215.084L383.009 213.667L387.481 212.2L391.872 210.684L396.179 209.12L400.401 207.509L404.536 205.851L408.582 204.148L412.538 202.4L416.4 200.608L420.168 198.774L423.84 196.897L427.414 194.979L430.888 193.021L434.259 191.023L437.528 188.986L440.69 186.912L443.745 184.8L446.691 182.653L449.526 180.47L452.248 178.253L454.855 176.002L457.345 173.718L459.717 171.403L461.969 169.057L464.098 166.68L466.104 164.274L467.983 161.84L469.735 159.379L471.358 156.89L472.848 154.376L474.206 151.837L475.429 149.273L476.515 146.687L477.462 144.078L478.268 141.447L478.932 138.796L479.451 136.124L479.825 133.434L480.05 130.726L480.126 128" sodipodi:nodetypes="cccccccccccccccccccccccccccccccccccccccccccccccccccccccccccccccccccccccccccccccccccccccccccccccccccccccccccccccccccccccccccccccccccccccccccccccccccccccccccccccccccccccccccccccccccccccccccccccccccccccccccccccccccccccccccccccccccccccccccccccccccccccccccccccccccccccccccccccccccccccccccccccccccccccccccccccccccccccccccccccccccccccccccccccccccccccccccccccccccccccccccccccccccccccccccccccccccccccccccccccccccccccccccccccccccccccccccccccccccccccccccccccccccccccccccccccccccccccccccccccccccccccccccccccccccccccccccccccccc"/>
</svg>
