<?xml version="1.0" encoding="UTF-8" standalone="no"?>
<!-- Created using Krita: https://krita.org -->

<svg
   width="512pt"
   height="512pt"
   viewBox="0 0 512 512"
   version="1.1"
   id="svg5"
   sodipodi:docname="Upgrade.svg"
   inkscape:version="1.2.1 (9c6d41e410, 2022-07-14)"
   xmlns:inkscape="http://www.inkscape.org/namespaces/inkscape"
   xmlns:sodipodi="http://sodipodi.sourceforge.net/DTD/sodipodi-0.dtd"
   xmlns="http://www.w3.org/2000/svg"
   xmlns:svg="http://www.w3.org/2000/svg">
  <sodipodi:namedview
     id="namedview7"
     pagecolor="#ffffff"
     bordercolor="#666666"
     borderopacity="1.0"
     inkscape:showpageshadow="2"
     inkscape:pageopacity="0.0"
     inkscape:pagecheckerboard="0"
     inkscape:deskcolor="#d1d1d1"
     inkscape:document-units="pt"
     showgrid="false"
     inkscape:zoom="0.75611117"
     inkscape:cx="408.67006"
     inkscape:cy="559.44154"
     inkscape:window-width="2560"
     inkscape:window-height="1371"
     inkscape:window-x="0"
     inkscape:window-y="0"
     inkscape:window-maximized="1"
     inkscape:current-layer="svg5" />
  <defs
     id="defs2" />
  <path
     id="rect1455"
     style="fill-rule:evenodd;stroke-width:56.911;stroke-linecap:round;stroke-linejoin:bevel;stroke-opacity:0"
     inkscape:label="Ribbon"
     d="M 0 0 L 141.42101 141.42101 L 582.65564 141.42101 L 724.07665 5.6843419e-14 L 0 0 z M 132.85908 21.307461 L 151.17204 21.307461 L 151.17308 103.48273 C 151.17308 105.18143 151.49107 106.3488 152.12809 106.98581 C 152.7651 107.51665 153.9335 107.78234 155.6322 107.78234 L 164.07191 107.78234 C 165.87677 107.78234 167.09852 107.51665 167.73553 106.98581 C 168.37255 106.3488 168.69054 105.18143 168.69054 103.48273 L 168.69054 21.308497 L 187.00454 21.307461 L 187.00454 106.02976 C 187.00454 116.54045 181.21896 121.79673 169.64659 121.79673 L 150.21703 121.79673 C 138.64466 121.79673 132.85908 116.54045 132.85908 106.02976 L 132.85908 21.307461 z M 202.13345 21.307461 L 239.08047 21.307461 C 250.65284 21.307461 256.43946 26.5627 256.43946 37.073388 L 256.43946 69.08378 C 256.43946 79.594468 250.65284 84.849706 239.08047 84.849706 L 220.44848 84.849706 L 220.44744 121.79569 L 202.13345 121.79673 L 202.13345 21.307461 z M 220.44848 35.321848 L 220.44848 70.835319 L 233.6653 70.835319 C 235.364 70.835319 236.5324 70.569631 237.16941 70.038789 C 237.80643 69.401777 238.12442 68.234407 238.12442 66.53571 L 238.12442 39.621458 C 238.12442 37.922761 237.80643 36.808735 237.16941 36.277892 C 236.5324 35.640881 235.364 35.321848 233.6653 35.321848 L 220.44848 35.321848 z M 271.76724 25.248684 C 274.66033 22.621012 279.00003 21.307461 284.78622 21.307461 L 303.41821 21.307461 C 314.99058 21.307461 320.7772 26.5627 320.7772 37.073388 L 320.7772 52.202296 L 302.30369 52.203332 L 302.30369 38.98444 C 302.30369 37.285743 301.98569 36.171718 301.34868 35.640875 C 300.71167 35.003863 299.54326 34.684831 297.84456 34.684831 L 290.35987 34.684831 C 288.66117 34.684831 287.4938 35.002828 286.85679 35.639839 C 286.21978 36.170682 285.90074 37.285743 285.90074 38.98444 L 285.90074 104.27926 C 285.90074 105.97796 286.21978 107.14429 286.85679 107.7813 C 287.4938 108.31215 288.66117 108.57887 290.35987 108.57887 L 297.84456 108.57887 C 299.54326 108.57887 300.71167 108.31318 301.34868 107.78234 C 301.98569 107.14533 302.30472 105.97692 302.30472 104.27822 L 302.30369 81.982609 L 294.34148 81.983645 L 294.34148 69.08378 L 320.7772 69.08378 L 320.7772 106.19031 C 320.7772 116.701 314.99162 121.9552 303.41924 121.9552 L 284.78622 121.95624 C 273.21385 121.95624 267.42827 116.69997 267.42827 106.18928 L 267.42723 37.073388 C 267.42723 31.818044 268.87414 27.876356 271.76724 25.248684 z M 334.47359 21.307461 L 371.42061 21.307461 C 382.99299 21.307461 388.77856 26.563735 388.77856 37.074423 L 388.77856 66.853701 C 388.77856 75.559523 384.90304 80.655763 377.15273 82.142123 L 393.8747 121.79673 L 374.12716 121.79569 L 358.83874 82.619627 L 352.78759 82.619627 L 352.78759 121.79569 L 334.47359 121.79673 L 334.47359 21.307461 z M 352.78655 35.321848 L 352.78759 69.08378 L 366.00544 69.082744 C 367.70414 69.082744 368.87151 68.818092 369.50852 68.287249 C 370.14553 67.650238 370.46457 66.481832 370.46457 64.783135 L 370.46457 39.621458 C 370.46457 37.922761 370.14553 36.807699 369.50852 36.276857 C 368.87151 35.639845 367.70414 35.321848 366.00544 35.321848 L 352.78655 35.321848 z M 416.80734 21.307461 L 441.49047 21.307461 L 462.67157 121.79569 L 444.19806 121.79673 L 440.37699 100.93466 L 418.39936 100.93466 L 414.89628 121.79569 L 396.58229 121.79673 L 416.80734 21.307461 z M 429.06915 38.98444 L 420.78896 87.07875 L 437.82788 87.07875 L 429.06915 38.98444 z M 472.38635 21.307461 L 510.6074 21.307461 C 522.17977 21.307461 527.96535 26.563735 527.96535 37.074423 L 527.96535 106.02976 C 527.96535 116.54045 522.17977 121.79673 510.6074 121.79673 L 472.38635 121.79673 L 472.38635 21.307461 z M 490.70034 34.684831 L 490.70034 108.41936 L 505.03376 108.41936 C 506.73245 108.41936 507.89879 108.15367 508.5358 107.62283 C 509.17281 106.98581 509.49184 105.81741 509.49184 104.11871 L 509.49288 38.98444 C 509.49288 37.285743 509.17385 36.170682 508.53683 35.639839 C 507.89982 35.002828 506.73245 34.684831 505.03376 34.684831 L 490.70034 34.684831 z M 542.61676 21.308497 L 590.39308 21.307461 L 590.39308 35.321848 L 561.09027 35.321848 L 561.09027 63.191108 L 585.7734 63.191108 L 585.77444 77.363973 L 561.09027 77.365009 L 561.09027 107.78234 L 591.66711 107.78234 L 591.66711 121.79673 L 542.61676 121.79569 L 542.61676 21.308497 z "
     transform="rotate(45)" />
</svg>
